<svg width="540" height="380" viewBox="0 0 602 421" fill="none" xmlns="http://www.w3.org/2000/svg">
<path d="M555.219 256.156L544.694 256.391L539.352 256.485C537.567 256.525 535.773 256.517 533.983 256.532L533.627 256.534L533.626 256.156L533.582 246.734L533.58 246.312L533.983 246.313L544.6 246.366C548.139 246.37 551.678 246.461 555.217 246.504L555.438 246.507L555.436 246.734C555.421 248.333 555.367 249.923 555.331 251.495L555.219 256.156ZM555.219 256.156L555.105 251.396C555.069 249.827 555.015 248.276 555 246.734L555.219 246.964C551.68 247.007 548.14 247.098 544.601 247.102L533.984 247.155L534.384 246.735L534.341 256.157L533.984 255.781C535.734 255.797 537.479 255.788 539.233 255.828L544.509 255.922L555.219 256.156Z" fill="#EBEBEB"/>
<path d="M543.366 268.037L532.841 268.272L527.5 268.366C525.715 268.406 523.921 268.398 522.131 268.413L521.775 268.416L521.773 268.038L521.73 258.616L521.729 258.193L522.131 258.195L532.748 258.248C536.287 258.252 539.827 258.342 543.366 258.386L543.587 258.389L543.584 258.616C543.569 260.215 543.515 261.805 543.479 263.377L543.366 268.037ZM543.366 268.037L543.252 263.277C543.216 261.708 543.163 260.157 543.147 258.615L543.366 258.845C539.827 258.888 536.288 258.979 532.749 258.983L522.132 259.036L522.532 258.616L522.489 268.038L522.131 267.662C523.881 267.678 525.626 267.669 527.38 267.709L532.656 267.803L543.366 268.037Z" fill="#EBEBEB"/>
<path d="M567.056 268.037L556.531 268.272L551.189 268.366C549.404 268.406 547.61 268.398 545.821 268.413L545.464 268.416L545.463 268.038L545.42 258.616L545.418 258.193L545.821 258.195L556.438 258.248C559.977 258.252 563.516 258.342 567.055 258.386L567.276 258.389L567.274 258.616C567.259 260.215 567.205 261.805 567.169 263.377L567.056 268.037ZM567.056 268.037L566.942 263.277C566.906 261.708 566.852 260.157 566.837 258.615L567.056 258.845C563.517 258.888 559.977 258.979 556.439 258.983L545.821 259.036L546.221 258.616L546.178 268.038L545.821 267.662C547.57 267.678 549.315 267.669 551.07 267.709L556.346 267.803L567.056 268.037Z" fill="#EBEBEB"/>
<path d="M252.429 144.038L241.904 144.273L236.562 144.367C234.777 144.407 232.983 144.399 231.194 144.414L230.838 144.417L230.836 144.039L230.793 134.617L230.791 134.194L231.194 134.196L241.811 134.249C245.35 134.253 248.889 134.344 252.428 134.387L252.649 134.39L252.647 134.617C252.632 136.216 252.578 137.806 252.542 139.378L252.429 144.038ZM252.429 144.038L252.315 139.277C252.279 137.709 252.225 136.158 252.21 134.616L252.429 134.846C248.89 134.889 245.35 134.98 241.812 134.984L231.194 135.037L231.595 134.617L231.551 144.039L231.194 143.663C232.943 143.679 234.688 143.67 236.443 143.71L241.719 143.804L252.429 144.038Z" fill="#EBEBEB"/>
<path d="M240.591 155.919L230.066 156.154L224.724 156.248C222.939 156.288 221.146 156.279 219.356 156.295L219 156.298L218.998 155.92L218.955 146.498L218.953 146.075L219.356 146.077L229.973 146.13C233.512 146.134 237.051 146.225 240.59 146.268L240.811 146.271L240.809 146.498C240.794 148.097 240.74 149.687 240.704 151.259L240.591 155.919ZM240.591 155.919L240.477 151.158C240.441 149.59 240.387 148.039 240.372 146.497L240.591 146.727C237.052 146.77 233.513 146.861 229.974 146.865L219.356 146.918L219.757 146.498L219.713 155.92L219.356 155.544C221.105 155.559 222.85 155.551 224.605 155.591L229.881 155.685L240.591 155.919Z" fill="#EBEBEB"/>
<path d="M264.28 155.919L253.755 156.154L248.414 156.248C246.629 156.288 244.835 156.279 243.045 156.295L242.689 156.298L242.687 155.92L242.644 146.498L242.643 146.075L243.045 146.077L253.662 146.13C257.201 146.134 260.741 146.225 264.28 146.268L264.501 146.271L264.498 146.498C264.483 148.097 264.43 149.687 264.393 151.259L264.28 155.919ZM264.28 155.919L264.167 151.158C264.13 149.59 264.077 148.039 264.061 146.497L264.28 146.727C260.742 146.77 257.202 146.861 253.663 146.865L243.046 146.918L243.446 146.498L243.403 155.92L243.045 155.544C244.795 155.559 246.54 155.551 248.294 155.591L253.57 155.685L264.28 155.919Z" fill="#EBEBEB"/>
<path d="M431.32 144.032L420.795 144.267L415.454 144.361C413.669 144.4 411.875 144.392 410.085 144.407L409.729 144.41L409.727 144.032L409.684 134.61L409.682 134.187L410.084 134.189L420.701 134.242C424.24 134.246 427.78 134.337 431.319 134.38L431.54 134.382L431.538 134.61C431.522 136.209 431.469 137.798 431.433 139.37L431.32 144.032ZM431.32 144.032L431.206 139.271C431.17 137.702 431.117 136.151 431.101 134.61L431.32 134.84C427.781 134.882 424.242 134.973 420.703 134.978L410.086 135.031L410.486 134.611L410.443 144.033L410.085 143.657C411.835 143.672 413.58 143.664 415.334 143.703L420.61 143.798L431.32 144.032Z" fill="#EBEBEB"/>
<path d="M553.984 52.5235L543.459 52.7584L538.117 52.8527C536.332 52.8923 534.538 52.8839 532.748 52.899L532.392 52.9024L532.391 52.5244L532.347 43.1024L532.346 42.6797L532.748 42.6814L543.365 42.7344C546.904 42.7386 550.444 42.8287 553.983 42.8725L554.204 42.875L554.202 43.1024C554.186 44.7013 554.133 46.291 554.097 47.863L553.984 52.5235ZM553.984 52.5235L553.87 47.7628C553.834 46.1942 553.78 44.6432 553.765 43.1015L553.984 43.3314C550.445 43.3743 546.905 43.4653 543.366 43.4695L532.749 43.5225L533.149 43.1024L533.106 52.5244L532.748 52.1488C534.498 52.164 536.243 52.1556 537.998 52.1951L543.273 52.2894L553.984 52.5235Z" fill="#EBEBEB"/>
<path d="M565.828 64.4039L555.303 64.6388L549.962 64.7331C548.177 64.7727 546.383 64.7643 544.593 64.7794L544.237 64.7828L544.235 64.4047L544.192 54.9827L544.189 54.5601L544.592 54.5617L555.209 54.6148C558.748 54.619 562.288 54.7099 565.826 54.7529L566.048 54.7554L566.045 54.9827C566.03 56.5817 565.976 58.1714 565.94 59.7434L565.828 64.4039ZM565.828 64.4039L565.714 59.6432C565.678 58.0746 565.624 56.5236 565.609 54.9819L565.828 55.2118C562.289 55.2547 558.75 55.3456 555.211 55.3499L544.594 55.4029L544.994 54.9827L544.95 64.4047L544.593 64.0292C546.343 64.0443 548.088 64.0359 549.842 64.0755L555.118 64.1698L565.828 64.4039Z" fill="#EBEBEB"/>
<path d="M55.6046 52.5328L45.0796 52.7677L39.7381 52.862C37.9531 52.9016 36.1592 52.8932 34.3694 52.9083L34.0133 52.9108L34.0117 52.5328L33.9684 43.1108L33.9668 42.689L34.3694 42.6906L44.9866 42.7437C48.5254 42.7479 52.065 42.8388 55.6038 42.8818L55.8251 42.8843L55.8227 43.1116C55.8075 44.7106 55.7537 46.3003 55.7177 47.8723L55.6046 52.5328ZM55.6046 52.5328L55.4907 47.7721C55.4546 46.2035 55.4009 44.6525 55.3857 43.1108L55.6046 43.3407C52.0658 43.3836 48.5262 43.4746 44.9874 43.4788L34.3702 43.5318L34.7703 43.1116L34.727 52.5336L34.3694 52.1581C36.1191 52.1733 37.8641 52.1648 39.6186 52.2044L44.8944 52.2987L55.6046 52.5328Z" fill="#EBEBEB"/>
<path d="M129.83 114.601H471.933C473.716 114.601 475.161 116.047 475.161 117.83V355.834C475.161 357.617 473.716 359.062 471.933 359.062H129.83C128.047 359.062 126.601 357.617 126.601 355.834V117.83C126.601 116.047 128.047 114.601 129.83 114.601Z" fill="#DBDBDB" stroke="#323232" stroke-width="1.20286"/>
<path d="M469.232 117.059H132.213C130.098 117.059 128.383 118.773 128.383 120.889V352.9C128.383 355.015 130.098 356.73 132.213 356.73H469.231C471.347 356.73 473.061 355.015 473.061 352.9V120.889C473.061 118.773 471.347 117.059 469.232 117.059Z" fill="#F2F2F2"/>
<path d="M454.893 93.8218H140.738V302.681H454.893V93.8218Z" fill="#F2F2F2"/>
<path d="M211.214 139.379H143.852V340.201H211.214V139.379Z" fill="#F2F2F2"/>
<path d="M144.453 139.98H150.456V339.6H144.453V139.98Z" stroke="#323232" stroke-width="1.20286"/>
<path d="M210.51 208.093H151.57V210.499H210.51V208.093Z" fill="#323232"/>
<path d="M181.157 149.346H157.768V150.682H181.157V149.346Z" fill="#323232"/>
<path d="M154.779 149.589H156.286L155.532 150.438L154.779 149.589Z" fill="#323232"/>
<path d="M162.747 154.307H159.646V155.642H162.747V154.307Z" fill="#323232"/>
<path d="M157.762 155.766V154.183L158.571 154.974L157.762 155.766Z" fill="#323232"/>
<path d="M162.753 159.266H159.652V160.601H162.753V159.266Z" fill="#323232"/>
<path d="M157.416 159.509H158.924L158.17 160.358L157.416 159.509Z" fill="#323232"/>
<path d="M162.753 164.227H159.652V165.562H162.753V164.227Z" fill="#323232"/>
<path d="M157.416 164.47H158.924L158.17 165.319L157.416 164.47Z" fill="#323232"/>
<path d="M164.633 169.186H161.533V170.521H164.633V169.186Z" fill="#323232"/>
<path d="M159.648 170.645V169.062L160.458 169.853L159.648 170.645Z" fill="#323232"/>
<path d="M166.518 174.153H163.418V175.488H166.518V174.153Z" fill="#323232"/>
<path d="M161.533 175.612V174.029L162.342 174.82L161.533 175.612Z" fill="#323232"/>
<path d="M166.518 223.746H163.418V225.081H166.518V223.746Z" fill="#323232"/>
<path d="M161.533 225.205V223.622L162.342 224.413L161.533 225.205Z" fill="#323232"/>
<path d="M168.403 179.105H165.303V180.44H168.403V179.105Z" fill="#323232"/>
<path d="M163.418 180.564V178.981L164.227 179.772L163.418 180.564Z" fill="#323232"/>
<path d="M168.403 218.785H165.303V220.12H168.403V218.785Z" fill="#323232"/>
<path d="M163.418 220.244V218.662L164.227 219.454L163.418 220.244Z" fill="#323232"/>
<path d="M170.28 184.062H167.18V185.397H170.28V184.062Z" fill="#323232"/>
<path d="M165.295 185.521V183.938L166.103 184.729L165.295 185.521Z" fill="#323232"/>
<path d="M170.28 213.826H167.18V215.162H170.28V213.826Z" fill="#323232"/>
<path d="M165.295 215.285V213.702L166.103 214.494L165.295 215.285Z" fill="#323232"/>
<path d="M172.172 189.03H169.072V190.365H172.172V189.03Z" fill="#323232"/>
<path d="M167.188 190.489V188.906L167.996 189.697L167.188 190.489Z" fill="#323232"/>
<path d="M172.524 193.986H169.424V195.321H172.524V193.986Z" fill="#323232"/>
<path d="M167.188 194.229H168.694L167.941 195.079L167.188 194.229Z" fill="#323232"/>
<path d="M172.524 198.946H169.424V200.281H172.524V198.946Z" fill="#323232"/>
<path d="M167.188 199.189H168.694L167.941 200.038L167.188 199.189Z" fill="#323232"/>
<path d="M172.524 203.905H169.424V205.241H172.524V203.905Z" fill="#323232"/>
<path d="M167.188 204.148H168.694L167.941 204.998L167.188 204.148Z" fill="#323232"/>
<path d="M172.524 208.865H169.424V210.201H172.524V208.865Z" fill="white"/>
<path d="M167.188 209.108H168.694L167.941 209.957L167.188 209.108Z" fill="white"/>
<path d="M162.747 228.709H159.646V230.044H162.747V228.709Z" fill="#323232"/>
<path d="M157.762 230.169V228.586L158.571 229.377L157.762 230.169Z" fill="#323232"/>
<path d="M162.753 233.668H159.652V235.004H162.753V233.668Z" fill="#323232"/>
<path d="M157.416 233.912H158.924L158.17 234.761L157.416 233.912Z" fill="#323232"/>
<path d="M162.753 238.629H159.652V239.964H162.753V238.629Z" fill="#323232"/>
<path d="M157.416 238.872H158.924L158.17 239.721L157.416 238.872Z" fill="#323232"/>
<path d="M164.633 243.589H161.533V244.925H164.633V243.589Z" fill="#323232"/>
<path d="M159.648 245.048V243.465L160.458 244.257L159.648 245.048Z" fill="#323232"/>
<path d="M166.518 248.557H163.418V249.892H166.518V248.557Z" fill="#323232"/>
<path d="M161.533 250.016V248.433L162.342 249.224L161.533 250.016Z" fill="#323232"/>
<path d="M166.518 253.516H163.418V254.851H166.518V253.516Z" fill="#323232"/>
<path d="M161.533 254.976V253.393L162.342 254.185L161.533 254.976Z" fill="#323232"/>
<path d="M166.87 258.473H163.77V259.808H166.87V258.473Z" fill="#323232"/>
<path d="M161.533 258.716H163.041L162.287 259.565L161.533 258.716Z" fill="#323232"/>
<path d="M166.87 263.433H163.77V264.769H166.87V263.433Z" fill="#323232"/>
<path d="M161.533 263.676H163.041L162.287 264.525L161.533 263.676Z" fill="#323232"/>
<path d="M166.87 268.393H163.77V269.728H166.87V268.393Z" fill="#323232"/>
<path d="M161.533 268.636H163.041L162.287 269.485L161.533 268.636Z" fill="#323232"/>
<path d="M166.87 273.353H163.77V274.688H166.87V273.353Z" fill="#323232"/>
<path d="M161.533 273.596H163.041L162.287 274.444L161.533 273.596Z" fill="#323232"/>
<path d="M144.244 133.065H457.195V139.899H144.244V133.065Z" fill="#F2F2F2" stroke="#323232" stroke-width="1.20286"/>
<path d="M150.857 136.482C150.857 137.322 150.209 138.003 149.409 138.003C148.61 138.003 147.961 137.322 147.961 136.482C147.961 135.643 148.61 134.961 149.409 134.961C150.209 134.961 150.857 135.643 150.857 136.482Z" fill="#C7C7C7"/>
<path d="M156.764 136.482C156.764 137.322 156.115 138.003 155.315 138.003C154.515 138.003 153.867 137.322 153.867 136.482C153.867 135.643 154.515 134.961 155.315 134.961C156.116 134.961 156.764 135.643 156.764 136.482Z" fill="white"/>
<path d="M162.687 136.482C162.687 137.322 162.039 138.003 161.239 138.003C160.44 138.003 159.791 137.322 159.791 136.482C159.791 135.643 160.44 134.961 161.239 134.961C162.039 134.961 162.687 135.643 162.687 136.482Z" fill="#455A64"/>
<path d="M226.954 176.329H232.382V177.55H226.954V176.329Z" stroke="#323232" stroke-width="0.240571"/>
<path d="M239.31 176.329H364.704V177.55H239.31V176.329Z" stroke="#323232" stroke-width="0.240571"/>
<path d="M368.413 176.309H378.978V177.57H368.413V176.309Z" stroke="#323232" stroke-width="0.2"/>
<path d="M421.874 210.715H385.537V212.175H421.874V210.715Z" fill="#EBEBEB"/>
<path d="M434.752 176.209H381.41V177.67H434.752V176.209Z" fill="#A6A6A6"/>
<path d="M226.954 183.231H232.382V184.451H226.954V183.231Z" stroke="#323232" stroke-width="0.240571"/>
<path d="M287.379 183.11H244.713V184.571H287.379V183.11Z" fill="#A6A6A6"/>
<path d="M382.979 210.715H366.84V212.175H382.979V210.715Z" fill="#A6A6A6"/>
<path d="M279.942 203.814H239.189V205.274H279.942V203.814Z" fill="#A6A6A6"/>
<path d="M244.833 190.132H273.182V191.352H244.833V190.132Z" stroke="#323232" stroke-width="0.240571"/>
<path d="M429.67 196.913H375.51V198.373H429.67V196.913Z" fill="#A6A6A6"/>
<path d="M364.826 230.783H310.666V232.243H364.826V230.783Z" fill="#A6A6A6"/>
<path d="M382.755 190.012H276.479V191.473H382.755V190.012Z" fill="#A6A6A6"/>
<path d="M239.31 210.835H363.031V212.055H239.31V210.835Z" stroke="#323232" stroke-width="0.240571"/>
<path d="M377.869 183.11H290.057V184.571H377.869V183.11Z" fill="#EBEBEB"/>
<path d="M405.678 190.012H387.295V191.473H405.678V190.012Z" fill="#EBEBEB"/>
<path d="M226.954 190.132H232.382V191.352H226.954V190.132Z" stroke="#323232" stroke-width="0.240571"/>
<path d="M232.502 196.913H226.834V198.373H232.502V196.913Z" fill="#A6A6A6"/>
<path d="M239.31 197.033H272.566V198.253H239.31V197.033Z" stroke="#323232" stroke-width="0.240571"/>
<path d="M244.833 217.736H278.089V218.956H244.833V217.736Z" stroke="#323232" stroke-width="0.240571"/>
<path d="M367.893 224.617H414.456V225.878H367.893V224.617Z" stroke="#323232" stroke-width="0.2"/>
<path d="M364.866 224.517H275.006V225.978H364.866V224.517Z" fill="#EBEBEB"/>
<path d="M269.891 224.517H244.713V225.978H269.891V224.517Z" fill="#A6A6A6"/>
<path d="M379.075 203.814H282.25V205.274H379.075V203.814Z" fill="#EBEBEB"/>
<path d="M381.51 203.914H439.077V205.174H381.51V203.914Z" stroke="#323232" stroke-width="0.2"/>
<path d="M276.196 197.013H372.777V198.273H276.196V197.013Z" stroke="#323232" stroke-width="0.2"/>
<path d="M226.954 203.934H232.382V205.154H226.954V203.934Z" stroke="#323232" stroke-width="0.240571"/>
<path d="M226.954 210.835H232.382V212.055H226.954V210.835Z" stroke="#323232" stroke-width="0.240571"/>
<path d="M232.502 217.616H226.834V219.077H232.502V217.616Z" fill="#A6A6A6"/>
<path d="M226.954 224.637H232.382V225.858H226.954V224.637Z" stroke="#323232" stroke-width="0.240571"/>
<path d="M226.954 230.903H232.382V232.123H226.954V230.903Z" stroke="#323232" stroke-width="0.240571"/>
<path d="M239.31 230.903H305.526V232.123H239.31V230.903Z" stroke="#323232" stroke-width="0.240571"/>
<path d="M226.954 237.804H232.382V239.025H226.954V237.804Z" stroke="#323232" stroke-width="0.240571"/>
<path d="M287.379 237.684H244.713V239.145H287.379V237.684Z" fill="#A6A6A6"/>
<path d="M279.942 258.387H239.189V259.847H279.942V258.387Z" fill="#A6A6A6"/>
<path d="M244.833 244.706H273.182V245.926H244.833V244.706Z" stroke="#323232" stroke-width="0.240571"/>
<path d="M310.306 272.309H338.655V273.53H310.306V272.309Z" stroke="#323232" stroke-width="0.240571"/>
<path d="M244.833 286.111H273.182V287.332H244.833V286.111Z" stroke="#323232" stroke-width="0.240571"/>
<path d="M382.755 244.585H276.479V246.046H382.755V244.585Z" fill="#A6A6A6"/>
<path d="M239.31 265.409H363.031V266.628H239.31V265.409Z" stroke="#323232" stroke-width="0.240571"/>
<path d="M377.869 237.684H290.057V239.145H377.869V237.684Z" fill="#EBEBEB"/>
<path d="M396.47 251.486H378.121V252.947H396.47V251.486Z" fill="#EBEBEB"/>
<path d="M226.954 244.706H232.382V245.926H226.954V244.706Z" stroke="#323232" stroke-width="0.240571"/>
<path d="M232.502 251.486H226.834V252.946H232.502V251.486Z" fill="#A6A6A6"/>
<path d="M239.31 251.606H272.566V252.826H239.31V251.606Z" stroke="#323232" stroke-width="0.240571"/>
<path d="M379.075 258.387H282.25V259.847H379.075V258.387Z" fill="#EBEBEB"/>
<path d="M276.196 251.586H372.777V252.846H276.196V251.586Z" stroke="#323232" stroke-width="0.2"/>
<path d="M226.954 258.507H232.382V259.727H226.954V258.507Z" stroke="#323232" stroke-width="0.240571"/>
<path d="M226.954 272.309H232.382V273.53H226.954V272.309Z" stroke="#323232" stroke-width="0.240571"/>
<path d="M239.31 272.309H305.526V273.53H239.31V272.309Z" stroke="#323232" stroke-width="0.240571"/>
<path d="M226.954 279.211H232.382V280.431H226.954V279.211Z" stroke="#323232" stroke-width="0.240571"/>
<path d="M287.379 279.09H244.713V280.551H287.379V279.09Z" fill="#A6A6A6"/>
<path d="M279.942 299.794H239.189V301.255H279.942V299.794Z" fill="#A6A6A6"/>
<path d="M382.755 285.991H276.479V287.452H382.755V285.991Z" fill="#A6A6A6"/>
<path d="M378.241 293.013H396.35V294.233H378.241V293.013Z" stroke="#323232" stroke-width="0.240571"/>
<path d="M226.954 286.111H232.382V287.332H226.954V286.111Z" stroke="#323232" stroke-width="0.240571"/>
<path d="M232.502 292.893H226.834V294.353H232.502V292.893Z" fill="#A6A6A6"/>
<path d="M239.31 293.013H272.566V294.233H239.31V293.013Z" stroke="#323232" stroke-width="0.240571"/>
<path d="M282.37 299.914H378.955V301.135H282.37V299.914Z" stroke="#323232" stroke-width="0.240571"/>
<path d="M276.216 293.013H372.757V294.233H276.216V293.013Z" stroke="#323232" stroke-width="0.240571"/>
<path d="M226.954 299.914H232.382V301.135H226.954V299.914Z" stroke="#323232" stroke-width="0.240571"/>
<path d="M227.489 161.139C227.494 161.144 227.5 161.149 227.506 161.156L227.521 161.174L227.524 161.182L227.542 161.201L229.726 163.527C229.803 163.601 229.897 163.637 229.997 163.637C230.087 163.637 230.173 163.603 230.254 163.526C230.402 163.369 230.403 163.124 230.251 162.958L228.407 161.004L228.329 160.922L228.407 160.839L230.25 158.887L230.25 158.886C230.401 158.728 230.401 158.474 230.251 158.317L230.25 158.317C230.113 158.172 229.873 158.169 229.725 158.318L227.54 160.645L227.53 160.655L227.52 160.662C227.519 160.662 227.519 160.662 227.519 160.663L227.517 160.666C227.516 160.666 227.516 160.667 227.516 160.667L227.51 160.681L227.51 160.684L227.508 160.687L227.485 160.74H227.471C227.47 160.741 227.47 160.741 227.47 160.742C227.467 160.747 227.465 160.752 227.462 160.758C227.46 160.762 227.458 160.766 227.456 160.77L227.489 161.139ZM227.489 161.139C227.487 161.132 227.485 161.124 227.482 161.114L227.465 161.065L227.451 161.058C227.45 161.054 227.449 161.048 227.447 161.043C227.447 161.041 227.446 161.039 227.445 161.036C227.443 161.029 227.441 161.022 227.439 161.015C227.437 161.009 227.435 161.003 227.432 160.998V160.998V160.998V160.998V160.998V160.998V160.998V160.998V160.998V160.997V160.997V160.997V160.997V160.997V160.997V160.997V160.997V160.997V160.996V160.996V160.996V160.996V160.996V160.996V160.996V160.996V160.996V160.995V160.995V160.995V160.995V160.995V160.995V160.995V160.995V160.995V160.995V160.994V160.994V160.994V160.994V160.994V160.994V160.994V160.994V160.994V160.993V160.993V160.993V160.993V160.993V160.993V160.993V160.993V160.993V160.992V160.992V160.992V160.992V160.992V160.992V160.992V160.992V160.992V160.992V160.991V160.991V160.991V160.991V160.991V160.991V160.991V160.991V160.991V160.991V160.99V160.99V160.99V160.99V160.99V160.99V160.99V160.99V160.99V160.989V160.989V160.989V160.989V160.989V160.989V160.989V160.989V160.989V160.989V160.988V160.988V160.988V160.988V160.988V160.988V160.988V160.988V160.988V160.988V160.987V160.987V160.987V160.987V160.987V160.987V160.987V160.987V160.987V160.987V160.986V160.986V160.986V160.986V160.986V160.986V160.986V160.986V160.986V160.986V160.985V160.985V160.985V160.985V160.985V160.985V160.985V160.985V160.985V160.985V160.984V160.984V160.984V160.984V160.984V160.984V160.984V160.984V160.984V160.984V160.983V160.983V160.983V160.983V160.983V160.983V160.983V160.983V160.983V160.983V160.982V160.982V160.982V160.982V160.982V160.982V160.982V160.982V160.982V160.982V160.982V160.981V160.981V160.981V160.981V160.981V160.981V160.981V160.981V160.981V160.981V160.98V160.98V160.98V160.98V160.98V160.98V160.98V160.98V160.98V160.98V160.979V160.979V160.979V160.979V160.979V160.979V160.979V160.979V160.979V160.979V160.979V160.978V160.978V160.978V160.978V160.978V160.978V160.978V160.978V160.978V160.978V160.977V160.977V160.977V160.977V160.977V160.977V160.977V160.977V160.977V160.977V160.976V160.976V160.976V160.976V160.976V160.976V160.976V160.976V160.976V160.976V160.976V160.975V160.975V160.975V160.975V160.975V160.975V160.975V160.975V160.975V160.975V160.975V160.974V160.974V160.974V160.974V160.974V160.974V160.974V160.974V160.974V160.974V160.973V160.973V160.973V160.973V160.973V160.973V160.973V160.973V160.973V160.973V160.973V160.972V160.972V160.972V160.972V160.972V160.972V160.972V160.972V160.972V160.972V160.971V160.971C227.432 160.951 227.428 160.934 227.426 160.925C227.427 160.922 227.428 160.917 227.429 160.912C227.43 160.909 227.43 160.905 227.431 160.901C227.431 160.897 227.432 160.89 227.432 160.881V160.881V160.881V160.881V160.881V160.881V160.881V160.881V160.881V160.88V160.88V160.88V160.88V160.88V160.88V160.88V160.88V160.88V160.88V160.879V160.879V160.879V160.879V160.879V160.879V160.879V160.879V160.879V160.878V160.878V160.878V160.878V160.878V160.878V160.878V160.878V160.878V160.878V160.877V160.877V160.877V160.877V160.877V160.877V160.877V160.877V160.877V160.876V160.876V160.876V160.876V160.876V160.876V160.876V160.876V160.876V160.876V160.875V160.875V160.875V160.875V160.875V160.875V160.875V160.875V160.875V160.874V160.874V160.874V160.874V160.874V160.874V160.874V160.874V160.874V160.873V160.873V160.873V160.873V160.873V160.873V160.873V160.873V160.873V160.872V160.872V160.872V160.872V160.872V160.872V160.872V160.872V160.872V160.871V160.871V160.871V160.871V160.871V160.871V160.871V160.871V160.871V160.87V160.87V160.87V160.87V160.87V160.87V160.87V160.87V160.87V160.869V160.869V160.869V160.869V160.869V160.869V160.869V160.869V160.869V160.868V160.868V160.868V160.868V160.868V160.868V160.868V160.868V160.868V160.867V160.867V160.867V160.867V160.867V160.867V160.867V160.867V160.866V160.866V160.866V160.866V160.866V160.866V160.866V160.866V160.866V160.865V160.865V160.865V160.865V160.865V160.865V160.865V160.865V160.864V160.864V160.864V160.864V160.864V160.864V160.864V160.864V160.864V160.863V160.863V160.863V160.863V160.863V160.863V160.863V160.863V160.862V160.862V160.862V160.862V160.862V160.862V160.862V160.862V160.862V160.861V160.861V160.861V160.861V160.861V160.861V160.861V160.861V160.86V160.86V160.86V160.86V160.86V160.86V160.86V160.86V160.86V160.859V160.859V160.859V160.859V160.859V160.859V160.859V160.859V160.858V160.858V160.858V160.858V160.858V160.858V160.858V160.858V160.858V160.857V160.857V160.857V160.857V160.857V160.857V160.857V160.857V160.856V160.856V160.856V160.856V160.856V160.856V160.856V160.856V160.855V160.855V160.855V160.855V160.855V160.855V160.855V160.855V160.855V160.854V160.854V160.854V160.854V160.854V160.854V160.854V160.854V160.853V160.853V160.853C227.434 160.85 227.436 160.845 227.438 160.841C227.441 160.834 227.444 160.827 227.445 160.818M227.489 161.139L227.445 160.818M227.445 160.818C227.449 160.803 227.452 160.791 227.453 160.783C227.453 160.782 227.453 160.781 227.453 160.781C227.454 160.777 227.455 160.774 227.455 160.771L227.445 160.818Z" fill="#323232" stroke="#323232" stroke-width="0.240571"/>
<path d="M232.427 163.184L232.428 163.183L234.334 158.421C234.334 158.421 234.334 158.421 234.334 158.421C234.403 158.253 234.581 158.179 234.741 158.249L234.742 158.25C234.886 158.311 234.966 158.508 234.897 158.673L234.896 158.675L232.99 163.444C232.99 163.445 232.99 163.445 232.99 163.445C232.938 163.569 232.821 163.639 232.704 163.639C232.666 163.639 232.627 163.632 232.604 163.621L232.604 163.62L232.594 163.616C232.436 163.552 232.356 163.357 232.427 163.184ZM234.789 158.139C234.999 158.228 235.1 158.499 235.007 158.719L234.222 158.376C234.315 158.148 234.564 158.041 234.789 158.139Z" fill="#323232" stroke="#323232" stroke-width="0.240571"/>
<path d="M238.669 161.149C238.664 161.154 238.66 161.159 238.657 161.163L238.646 161.176C238.641 161.181 238.639 161.183 238.639 161.183L238.628 161.191L238.618 161.201L236.433 163.529C236.433 163.529 236.433 163.529 236.433 163.529C236.365 163.6 236.265 163.638 236.17 163.638C236.071 163.638 235.985 163.603 235.905 163.527C235.757 163.37 235.756 163.125 235.908 162.958L237.75 161.007L237.828 160.925L237.75 160.842L235.907 158.889L235.907 158.889L235.907 158.889C235.756 158.731 235.757 158.477 235.907 158.32L235.907 158.32C236.045 158.175 236.285 158.172 236.433 158.321L238.618 160.647L238.627 160.658L238.638 160.665C238.639 160.665 238.641 160.667 238.645 160.672L238.656 160.685C238.657 160.686 238.658 160.688 238.659 160.689L238.66 160.691C238.67 160.711 238.68 160.728 238.686 160.738C238.687 160.739 238.687 160.74 238.688 160.741C238.69 160.745 238.692 160.748 238.693 160.75C238.695 160.758 238.699 160.766 238.702 160.773C238.703 160.773 238.703 160.774 238.703 160.774C238.703 160.775 238.703 160.775 238.703 160.775L238.708 160.793C238.711 160.807 238.716 160.822 238.724 160.841C238.724 160.843 238.725 160.844 238.725 160.845V160.845V160.846V160.846V160.846V160.846V160.846V160.846V160.846V160.846V160.847V160.847V160.847V160.847V160.847V160.847V160.847V160.847V160.847V160.848V160.848V160.848V160.848V160.848V160.848V160.848V160.848V160.848V160.849V160.849V160.849V160.849V160.849V160.849V160.849V160.849V160.85V160.85V160.85V160.85V160.85V160.85V160.85V160.85V160.851V160.851V160.851V160.851V160.851V160.851V160.851V160.851V160.851V160.852V160.852V160.852V160.852V160.852V160.852V160.852V160.852V160.853V160.853V160.853V160.853V160.853V160.853V160.853V160.853V160.853V160.854V160.854V160.854V160.854V160.854V160.854V160.854V160.854V160.855V160.855V160.855V160.855V160.855V160.855V160.855V160.855V160.856V160.856V160.856V160.856V160.856V160.856V160.856V160.856V160.856V160.857V160.857V160.857V160.857V160.857V160.857V160.857V160.857V160.858V160.858V160.858V160.858V160.858V160.858V160.858V160.858V160.859V160.859V160.859V160.859V160.859V160.859V160.859V160.859V160.859V160.86V160.86V160.86V160.86V160.86V160.86V160.86V160.86V160.861V160.861V160.861V160.861V160.861V160.861V160.861V160.861V160.862V160.862V160.862V160.862V160.862V160.862V160.862V160.862V160.862V160.863V160.863V160.863V160.863V160.863V160.863V160.863V160.863V160.864V160.864V160.864V160.864V160.864V160.864V160.864V160.864V160.864V160.865V160.865V160.865V160.865V160.865V160.865V160.865V160.865V160.866V160.866V160.866V160.866V160.866V160.866V160.866V160.866V160.866V160.867V160.867V160.867V160.867V160.867V160.867V160.867V160.867V160.868V160.868V160.868V160.868V160.868V160.868V160.868V160.868V160.868V160.869V160.869V160.869V160.869V160.869V160.869V160.869V160.869V160.87V160.87V160.87V160.87V160.87V160.87V160.87V160.87V160.87V160.871V160.871V160.871V160.871V160.871V160.871V160.871V160.871V160.871V160.872V160.872V160.872V160.872V160.872V160.872V160.872V160.872V160.872V160.873V160.873V160.873V160.873V160.873V160.873V160.873V160.873V160.874V160.874V160.874V160.874V160.874V160.874V160.874V160.874V160.874V160.875V160.875V160.875V160.875V160.875V160.875V160.875V160.875V160.875V160.876V160.876V160.876V160.876V160.876V160.876V160.876V160.876V160.876V160.877V160.877V160.877V160.877V160.877V160.877V160.877V160.877V160.877V160.877V160.878V160.878V160.878V160.878V160.878V160.878V160.878V160.878V160.878V160.879V160.879V160.879V160.879V160.879V160.879V160.879V160.879V160.879V160.88V160.88V160.88V160.88V160.88V160.88V160.88V160.88V160.88V160.88V160.881V160.881V160.881V160.881V160.881V160.881V160.881V160.881V160.881V160.882V160.882V160.882V160.882V160.882V160.882V160.882V160.882V160.882V160.882V160.883V160.883V160.883V160.883V160.883V160.883V160.883V160.883V160.883V160.883V160.884V160.884V160.884V160.884V160.884V160.884V160.884V160.884C238.725 160.895 238.727 160.904 238.727 160.908C238.728 160.913 238.729 160.917 238.73 160.92C238.73 160.922 238.731 160.923 238.731 160.925C238.731 160.927 238.73 160.928 238.73 160.93C238.729 160.933 238.728 160.938 238.727 160.943C238.726 160.947 238.725 160.956 238.725 160.966V160.966V160.966V160.966V160.966V160.967V160.967V160.967V160.967V160.967V160.967V160.967V160.968V160.968V160.968V160.968V160.968V160.968V160.968V160.969V160.969V160.969V160.969V160.969V160.969V160.969V160.97V160.97V160.97V160.97V160.97V160.97V160.97V160.971V160.971V160.971V160.971V160.971V160.971V160.971V160.971V160.972V160.972V160.972V160.972V160.972V160.972V160.972V160.973V160.973V160.973V160.973V160.973V160.973V160.973V160.974V160.974V160.974V160.974V160.974V160.974V160.974V160.974V160.975V160.975V160.975V160.975V160.975V160.975V160.975V160.976V160.976V160.976V160.976V160.976V160.976V160.976V160.976V160.977V160.977V160.977V160.977V160.977V160.977V160.977V160.978V160.978V160.978V160.978V160.978V160.978V160.978V160.978V160.979V160.979V160.979V160.979V160.979V160.979V160.979V160.979V160.98V160.98V160.98V160.98V160.98V160.98V160.98V160.98V160.981V160.981V160.981V160.981V160.981V160.981V160.981V160.982V160.982V160.982V160.982V160.982V160.982V160.982V160.982V160.983V160.983V160.983V160.983V160.983V160.983V160.983V160.983V160.984V160.984V160.984V160.984V160.984V160.984V160.984V160.984V160.985V160.985V160.985V160.985V160.985V160.985V160.985V160.985V160.986V160.986V160.986V160.986V160.986V160.986V160.986V160.986V160.987V160.987V160.987V160.987V160.987V160.987V160.987V160.987V160.988V160.988V160.988V160.988V160.988V160.988V160.988V160.988V160.989V160.989V160.989V160.989V160.989V160.989V160.989V160.989V160.99V160.99V160.99V160.99V160.99V160.99V160.99V160.99V160.99V160.991V160.991V160.991V160.991V160.991V160.991V160.991V160.991V160.992V160.992V160.992V160.992V160.992V160.992V160.992V160.992V160.993V160.993V160.993V160.993V160.993V160.993V160.993V160.993V160.994V160.994V160.994V160.994V160.994V160.994V160.994V160.994V160.995V160.995V160.995V160.995V160.995V160.995V160.995V160.995V160.995V160.996V160.996V160.996V160.996V160.996V160.996V160.996V160.996V160.997V160.997V160.997V160.997V160.997V160.997V160.997V160.997V160.998V160.998V160.998V160.998V160.998V160.998V160.998V160.998V160.999V160.999V160.999V160.999V160.999V160.999V160.999V160.999V160.999V161V161V161V161V161V161V161V161V161.001V161.001V161.001V161.001V161.001V161.001V161.001V161.001V161.002V161.002V161.002V161.002V161.002V161.002V161.002V161.002V161.002V161.003V161.003V161.003V161.003V161.003V161.003V161.003V161.003V161.004V161.004V161.004V161.004V161.004V161.004V161.004V161.004V161.005V161.005V161.005V161.005V161.005V161.005V161.005C238.725 161.007 238.724 161.009 238.723 161.011C238.715 161.033 238.71 161.051 238.707 161.064L238.705 161.074L238.695 161.093V161.099C238.694 161.1 238.694 161.102 238.693 161.104L238.669 161.149ZM238.669 161.149C238.678 161.131 238.687 161.115 238.693 161.104L238.669 161.149ZM238.736 160.942C238.736 160.942 238.736 160.942 238.736 160.942L238.736 160.942Z" fill="#323232" stroke="#323232" stroke-width="0.240571"/>
<path d="M210.506 140.133V339.206H150.965" stroke="#323232" stroke-width="1.20286"/>
<path d="M454.999 114.5L227 114" stroke="#323232" stroke-width="1.2"/>
<rect x="260.958" y="359.958" width="73.4714" height="22.3754" fill="#0E0E0E" stroke="#323232" stroke-width="1.91617"/>
<path opacity="0.6" d="M111.917 336.917H40.3952V239.083H94.4093L111.917 257.274V336.917Z" fill="white" stroke="#323232" stroke-width="2.16548"/>
<path d="M112.575 258.722H94.4453V239.884L112.575 258.722Z" fill="#323232"/>
<path d="M55.8907 275.123C55.9008 278.275 58.3694 280.824 61.404 280.815C64.44 280.804 66.8927 278.239 66.8826 275.087C66.8725 271.934 64.4053 269.386 61.3693 269.395C58.3333 269.405 55.8806 271.97 55.8907 275.123Z" fill="#323232"/>
<path d="M64.3672 300.484H101.634L83.0004 276.85L64.3672 300.484Z" fill="#323232"/>
<path d="M49.7656 300.485H80.5327L65.1492 285.094L49.7656 300.485Z" fill="#323232"/>
<path d="M101.64 262.663H49.7656V300.481H101.64V262.663Z" stroke="#323232" stroke-width="4.33096" stroke-miterlimit="10"/>
<path d="M73.9301 304.562H21V327.32H73.9301V304.562Z" fill="#323232"/>
<path d="M33.5156 316.204C33.5156 315.53 33.6326 314.864 33.8679 314.206C34.1017 313.547 34.4439 312.959 34.8929 312.442C35.3418 311.925 35.8904 311.505 36.5386 311.184C37.1868 310.863 37.9245 310.702 38.7532 310.702C39.7305 310.702 40.5765 310.926 41.2897 311.371C42.0028 311.817 42.5341 312.397 42.8835 313.112L41.2984 314.246C41.1583 313.936 40.9894 313.673 40.7902 313.462C40.591 313.249 40.3759 313.081 40.1463 312.956C39.9168 312.832 39.6771 312.74 39.4274 312.683C39.1776 312.626 38.9336 312.598 38.694 312.598C38.1757 312.598 37.7239 312.708 37.3399 312.925C36.9558 313.142 36.6368 313.424 36.3827 313.772C36.1286 314.12 35.9366 314.513 35.8067 314.954C35.6768 315.395 35.6118 315.833 35.6118 316.268C35.6118 316.756 35.6869 317.224 35.8356 317.675C35.9857 318.125 36.1965 318.523 36.4708 318.865C36.7451 319.207 37.0742 319.481 37.4582 319.688C37.8422 319.895 38.2638 319.999 38.7229 319.999C38.9625 319.999 39.2123 319.967 39.4707 319.906C39.7305 319.843 39.9774 319.745 40.2113 319.61C40.4451 319.475 40.6631 319.303 40.8624 319.09C41.0616 318.877 41.2218 318.62 41.3417 318.32L43.0322 319.331C42.8633 319.747 42.6207 320.111 42.3075 320.427C41.9927 320.744 41.639 321.009 41.2449 321.228C40.8508 321.446 40.4293 321.611 39.9817 321.726C39.5328 321.84 39.0939 321.897 38.6651 321.897C37.9072 321.897 37.2143 321.732 36.5863 321.399C35.9583 321.068 35.4169 320.636 34.9636 320.101C34.5103 319.568 34.1566 318.961 33.9011 318.283C33.6427 317.6 33.5156 316.909 33.5156 316.204Z" fill="white"/>
<path d="M50.7633 313.655C50.6926 313.583 50.567 313.484 50.3808 313.359C50.196 313.235 49.9722 313.113 49.708 312.995C49.4438 312.876 49.1566 312.774 48.8491 312.692C48.5401 312.609 48.2254 312.567 47.9064 312.567C47.3376 312.567 46.9131 312.677 46.6345 312.894C46.3559 313.112 46.2158 313.418 46.2158 313.811C46.2158 314.039 46.2678 314.228 46.3732 314.378C46.4771 314.529 46.6302 314.661 46.8294 314.775C47.0286 314.889 47.2813 314.993 47.5844 315.086C47.889 315.179 48.2398 315.278 48.6397 315.381C49.1566 315.527 49.6301 315.681 50.0516 315.848C50.4761 316.013 50.8355 316.221 51.1286 316.469C51.4216 316.718 51.6497 317.016 51.8114 317.363C51.9688 317.711 52.0511 318.138 52.0511 318.645C52.0511 319.236 51.9428 319.74 51.7277 320.16C51.5126 320.58 51.2239 320.919 50.8601 321.178C50.4963 321.438 50.0762 321.627 49.6041 321.745C49.1291 321.864 48.634 321.924 48.1157 321.924C47.3173 321.924 46.5291 321.799 45.751 321.55C44.9729 321.301 44.2756 320.949 43.6562 320.493L44.5686 318.644C44.6581 318.737 44.8198 318.858 45.0551 319.008C45.289 319.158 45.5662 319.309 45.8852 319.458C46.2043 319.609 46.558 319.735 46.9463 319.839C47.3361 319.942 47.7346 319.995 48.1431 319.995C49.2793 319.995 49.8481 319.617 49.8481 318.861C49.8481 318.623 49.7831 318.42 49.6532 318.254C49.5247 318.089 49.3385 317.943 49.1003 317.819C48.8606 317.694 48.5719 317.58 48.2326 317.477C47.8934 317.373 47.5137 317.259 47.095 317.135C46.5869 316.989 46.1451 316.832 45.7712 316.661C45.3973 316.49 45.0855 316.289 44.8357 316.055C44.586 315.822 44.3997 315.552 44.2741 315.246C44.15 314.94 44.0865 314.576 44.0865 314.15C44.0865 313.59 44.1861 313.092 44.3853 312.657C44.5845 312.222 44.8617 311.859 45.2154 311.57C45.5691 311.281 45.9805 311.06 46.4497 310.91C46.9189 310.76 47.4227 310.685 47.9612 310.685C48.709 310.685 49.3962 310.807 50.0271 311.051C50.6551 311.294 51.2022 311.582 51.6714 311.913L50.7633 313.655Z" fill="white"/>
<path d="M59.9182 313.655C59.8474 313.583 59.7204 313.484 59.537 313.359C59.3522 313.235 59.1285 313.113 58.8643 312.995C58.6001 312.876 58.3128 312.774 58.0039 312.692C57.6949 312.609 57.3802 312.567 57.0626 312.567C56.4938 312.567 56.0694 312.677 55.7907 312.894C55.5121 313.112 55.3721 313.418 55.3721 313.811C55.3721 314.039 55.4255 314.228 55.5294 314.378C55.6348 314.529 55.7864 314.661 55.9857 314.775C56.1863 314.889 56.4375 314.993 56.7407 315.086C57.0438 315.179 57.3961 315.278 57.796 315.381C58.3143 315.527 58.7849 315.681 59.2093 315.848C59.6338 316.013 59.9932 316.221 60.2863 316.469C60.5793 316.718 60.8074 317.016 60.9677 317.363C61.1265 317.711 61.2073 318.138 61.2073 318.645C61.2073 319.236 61.1005 319.74 60.8854 320.16C60.6703 320.58 60.3816 320.919 60.0178 321.178C59.6525 321.438 59.2339 321.627 58.7604 321.745C58.2868 321.864 57.7902 321.924 57.2719 321.924C56.475 321.924 55.6854 321.799 54.9087 321.55C54.1306 321.301 53.4318 320.949 52.8125 320.493L53.7249 318.644C53.8158 318.737 53.9761 318.858 54.2114 319.008C54.4453 319.158 54.7224 319.309 55.0415 319.458C55.3605 319.609 55.7142 319.735 56.1026 319.839C56.4924 319.942 56.8908 319.995 57.2994 319.995C58.4355 319.995 59.0043 319.617 59.0043 318.861C59.0043 318.623 58.9394 318.42 58.8094 318.254C58.6809 318.089 58.4962 317.943 58.2565 317.819C58.0183 317.694 57.7281 317.58 57.3889 317.477C57.0496 317.373 56.6699 317.259 56.2527 317.135C55.7431 316.989 55.3028 316.832 54.9275 316.661C54.5536 316.49 54.2417 316.289 53.9934 316.055C53.7437 315.822 53.556 315.552 53.4318 315.246C53.3077 314.94 53.2442 314.576 53.2442 314.15C53.2442 313.59 53.3452 313.092 53.543 312.657C53.7437 312.222 54.0194 311.859 54.3731 311.57C54.7282 311.281 55.1397 311.06 55.6074 310.91C56.0766 310.76 56.5804 310.685 57.1189 310.685C57.8667 310.685 58.5554 310.807 59.1833 311.051C59.8113 311.294 60.3585 311.582 60.8276 311.913L59.9182 313.655Z" fill="white"/>
<path opacity="0.6" d="M111.888 213.885H40.4357V116.115H94.4001L111.888 134.287V213.885Z" fill="white" stroke="#323232" stroke-width="2.2308"/>
<path d="M112.566 135.725H94.4375V116.887L112.566 135.725Z" fill="#323232"/>
<path d="M55.9453 152.126C55.9555 155.279 58.4237 157.827 61.4584 157.818C64.4932 157.808 66.947 155.243 66.9368 152.09C66.9267 148.937 64.4585 146.389 61.4238 146.398C58.389 146.408 55.9352 148.973 55.9453 152.126Z" fill="#323232"/>
<path d="M64.4219 177.486H101.687L83.0537 153.851L64.4219 177.486Z" fill="#323232"/>
<path d="M49.8203 177.487H80.5853L65.2035 162.096L49.8203 177.487Z" fill="#323232"/>
<path d="M101.677 139.666H49.8047V177.486H101.677V139.666Z" stroke="#323232" stroke-width="4.4616" stroke-miterlimit="10"/>
<path d="M73.9272 181.564H21V204.322H73.9272V181.564Z" fill="#323232"/>
<path d="M36.5324 187.766V198.802H34.4832V194.092H29.6666V198.802H27.6016V187.766H29.6666V192.227H34.4832V187.766H36.5324Z" fill="white"/>
<path d="M46.6771 189.647H43.2811V198.803H41.2319V189.647H37.8359V187.765H46.6771V189.647Z" fill="white"/>
<path d="M56.6776 198.802V191.496L53.9391 196.936H52.8192L50.0807 191.496V198.802H48.0156V187.766H50.2295L53.3727 194.045L56.5447 187.766H58.7427V198.802H56.6776Z" fill="white"/>
<path d="M60.9375 198.802V187.766H63.0026V196.921H68.4174V198.802H60.9375Z" fill="white"/>
<path d="M154 77H69V113" stroke="#323232" stroke-width="2" stroke-dasharray="8 8"/>
<path d="M69 97H6V274H37.248" stroke="#323232" stroke-width="2" stroke-dasharray="8 8"/>
<mask id="path-163-inside-1_1880_964" fill="white">
<path fill-rule="evenodd" clip-rule="evenodd" d="M158.709 70.7228C160.995 71.9965 160.995 71.9965 160.104 75.3049C159.253 78.5407 159.152 78.7222 157.319 78.9381C156.27 79.1146 155.188 79.178 154.898 79.0162C154.135 78.5916 153.908 79.9393 154.049 83.8704C154.119 86.0498 154.198 88.0435 154.173 88.1727C154.258 88.3624 155.376 88.3193 156.74 88.1755L159.227 87.8957L160.256 91.5129L161.305 95.0938L159.024 96.2011C157.788 96.7971 156.815 97.3489 156.883 97.4822C159.643 102.348 161.081 104.719 161.48 104.941C161.77 105.103 162.905 104.689 163.866 103.987C165.494 102.944 166.014 102.949 167.03 103.942C167.692 104.549 168.889 105.644 169.695 106.331C170.986 107.43 171.026 107.785 169.954 109.709L168.721 111.923L171.77 113.621C173.476 114.572 175.117 115.724 175.561 116.209C176.145 116.867 176.493 116.585 177.665 114.479C178.959 112.156 179.226 112.019 180.912 112.578C181.921 112.902 183.446 113.323 184.346 113.587C185.762 113.947 186.003 114.367 185.94 116.615L185.845 119.178L190.038 118.993C192.315 118.834 194.51 118.82 194.825 118.853C195.196 118.869 195.375 117.78 195.175 116.432L194.847 113.776L198.444 112.783L202.061 111.754L203.168 114.035C203.764 115.271 204.388 116.284 204.558 116.236C204.655 116.147 205.879 115.402 207.215 114.625C208.572 113.811 210.369 112.719 211.189 112.272C212.748 111.523 212.736 111.374 211.067 109.16C210.137 107.928 209.654 106.661 209.944 106.395C210.308 106.169 211.512 105.032 212.659 103.912C214.623 102.009 214.792 101.961 217.007 103.194L219.257 104.447L221.461 100.491L223.665 96.534L221.414 95.2805C219.2 94.0471 219.152 93.8776 219.756 91.1702C220.085 89.641 220.417 88.019 220.418 87.5912C220.418 87.1634 221.452 86.9304 222.654 87.077C223.82 87.2034 225.011 87.2007 225.354 87.0114C225.661 86.8018 225.885 84.6914 225.9 82.2739L225.909 77.9032L223.286 77.9165L220.622 78.0023L219.693 74.6314L218.745 71.2968L220.719 69.9712C221.866 69.2783 222.739 68.4801 222.691 68.3106C221.56 65.7305 218.534 61.0012 217.993 61.0329C217.622 61.0164 216.572 61.6206 215.627 62.3783C214.702 63.0997 213.7 63.4457 213.438 63.062C213.193 62.7348 212.036 61.5672 210.915 60.4198C208.935 58.5087 208.944 58.3231 210.197 56.0725L211.491 53.7493L207.534 51.5455L203.578 49.3416L202.284 51.6648L200.99 53.988L197.475 53.1246L193.868 52.257L194.089 50.2393C194.267 49.1498 194.172 47.9551 194.035 47.6886C193.62 46.9819 185.585 46.9772 185.201 47.6669C185.059 47.921 184.953 49.0509 184.956 50.2415C184.973 52.3441 184.933 52.4167 181.465 53.434C177.921 54.5037 177.921 54.5037 177.144 52.7392C176.705 51.7338 176.08 50.7201 175.681 50.4977C175.354 50.3157 173.4 51.1773 171.449 52.3738C167.625 54.7144 167.649 54.5853 169.587 57.8523C170.135 58.9184 169.989 59.2653 167.839 61.5876C165.403 64.0831 165.403 64.0831 163.116 62.8093L160.793 61.5153L158.589 65.472L156.385 69.4288L158.709 70.7228ZM163.622 65.6591C165.909 66.0773 169.807 63.7771 171.129 61.232C171.614 60.3608 171.822 58.6216 171.65 57.4793C171.181 54.2219 173.531 52.82 176.06 54.9415C178.047 56.667 180.751 56.5085 184.894 54.5355C186.53 53.7341 187.043 53.0688 187.246 51.8502C187.469 50.5953 187.922 50.0389 188.98 49.6768C190.453 49.1659 190.562 49.2265 191.735 51.3062C193.99 55.3687 198.65 56.8227 202.648 54.7688C205.87 52.9965 207.572 54.0396 207.487 57.6072C207.497 59.8955 207.851 60.7111 209.924 62.6263C212.101 64.6951 212.52 64.8812 214.833 64.7424C216.471 64.7039 217.759 65.0402 218.508 65.7433C219.508 66.6807 219.508 67.1085 218.101 69.4639C216.759 71.6175 216.604 72.5779 217.082 74.3662C217.938 77.6967 219.276 79.3932 221.35 80.0251C222.891 80.503 223.226 80.9271 223.337 82.6061C223.456 84.5273 223.395 84.6362 221.49 85.2395C219.471 85.8749 217.822 88.2381 217.375 91.1757C217.106 93.4516 217.516 95.1067 218.983 96.8276C220.462 98.6978 219.173 100.5 216.404 100.433C213.45 100.357 212.227 100.674 212.044 101.857C211.947 102.373 211.7 102.474 211.459 102.054C211.233 101.69 210.518 102.291 209.625 103.553C208.21 105.666 207.736 107.542 208.42 108.875C208.936 109.828 207.92 112.164 206.931 112.231C206.447 112.247 204.91 111.676 203.454 110.96C201.215 109.856 200.344 109.798 197.324 110.78C194.191 111.794 193.747 112.164 193.002 114.27C192.261 116.283 191.95 116.586 190.412 116.443C189.004 116.324 188.552 116.025 188.009 114.438C187.333 112.492 187.063 112.294 184.441 111.024C181.908 109.851 179.014 110.094 176.974 111.621C174.725 113.27 172.465 112.629 172.573 110.216C172.744 105.127 169.382 101.257 164.624 101.175C161.222 101.135 160.34 99.6451 162.058 96.5596C163.999 93.0748 161.989 86.4377 158.809 85.9984C155.795 85.6036 155.629 82.2295 158.568 80.9655C162.077 79.4478 163.77 74.0175 161.82 70.601C161.107 69.4904 160.588 68.2024 160.548 67.8472C160.396 66.2408 161.701 65.3503 163.622 65.6591Z"/>
</mask>
<path fill-rule="evenodd" clip-rule="evenodd" d="M158.709 70.7228C160.995 71.9965 160.995 71.9965 160.104 75.3049C159.253 78.5407 159.152 78.7222 157.319 78.9381C156.27 79.1146 155.188 79.178 154.898 79.0162C154.135 78.5916 153.908 79.9393 154.049 83.8704C154.119 86.0498 154.198 88.0435 154.173 88.1727C154.258 88.3624 155.376 88.3193 156.74 88.1755L159.227 87.8957L160.256 91.5129L161.305 95.0938L159.024 96.2011C157.788 96.7971 156.815 97.3489 156.883 97.4822C159.643 102.348 161.081 104.719 161.48 104.941C161.77 105.103 162.905 104.689 163.866 103.987C165.494 102.944 166.014 102.949 167.03 103.942C167.692 104.549 168.889 105.644 169.695 106.331C170.986 107.43 171.026 107.785 169.954 109.709L168.721 111.923L171.77 113.621C173.476 114.572 175.117 115.724 175.561 116.209C176.145 116.867 176.493 116.585 177.665 114.479C178.959 112.156 179.226 112.019 180.912 112.578C181.921 112.902 183.446 113.323 184.346 113.587C185.762 113.947 186.003 114.367 185.94 116.615L185.845 119.178L190.038 118.993C192.315 118.834 194.51 118.82 194.825 118.853C195.196 118.869 195.375 117.78 195.175 116.432L194.847 113.776L198.444 112.783L202.061 111.754L203.168 114.035C203.764 115.271 204.388 116.284 204.558 116.236C204.655 116.147 205.879 115.402 207.215 114.625C208.572 113.811 210.369 112.719 211.189 112.272C212.748 111.523 212.736 111.374 211.067 109.16C210.137 107.928 209.654 106.661 209.944 106.395C210.308 106.169 211.512 105.032 212.659 103.912C214.623 102.009 214.792 101.961 217.007 103.194L219.257 104.447L221.461 100.491L223.665 96.534L221.414 95.2805C219.2 94.0471 219.152 93.8776 219.756 91.1702C220.085 89.641 220.417 88.019 220.418 87.5912C220.418 87.1634 221.452 86.9304 222.654 87.077C223.82 87.2034 225.011 87.2007 225.354 87.0114C225.661 86.8018 225.885 84.6914 225.9 82.2739L225.909 77.9032L223.286 77.9165L220.622 78.0023L219.693 74.6314L218.745 71.2968L220.719 69.9712C221.866 69.2783 222.739 68.4801 222.691 68.3106C221.56 65.7305 218.534 61.0012 217.993 61.0329C217.622 61.0164 216.572 61.6206 215.627 62.3783C214.702 63.0997 213.7 63.4457 213.438 63.062C213.193 62.7348 212.036 61.5672 210.915 60.4198C208.935 58.5087 208.944 58.3231 210.197 56.0725L211.491 53.7493L207.534 51.5455L203.578 49.3416L202.284 51.6648L200.99 53.988L197.475 53.1246L193.868 52.257L194.089 50.2393C194.267 49.1498 194.172 47.9551 194.035 47.6886C193.62 46.9819 185.585 46.9772 185.201 47.6669C185.059 47.921 184.953 49.0509 184.956 50.2415C184.973 52.3441 184.933 52.4167 181.465 53.434C177.921 54.5037 177.921 54.5037 177.144 52.7392C176.705 51.7338 176.08 50.7201 175.681 50.4977C175.354 50.3157 173.4 51.1773 171.449 52.3738C167.625 54.7144 167.649 54.5853 169.587 57.8523C170.135 58.9184 169.989 59.2653 167.839 61.5876C165.403 64.0831 165.403 64.0831 163.116 62.8093L160.793 61.5153L158.589 65.472L156.385 69.4288L158.709 70.7228ZM163.622 65.6591C165.909 66.0773 169.807 63.7771 171.129 61.232C171.614 60.3608 171.822 58.6216 171.65 57.4793C171.181 54.2219 173.531 52.82 176.06 54.9415C178.047 56.667 180.751 56.5085 184.894 54.5355C186.53 53.7341 187.043 53.0688 187.246 51.8502C187.469 50.5953 187.922 50.0389 188.98 49.6768C190.453 49.1659 190.562 49.2265 191.735 51.3062C193.99 55.3687 198.65 56.8227 202.648 54.7688C205.87 52.9965 207.572 54.0396 207.487 57.6072C207.497 59.8955 207.851 60.7111 209.924 62.6263C212.101 64.6951 212.52 64.8812 214.833 64.7424C216.471 64.7039 217.759 65.0402 218.508 65.7433C219.508 66.6807 219.508 67.1085 218.101 69.4639C216.759 71.6175 216.604 72.5779 217.082 74.3662C217.938 77.6967 219.276 79.3932 221.35 80.0251C222.891 80.503 223.226 80.9271 223.337 82.6061C223.456 84.5273 223.395 84.6362 221.49 85.2395C219.471 85.8749 217.822 88.2381 217.375 91.1757C217.106 93.4516 217.516 95.1067 218.983 96.8276C220.462 98.6978 219.173 100.5 216.404 100.433C213.45 100.357 212.227 100.674 212.044 101.857C211.947 102.373 211.7 102.474 211.459 102.054C211.233 101.69 210.518 102.291 209.625 103.553C208.21 105.666 207.736 107.542 208.42 108.875C208.936 109.828 207.92 112.164 206.931 112.231C206.447 112.247 204.91 111.676 203.454 110.96C201.215 109.856 200.344 109.798 197.324 110.78C194.191 111.794 193.747 112.164 193.002 114.27C192.261 116.283 191.95 116.586 190.412 116.443C189.004 116.324 188.552 116.025 188.009 114.438C187.333 112.492 187.063 112.294 184.441 111.024C181.908 109.851 179.014 110.094 176.974 111.621C174.725 113.27 172.465 112.629 172.573 110.216C172.744 105.127 169.382 101.257 164.624 101.175C161.222 101.135 160.34 99.6451 162.058 96.5596C163.999 93.0748 161.989 86.4377 158.809 85.9984C155.795 85.6036 155.629 82.2295 158.568 80.9655C162.077 79.4478 163.77 74.0175 161.82 70.601C161.107 69.4904 160.588 68.2024 160.548 67.8472C160.396 66.2408 161.701 65.3503 163.622 65.6591Z" fill="#323232" stroke="#323232" stroke-width="0.295016" mask="url(#path-163-inside-1_1880_964)"/>
<path fill-rule="evenodd" clip-rule="evenodd" d="M164.52 75.4834C163.531 79.3082 163.336 84.9541 164.074 88.4096C164.894 92.1476 168.232 99.0484 169.539 99.7763C170.047 100.059 170.627 100.811 170.752 101.356C171.298 103.277 181.971 108.794 186.188 109.335C193.346 110.231 201.691 107.887 206.89 103.506C209.209 101.563 210.474 99.8896 213.041 95.2795C216.002 89.794 216.176 89.2252 216.33 84.5075C216.51 78.3773 215.816 75.1842 213.459 70.8754C210.761 65.9004 206.395 61.6136 201.667 59.1708C199.481 58.1434 197.597 57.427 197.456 57.6811C197.334 57.8989 196.87 57.8782 196.548 57.6034C196.225 57.3286 195.031 56.9964 193.978 56.8378C192.848 56.7317 191.779 56.5166 191.561 56.3953C191.343 56.274 190.411 56.3254 189.511 56.4899C188.606 56.7472 186.584 57.0477 185.054 57.1469C183.484 57.3187 180.638 58.1591 178.732 59.1902C176.753 60.1808 174.819 61.0061 174.408 61.0621C173.939 61.1343 173.745 61.3116 173.963 61.4329C174.217 61.5745 173.458 62.3404 172.395 63.2231C170.024 65.0891 165.311 72.3565 164.52 75.4834ZM176.589 63.038C184.169 58.2235 192.734 57.6194 200.612 61.5791C209.732 66.0405 214.344 73.984 214.09 84.6867C214.01 88.1614 213.746 89.0611 210.713 94.5061C207.58 100.133 207.167 100.616 203.662 102.897C198.852 106.068 191.65 107.812 186.461 106.966C183.245 106.507 181.655 105.859 177.582 103.353C171.677 99.7786 169.159 96.6159 167.127 90.4429C164.702 82.6713 165.284 77.9541 169.724 70.5815C172.396 66.1249 173.196 65.2863 176.589 63.038Z" fill="#323232"/>
<path fill-rule="evenodd" clip-rule="evenodd" d="M168.986 77.9704C167.692 84.051 169.182 90.6834 172.982 95.9866C175.436 99.3511 176.065 99.8441 180.434 101.992C188.134 105.758 195.298 105.277 202.297 100.567C206.744 97.6216 210.37 91.7938 211.192 86.306C211.944 81.1128 210.486 75.0212 207.371 70.6228C205.417 67.727 204.413 66.8824 200.274 64.5775C196.136 62.2725 194.89 61.8636 191.399 61.7266C183.029 61.2977 175.175 65.5792 171.3 72.791C170.229 74.7149 169.213 77.0505 168.986 77.9704ZM178.744 67.7099C184.887 63.4266 191.623 62.9456 198.303 66.2381C205.35 69.6399 209.193 76.061 208.938 83.8619C208.821 88.172 205.953 94.0894 202.575 97.2498C199.259 100.301 193.251 102.377 188.711 101.989C184.353 101.702 177.75 98.3567 175.288 95.1779C172.015 90.9771 170.419 85.0467 171.159 80.1319C171.688 76.6214 175.941 69.6683 178.744 67.7099Z" fill="#323232"/>
</svg>
