<svg width="515" height="310" viewBox="0 0 515 310" fill="none" xmlns="http://www.w3.org/2000/svg">
<rect x="471" y="217" width="44" height="68" rx="17" fill="#F2F2F2"/>
<path d="M113 32.9581H414.277C417.062 32.9581 419.319 35.2154 419.319 38V253C419.319 255.785 417.062 258.042 414.277 258.042H113C110.215 258.042 107.958 255.785 107.958 253V38C107.958 35.2154 110.215 32.9581 113 32.9581Z" fill="#F2F2F2" stroke="#323232" stroke-width="1.91617"/>
<rect x="226.903" y="259.163" width="73.4714" height="22.3754" fill="#0E0E0E" stroke="#323232" stroke-width="1.91617"/>
<path fill-rule="evenodd" clip-rule="evenodd" d="M437.946 24.6475L442.875 29.3716L463.825 8.21584C463.825 8.21584 465.879 6.57267 466.085 4.51871C466.085 3.69713 465.674 3.08094 465.058 2.46475C464.442 1.64317 463.62 1.43777 462.799 1.43777C460.95 1.43777 459.101 3.49173 459.101 3.49173L437.946 24.6475ZM442.67 31.0148C442.464 31.0148 442.259 30.8094 442.259 30.8094C442.259 30.604 442.054 30.604 442.054 30.604L436.713 25.2637C436.508 25.0583 436.508 24.8529 436.508 24.6475C436.508 24.4421 436.508 24.2367 436.508 24.2367L458.074 2.67015C458.28 2.46475 460.334 0.205396 462.799 0C464.031 0 465.058 0.410792 466.085 1.43777C466.906 2.46475 467.317 3.49173 467.317 4.72411C467.317 7.18886 464.852 9.24282 464.852 9.24282L443.286 30.8094C443.08 31.0148 442.875 31.0148 442.67 31.0148Z" fill="#323232"/>
<path fill-rule="evenodd" clip-rule="evenodd" d="M405.081 65.5212C404.876 66.1374 404.67 66.5482 404.465 66.959C403.849 68.3968 403.438 69.4237 403.438 71.0669C403.438 71.8885 403.643 72.5047 404.054 72.9155C404.259 73.1209 404.465 73.1209 404.876 73.3263C405.081 73.1209 405.081 73.1209 405.286 73.3263C405.492 73.1209 405.903 73.1209 406.108 72.9155C406.519 72.5047 406.724 71.8885 406.724 71.0669C406.724 69.4237 406.108 68.3968 405.492 66.959C405.492 66.5482 405.286 66.1374 405.081 65.5212ZM405.081 74.5586C404.259 74.5586 403.438 74.3532 403.027 73.9425C402.411 73.1209 402 72.2993 402 71.0669C402 69.2183 402.616 67.7806 403.232 66.3428C403.643 65.5212 404.054 64.4942 404.465 63.2619C404.465 63.0565 404.465 63.0565 404.67 63.0565C404.67 62.8511 404.67 62.8511 404.876 62.8511H405.081H405.286C405.286 62.8511 405.492 62.8511 405.492 63.0565C405.492 63.0565 405.697 63.0565 405.697 63.2619C406.108 64.4942 406.519 65.5212 406.93 66.3428C407.546 67.7806 407.956 69.2183 407.956 71.0669C407.956 72.2993 407.751 73.1209 407.135 73.9425C406.519 74.3532 405.903 74.5586 405.081 74.5586Z" fill="#323232"/>
<path fill-rule="evenodd" clip-rule="evenodd" d="M435.894 24.8527C435.484 24.8527 435.278 25.0581 435.073 25.2635C434.867 25.4689 434.662 25.6743 434.662 25.8797C434.662 26.2905 434.867 26.4959 435.073 26.7013L440.413 32.247C440.824 32.6578 441.646 32.6578 442.056 32.247C442.262 32.0416 442.262 31.6308 442.262 31.4254C442.262 31.0146 442.262 30.8092 442.056 30.6038L436.716 25.2635C436.511 25.0581 436.1 24.8527 435.894 24.8527ZM441.235 33.8902C440.619 33.8902 440.002 33.6848 439.386 33.0686L434.046 27.7283C433.635 27.3175 433.43 26.7013 433.43 25.8797C433.43 25.2635 433.635 24.6473 434.046 24.2365C435.073 23.2096 436.716 23.2096 437.538 24.2365L443.083 29.5768C443.494 30.193 443.699 30.8092 443.699 31.4254C443.699 32.0416 443.494 32.6578 443.083 33.0686C442.467 33.6848 441.851 33.8902 441.235 33.8902Z" fill="#323232"/>
<path fill-rule="evenodd" clip-rule="evenodd" d="M487.69 219.174C479.497 219.174 473.124 225.694 473.124 234.078V267.922C473.124 276.306 479.497 283.137 487.69 283.137H498.31C502.255 283.137 505.897 281.584 508.628 278.479C511.359 275.685 512.876 271.959 512.876 267.922V234.078C512.876 230.041 511.359 226.315 508.628 223.521C505.897 220.726 502.255 219.174 498.31 219.174H487.69ZM498.31 285H487.69C478.586 285 471 277.548 471 267.922V234.078C471 224.763 478.586 217 487.69 217H498.31C502.862 217 507.11 218.863 510.145 221.968C513.179 225.073 515 229.42 515 234.078V267.922C515 272.58 513.179 276.927 510.145 280.032C507.11 283.137 502.862 285 498.31 285Z" fill="#323232"/>
<line x1="493" y1="242" x2="493" y2="255" stroke="#323232" stroke-width="2"/>
<path fill-rule="evenodd" clip-rule="evenodd" d="M108.471 53.9131L116.305 62.6821L108.471 53.9131Z" fill="#323232"/>
<path fill-rule="evenodd" clip-rule="evenodd" d="M430.758 88.5254H443.493V75.7908H430.758V88.5254ZM444.109 89.7577H430.142C429.731 89.7577 429.32 89.5523 429.32 89.1415V75.1746C429.32 74.7638 429.731 74.353 430.142 74.353H444.109C444.52 74.353 444.725 74.7638 444.725 75.1746V89.1415C444.725 89.5523 444.52 89.7577 444.109 89.7577Z" fill="#323232"/>
<path fill-rule="evenodd" clip-rule="evenodd" d="M447.602 72.2992H453.969V65.9319H447.602V72.2992ZM454.585 73.737H446.78C446.575 73.737 446.164 73.3262 446.164 72.9154V65.3157C446.164 64.9049 446.575 64.4941 446.78 64.4941H454.585C454.996 64.4941 455.407 64.9049 455.407 65.3157V72.9154C455.407 73.3262 454.996 73.737 454.585 73.737Z" fill="#323232"/>
<path fill-rule="evenodd" clip-rule="evenodd" d="M225.877 249.208V239.905C225.877 239.311 226.273 238.915 226.669 238.915C227.263 238.915 227.659 239.311 227.659 239.905V248.219H231.815C232.211 248.219 232.607 248.615 232.607 249.208C232.607 249.604 232.211 250 231.815 250H226.669C226.273 250 225.877 249.604 225.877 249.208Z" fill="#323232"/>
<path fill-rule="evenodd" clip-rule="evenodd" d="M191.229 249.208V239.905C191.229 239.311 191.624 238.915 192.02 238.915C192.614 238.915 193.01 239.311 193.01 239.905V243.666H196.969V239.905C196.969 239.311 197.365 238.915 197.959 238.915C198.355 238.915 198.751 239.311 198.751 239.905V249.208C198.751 249.604 198.355 250 197.959 250C197.365 250 196.969 249.604 196.969 249.208V245.447H193.01V249.208C193.01 249.604 192.614 250 192.02 250C191.624 250 191.229 249.604 191.229 249.208Z" fill="#323232"/>
<path fill-rule="evenodd" clip-rule="evenodd" d="M209.055 240.697H206.68V249.208C206.68 249.604 206.284 250 205.69 250C205.294 250 204.898 249.604 204.898 249.208V240.697H202.325C201.929 240.697 201.533 240.301 201.533 239.905C201.533 239.311 201.929 238.915 202.325 238.915H209.055C209.649 238.915 210.045 239.311 210.045 239.905C210.045 240.301 209.649 240.697 209.055 240.697Z" fill="#323232"/>
<path fill-rule="evenodd" clip-rule="evenodd" d="M222.111 239.905V249.208C222.111 249.604 221.517 250 221.121 250C220.725 250 220.329 249.604 220.329 249.208V242.478L217.954 245.645C217.756 245.843 217.558 246.041 217.36 246.041C216.964 246.041 216.766 245.843 216.568 245.645L214.193 242.478V249.208C214.193 249.604 213.995 250 213.401 250C213.005 250 212.609 249.604 212.609 249.208V239.905C212.609 239.311 213.005 238.915 213.401 238.915C213.797 238.915 213.995 239.113 214.193 239.311L217.36 243.666L220.329 239.311C220.527 239.113 220.923 238.915 221.121 238.915C221.517 238.915 222.111 239.311 222.111 239.905Z" fill="#323232"/>
<path fill-rule="evenodd" clip-rule="evenodd" d="M156 202.689C156.198 196.751 161.147 192 167.085 192C169.659 192 172.034 192.792 174.014 194.177C174.607 194.771 174.805 195.959 174.212 196.751C173.618 197.345 172.43 197.543 171.836 196.949C170.45 195.959 168.867 195.365 167.085 195.365C164.908 195.365 163.126 196.157 161.741 197.543C160.355 198.928 159.563 200.71 159.563 202.689C159.563 204.669 160.355 206.648 161.741 207.836C163.126 209.222 164.908 210.014 167.085 210.014C168.867 210.014 170.45 209.42 171.836 208.43C172.43 207.836 173.618 208.034 174.212 208.628C174.805 209.42 174.607 210.607 174.014 211.003C172.034 212.587 169.659 213.379 167.085 213.379C161.147 213.379 156.198 208.628 156 202.689Z" fill="#323232"/>
<path fill-rule="evenodd" clip-rule="evenodd" d="M197.967 194.178V211.795C197.967 212.587 197.175 213.379 196.185 213.379C195.393 213.379 194.602 212.587 194.602 211.795V199.127L190.445 205.263C190.049 205.659 189.455 205.857 189.059 205.857H188.861C188.465 205.857 187.871 205.659 187.673 205.263L183.318 199.127V211.795C183.318 212.587 182.526 213.379 181.735 213.379C180.745 213.379 179.953 212.587 179.953 211.795V194.178C179.953 193.188 180.745 192.594 181.735 192.594C182.131 192.594 182.724 192.792 183.12 193.188L189.059 201.502L194.997 193.188C195.195 192.792 195.789 192.594 196.185 192.594C197.175 192.594 197.967 193.188 197.967 194.178Z" fill="#323232"/>
<path fill-rule="evenodd" clip-rule="evenodd" d="M204.497 208.232C205.09 207.638 206.08 207.44 206.674 208.034C208.06 209.024 210.237 210.409 212.415 210.409C213.8 210.409 215.186 209.816 216.176 209.222C216.968 208.628 217.363 207.836 217.363 207.044C217.363 206.648 217.363 206.45 217.165 206.055C216.968 205.857 216.77 205.461 216.176 205.263C215.384 204.669 213.998 204.075 212.217 203.877H212.019C210.633 203.481 209.445 203.283 208.258 202.689C207.07 202.096 206.08 201.304 205.486 200.314C205.09 199.522 204.695 198.73 204.695 197.939C204.695 196.157 205.882 194.573 207.07 193.584C208.654 192.594 210.435 192 212.415 192C215.186 192 217.363 193.386 218.749 194.375C219.541 194.771 219.739 195.761 219.145 196.355C218.749 197.147 217.759 197.345 217.165 196.949C215.582 195.959 214.196 194.969 212.415 194.969C211.029 194.969 209.841 195.365 209.049 195.959C208.258 196.553 207.862 197.345 207.862 197.939C207.862 198.136 207.862 198.532 208.06 198.73C208.258 198.928 208.456 199.126 208.852 199.522C209.643 200.116 211.029 200.512 212.613 200.71C214.196 201.106 215.582 201.502 216.77 202.096C217.957 202.689 219.145 203.481 219.739 204.471C220.135 205.263 220.531 206.055 220.531 207.044C220.531 209.024 219.343 210.607 217.957 211.597C216.374 212.785 214.592 213.379 212.415 213.379C209.247 213.379 206.476 211.795 204.695 210.409C204.101 209.816 204.101 208.826 204.497 208.232Z" fill="#323232"/>
<path fill-rule="evenodd" clip-rule="evenodd" d="M224.095 219.713C224.293 220.505 225.085 220.901 225.877 220.901C226.669 220.901 227.461 220.307 227.461 219.317V214.368C227.461 213.973 227.857 213.577 228.252 213.577C228.648 213.577 228.846 213.973 228.846 214.368V219.317C228.846 220.901 227.461 222.287 225.877 222.287C224.491 222.287 223.304 221.495 222.908 220.307C222.71 219.911 222.908 219.515 223.304 219.317C223.7 219.317 224.095 219.515 224.095 219.713Z" fill="#323232"/>
<path fill-rule="evenodd" clip-rule="evenodd" d="M234.58 218.921L233.59 216.348L232.601 218.921H234.58ZM234.976 220.307H232.007L231.413 221.891C231.215 222.287 231.017 222.287 230.819 222.287C230.621 222.287 230.621 222.287 230.423 222.287C230.225 222.287 230.027 221.891 230.027 221.495L232.799 214.171C232.997 213.775 233.195 213.577 233.59 213.577C233.788 213.577 233.986 213.775 234.184 214.171L236.956 221.495C237.154 221.891 236.956 222.287 236.56 222.287H236.362C235.966 222.287 235.768 222.287 235.57 221.891L234.976 220.307Z" fill="#323232"/>
<path fill-rule="evenodd" clip-rule="evenodd" d="M240.323 222.287C240.323 222.089 240.323 222.089 240.323 222.089C240.323 222.089 240.323 222.089 240.125 222.089C240.125 222.089 240.125 222.089 240.125 221.891L237.156 214.765C236.958 214.369 237.156 213.973 237.552 213.775C237.75 213.577 238.146 213.775 238.343 214.171L240.719 219.911L243.292 214.171C243.292 213.775 243.688 213.577 244.084 213.775C244.48 213.973 244.678 214.369 244.48 214.765L241.313 221.891C241.313 222.089 241.313 222.089 241.313 222.089C241.313 222.089 241.313 222.089 241.313 222.287H241.115C240.917 222.287 240.917 222.287 240.917 222.287H240.719C240.521 222.287 240.521 222.287 240.521 222.287C240.521 222.287 240.521 222.287 240.323 222.287Z" fill="#323232"/>
<path fill-rule="evenodd" clip-rule="evenodd" d="M249.229 218.921L248.239 216.348L247.051 218.921H249.229ZM249.625 220.307H246.655L246.061 221.891C245.863 222.287 245.666 222.287 245.468 222.287C245.27 222.287 245.27 222.287 245.072 222.287C244.874 222.287 244.676 221.891 244.676 221.495L247.447 214.171C247.645 213.775 247.843 213.577 248.239 213.577C248.437 213.577 248.635 213.775 248.833 214.171L251.604 221.495C251.604 221.891 251.604 222.287 251.208 222.287C251.01 222.287 251.01 222.287 251.01 222.287C250.614 222.287 250.416 222.287 250.218 221.891L249.625 220.307Z" fill="#323232"/>
<path fill-rule="evenodd" clip-rule="evenodd" d="M222.115 231.392C222.313 231.194 222.511 231.194 222.709 231.194C223.105 231.59 223.699 231.986 224.293 231.986C224.887 231.986 225.282 231.788 225.48 231.59C225.678 231.392 225.876 231.194 225.876 230.997C225.876 230.799 225.876 230.799 225.678 230.799C225.678 230.601 225.678 230.601 225.48 230.403C225.282 230.205 224.887 230.205 224.293 230.007C223.897 230.007 223.501 229.809 223.105 229.809C222.907 229.611 222.511 229.413 222.313 229.017C222.313 228.819 222.115 228.621 222.115 228.225C222.115 227.829 222.511 227.433 222.907 227.038C223.303 226.84 223.699 226.642 224.293 226.642C225.282 226.642 225.876 227.038 226.272 227.235C226.47 227.433 226.47 227.631 226.47 227.829C226.272 228.027 226.074 228.225 225.678 228.027C225.282 227.631 224.887 227.433 224.293 227.433C223.897 227.433 223.699 227.631 223.303 227.829C223.105 228.027 223.105 228.225 223.105 228.225C223.105 228.423 223.105 228.423 223.105 228.621C223.105 228.621 223.303 228.621 223.303 228.819C223.501 229.017 223.897 229.017 224.491 229.215C224.887 229.215 225.282 229.413 225.678 229.611C226.074 229.809 226.272 230.007 226.47 230.205C226.668 230.403 226.668 230.799 226.668 230.997C226.668 231.59 226.47 231.986 226.074 232.382C225.48 232.58 225.085 232.778 224.293 232.778C223.501 232.778 222.709 232.382 222.115 231.986C221.917 231.788 221.917 231.59 222.115 231.392Z" fill="#323232"/>
<path fill-rule="evenodd" clip-rule="evenodd" d="M227.857 229.809C227.857 228.027 229.243 226.642 231.025 226.642C231.816 226.642 232.41 226.84 233.004 227.235C233.202 227.433 233.202 227.829 233.202 228.027C233.004 228.225 232.608 228.225 232.41 228.027C232.014 227.829 231.618 227.631 231.025 227.631C230.431 227.631 229.837 227.829 229.441 228.225C229.045 228.621 228.847 229.215 228.847 229.809C228.847 230.403 229.045 230.799 229.441 231.194C229.837 231.59 230.431 231.788 231.025 231.788C231.618 231.788 232.014 231.788 232.41 231.392C232.608 231.194 233.004 231.194 233.202 231.392C233.202 231.788 233.202 231.986 233.004 232.184C232.41 232.58 231.816 232.778 231.025 232.778C229.243 232.778 227.857 231.392 227.857 229.809Z" fill="#323232"/>
<path fill-rule="evenodd" clip-rule="evenodd" d="M237.751 228.621C237.751 228.028 237.355 227.632 236.761 227.632H235.771V229.611H236.761C237.355 229.611 237.751 229.215 237.751 228.621ZM238.938 232.185C238.938 232.382 238.74 232.58 238.542 232.778C238.542 232.778 238.542 232.778 238.344 232.778C238.344 232.778 238.146 232.778 237.948 232.778C237.948 232.58 237.751 232.58 237.751 232.382C237.553 232.185 237.553 231.789 237.553 231.393C237.553 231.195 237.553 230.997 237.553 230.997C237.355 230.799 237.355 230.799 237.157 230.799C236.959 230.601 236.761 230.601 236.761 230.403H235.771V232.382C235.771 232.58 235.375 232.778 235.177 232.778C234.979 232.778 234.781 232.58 234.781 232.382V227.236C234.781 227.038 234.979 226.84 235.177 226.84H236.761C237.751 226.84 238.542 227.632 238.542 228.621C238.542 229.215 238.344 229.809 237.948 230.007C238.146 230.205 238.146 230.205 238.344 230.403C238.344 230.601 238.542 230.997 238.542 231.393C238.542 231.591 238.542 231.789 238.542 231.789C238.74 231.987 238.74 231.987 238.938 232.185Z" fill="#323232"/>
<path fill-rule="evenodd" clip-rule="evenodd" d="M240.324 227.236C240.324 227.038 240.522 226.84 240.918 226.84C241.116 226.84 241.314 227.038 241.314 227.236V232.382C241.314 232.58 241.116 232.778 240.918 232.778C240.522 232.778 240.324 232.58 240.324 232.382V227.236Z" fill="#323232"/>
<path fill-rule="evenodd" clip-rule="evenodd" d="M243.884 229.611H245.072C245.468 229.611 245.864 229.215 245.864 228.621C245.864 228.028 245.468 227.632 245.072 227.632H243.884V229.611ZM245.072 230.403H243.884V232.382C243.884 232.58 243.686 232.778 243.488 232.778C243.092 232.778 242.895 232.58 242.895 232.382V227.236C242.895 227.038 243.092 226.84 243.488 226.84H245.072C246.062 226.84 246.854 227.632 246.854 228.621C246.854 229.611 246.062 230.403 245.072 230.403Z" fill="#323232"/>
<path fill-rule="evenodd" clip-rule="evenodd" d="M251.803 227.632H250.418V232.382C250.418 232.58 250.22 232.778 250.022 232.778C249.626 232.778 249.428 232.58 249.428 232.382V227.632H248.042C247.844 227.632 247.646 227.434 247.646 227.236C247.646 227.038 247.844 226.84 248.042 226.84H251.803C252.001 226.84 252.199 227.038 252.199 227.236C252.199 227.434 252.001 227.632 251.803 227.632Z" fill="#323232"/>
<path fill-rule="evenodd" clip-rule="evenodd" d="M345.302 155C345.659 155 346.016 155 346.016 155.357L368.516 177.143L376.73 168.929L354.23 147.143C353.516 146.429 353.516 145.714 354.23 145.357L365.302 133.929L321.016 122.857L333.516 166.786L344.587 155.357C344.587 155 344.944 155 345.302 155ZM368.516 180C368.516 180 368.159 180 367.802 179.643L345.302 157.857L333.516 170C333.516 170.357 332.802 170.357 332.444 170.357C332.087 170 331.73 169.643 331.73 169.286L318.159 121.429C317.802 121.071 318.159 120.714 318.159 120.357C318.516 120 318.873 120 319.587 120L367.802 132.143C368.159 132.143 368.516 132.5 368.516 132.857C368.873 133.214 368.516 133.929 368.159 134.286L356.73 146.071L379.23 167.857C379.23 168.214 379.587 168.571 379.587 168.929C379.587 169.286 379.23 169.286 379.23 169.643L369.587 179.643C369.23 180 368.873 180 368.516 180Z" fill="#323232"/>
<path d="M323.935 223.036C324.366 222.96 324.845 222.902 325.372 222.864C325.9 222.816 326.427 222.792 326.954 222.792C327.491 222.792 328.032 222.835 328.579 222.921C329.125 222.998 329.614 223.161 330.045 223.41C330.486 223.65 330.845 223.99 331.123 224.431C331.401 224.862 331.54 225.437 331.54 226.156C331.54 226.789 331.421 227.33 331.181 227.781C330.941 228.222 330.62 228.581 330.218 228.859C329.825 229.137 329.374 229.343 328.866 229.477C328.358 229.602 327.836 229.664 327.299 229.664C327.251 229.664 327.17 229.664 327.055 229.664C326.939 229.664 326.815 229.664 326.681 229.664C326.556 229.655 326.436 229.645 326.321 229.636C326.206 229.626 326.12 229.616 326.062 229.607V233H323.935V223.036ZM327.098 224.661C326.896 224.661 326.7 224.666 326.508 224.675C326.326 224.685 326.177 224.704 326.062 224.733V227.723C326.101 227.733 326.163 227.743 326.249 227.752C326.336 227.762 326.427 227.771 326.523 227.781C326.618 227.781 326.705 227.786 326.781 227.795C326.868 227.795 326.935 227.795 326.983 227.795C327.261 227.795 327.539 227.776 327.817 227.738C328.095 227.699 328.339 227.618 328.55 227.493C328.77 227.369 328.948 227.201 329.082 226.99C329.216 226.77 329.283 226.477 329.283 226.113C329.283 225.806 329.221 225.562 329.096 225.38C328.972 225.188 328.804 225.04 328.593 224.934C328.392 224.829 328.157 224.757 327.888 224.718C327.63 224.68 327.366 224.661 327.098 224.661ZM338.3 229.636L338.616 230.843H338.76L339.033 229.636L340.312 225.452H342.368L339.867 232.281C339.656 232.847 339.455 233.355 339.263 233.805C339.081 234.256 338.879 234.639 338.659 234.955C338.439 235.272 338.189 235.511 337.911 235.674C337.643 235.847 337.322 235.933 336.948 235.933C336.699 235.933 336.459 235.909 336.229 235.861C336.009 235.823 335.817 235.761 335.654 235.674L336.071 234.121C336.215 234.169 336.363 234.193 336.517 234.193C336.651 234.193 336.78 234.179 336.905 234.15C337.03 234.121 337.145 234.064 337.25 233.978C337.355 233.901 337.451 233.786 337.538 233.633C337.633 233.489 337.715 233.292 337.782 233.043L334.331 225.452H336.761L338.3 229.636ZM344.705 225.452H345.855V224.417L347.868 223.885V225.452H349.895V227.134H347.868V229.751C347.868 230.354 347.925 230.791 348.04 231.059C348.165 231.318 348.404 231.447 348.759 231.447C348.98 231.447 349.167 231.433 349.32 231.404C349.473 231.366 349.636 231.308 349.809 231.232L350.226 232.741C349.919 232.875 349.564 232.99 349.162 233.086C348.769 233.182 348.385 233.23 348.012 233.23C347.264 233.23 346.718 233.048 346.372 232.684C346.027 232.31 345.855 231.716 345.855 230.901V227.134H344.705V225.452ZM359.115 233V228.845C359.115 228.193 359.015 227.728 358.813 227.45C358.622 227.163 358.262 227.019 357.735 227.019C357.352 227.019 356.997 227.143 356.671 227.393C356.355 227.632 356.144 227.953 356.039 228.356V233H354.026V222.936H356.039V226.372H356.211C356.47 226.036 356.791 225.763 357.174 225.552C357.567 225.341 358.061 225.236 358.655 225.236C359.067 225.236 359.427 225.289 359.734 225.394C360.04 225.49 360.294 225.663 360.496 225.912C360.707 226.151 360.865 226.477 360.97 226.889C361.076 227.292 361.128 227.795 361.128 228.399V233H359.115ZM365.351 229.233C365.351 227.987 365.682 227.009 366.343 226.3C367.004 225.591 367.948 225.236 369.175 225.236C369.818 225.236 370.378 225.337 370.858 225.538C371.337 225.739 371.735 226.022 372.051 226.386C372.367 226.741 372.602 227.163 372.755 227.651C372.918 228.131 373 228.658 373 229.233C373 229.846 372.914 230.402 372.741 230.901C372.569 231.39 372.319 231.807 371.993 232.152C371.668 232.497 371.265 232.76 370.786 232.942C370.316 233.125 369.779 233.216 369.175 233.216C368.524 233.216 367.958 233.115 367.479 232.914C367 232.712 366.602 232.434 366.285 232.08C365.969 231.716 365.734 231.294 365.581 230.815C365.428 230.326 365.351 229.799 365.351 229.233ZM367.421 229.233C367.421 229.549 367.455 229.846 367.522 230.124C367.589 230.402 367.69 230.647 367.824 230.858C367.968 231.059 368.15 231.222 368.37 231.347C368.591 231.471 368.859 231.533 369.175 231.533C370.345 231.533 370.929 230.767 370.929 229.233C370.929 228.898 370.896 228.591 370.829 228.313C370.771 228.025 370.671 227.781 370.527 227.58C370.393 227.369 370.211 227.206 369.981 227.091C369.76 226.976 369.492 226.918 369.175 226.918C368.629 226.918 368.198 227.1 367.881 227.465C367.575 227.829 367.421 228.418 367.421 229.233ZM382.32 233V228.859C382.32 228.207 382.219 227.738 382.018 227.45C381.816 227.163 381.462 227.019 380.954 227.019C380.522 227.019 380.153 227.139 379.847 227.378C379.55 227.608 379.343 227.905 379.228 228.27C379.228 229.056 379.228 229.846 379.228 230.642C379.238 231.428 379.243 232.214 379.243 233H377.23V225.452H378.812L379.027 226.53H379.243C379.492 226.175 379.823 225.873 380.235 225.624C380.647 225.365 381.184 225.236 381.845 225.236C382.248 225.236 382.602 225.289 382.909 225.394C383.225 225.49 383.484 225.663 383.686 225.912C383.896 226.151 384.055 226.477 384.16 226.889C384.275 227.302 384.333 227.819 384.333 228.442V233H382.32Z" fill="#373435"/>
<path d="M300.325 211.569C300.008 211.789 299.591 211.947 299.074 212.043C298.556 212.149 298.024 212.201 297.478 212.201C296.836 212.201 296.217 212.105 295.623 211.914C295.038 211.722 294.516 211.415 294.056 210.994C293.606 210.572 293.246 210.03 292.978 209.369C292.709 208.708 292.575 207.907 292.575 206.968C292.575 205.99 292.728 205.171 293.035 204.509C293.342 203.838 293.735 203.301 294.214 202.899C294.693 202.487 295.225 202.19 295.81 202.007C296.395 201.825 296.97 201.734 297.535 201.734C298.158 201.734 298.681 201.773 299.103 201.849C299.534 201.926 299.889 202.017 300.167 202.123L299.75 203.905C299.51 203.8 299.227 203.723 298.901 203.675C298.585 203.627 298.182 203.603 297.694 203.603C297.262 203.603 296.869 203.675 296.515 203.819C296.17 203.953 295.872 204.159 295.623 204.437C295.374 204.715 295.177 205.065 295.034 205.487C294.9 205.909 294.832 206.402 294.832 206.968C294.832 207.466 294.895 207.922 295.019 208.334C295.144 208.746 295.331 209.1 295.58 209.398C295.829 209.695 296.146 209.925 296.529 210.088C296.912 210.251 297.358 210.332 297.866 210.332C298.336 210.332 298.729 210.289 299.045 210.203C299.371 210.117 299.659 210.006 299.908 209.872L300.325 211.569ZM308.972 209.239C308.972 208.942 308.847 208.708 308.598 208.535C308.349 208.362 308.037 208.204 307.663 208.061C307.299 207.917 306.901 207.773 306.47 207.629C306.039 207.485 305.636 207.294 305.262 207.054C304.898 206.814 304.591 206.513 304.342 206.148C304.093 205.784 303.968 205.31 303.968 204.725C303.968 204.226 304.055 203.79 304.227 203.417C304.409 203.033 304.658 202.722 304.975 202.482C305.301 202.233 305.689 202.046 306.139 201.921C306.599 201.797 307.103 201.734 307.649 201.734C308.282 201.734 308.881 201.792 309.446 201.907C310.021 202.012 310.491 202.166 310.855 202.367L310.18 204.15C310.064 204.083 309.916 204.016 309.734 203.948C309.561 203.872 309.36 203.809 309.13 203.762C308.9 203.704 308.655 203.661 308.397 203.632C308.138 203.594 307.874 203.575 307.606 203.575C307.127 203.575 306.753 203.661 306.484 203.833C306.226 203.996 306.096 204.226 306.096 204.524C306.096 204.821 306.221 205.06 306.47 205.242C306.719 205.415 307.026 205.578 307.39 205.731C307.764 205.875 308.167 206.024 308.598 206.177C309.029 206.321 309.427 206.513 309.791 206.752C310.165 206.982 310.477 207.275 310.726 207.629C310.975 207.984 311.1 208.439 311.1 208.995C311.1 209.551 311.004 210.03 310.812 210.433C310.62 210.835 310.347 211.171 309.993 211.439C309.648 211.698 309.231 211.89 308.742 212.014C308.253 212.139 307.716 212.201 307.131 212.201C306.738 212.201 306.365 212.177 306.01 212.129C305.665 212.091 305.344 212.043 305.047 211.986C304.75 211.919 304.486 211.851 304.256 211.784C304.035 211.708 303.858 211.636 303.724 211.569L304.428 209.771C304.534 209.829 304.678 209.891 304.86 209.958C305.051 210.025 305.262 210.093 305.492 210.16C305.722 210.217 305.967 210.265 306.226 210.303C306.494 210.342 306.762 210.361 307.031 210.361C307.663 210.361 308.143 210.27 308.469 210.088C308.804 209.906 308.972 209.623 308.972 209.239ZM319.83 209.239C319.83 208.942 319.705 208.708 319.456 208.535C319.207 208.362 318.895 208.204 318.521 208.061C318.157 207.917 317.759 207.773 317.328 207.629C316.897 207.485 316.494 207.294 316.12 207.054C315.756 206.814 315.449 206.513 315.2 206.148C314.951 205.784 314.826 205.31 314.826 204.725C314.826 204.226 314.913 203.79 315.085 203.417C315.267 203.033 315.516 202.722 315.833 202.482C316.159 202.233 316.547 202.046 316.997 201.921C317.457 201.797 317.961 201.734 318.507 201.734C319.14 201.734 319.739 201.792 320.304 201.907C320.879 202.012 321.349 202.166 321.713 202.367L321.037 204.15C320.922 204.083 320.774 204.016 320.592 203.948C320.419 203.872 320.218 203.809 319.988 203.762C319.758 203.704 319.513 203.661 319.255 203.632C318.996 203.594 318.732 203.575 318.464 203.575C317.985 203.575 317.611 203.661 317.342 203.833C317.084 203.996 316.954 204.226 316.954 204.524C316.954 204.821 317.079 205.06 317.328 205.242C317.577 205.415 317.884 205.578 318.248 205.731C318.622 205.875 319.025 206.024 319.456 206.177C319.887 206.321 320.285 206.513 320.649 206.752C321.023 206.982 321.335 207.275 321.584 207.629C321.833 207.984 321.958 208.439 321.958 208.995C321.958 209.551 321.862 210.03 321.67 210.433C321.478 210.835 321.205 211.171 320.851 211.439C320.506 211.698 320.089 211.89 319.6 212.014C319.111 212.139 318.574 212.201 317.989 212.201C317.596 212.201 317.223 212.177 316.868 212.129C316.523 212.091 316.202 212.043 315.905 211.986C315.608 211.919 315.344 211.851 315.114 211.784C314.893 211.708 314.716 211.636 314.582 211.569L315.286 209.771C315.392 209.829 315.536 209.891 315.718 209.958C315.909 210.025 316.12 210.093 316.35 210.16C316.58 210.217 316.825 210.265 317.084 210.303C317.352 210.342 317.62 210.361 317.889 210.361C318.521 210.361 319.001 210.27 319.327 210.088C319.662 209.906 319.83 209.623 319.83 209.239Z" fill="#373435"/>
<path d="M422 129H493V218.5" stroke="#323232" stroke-width="2" stroke-dasharray="8 8"/>
<rect x="359" y="157" width="5" height="10" fill="#F2F2F2"/>
<rect x="359" y="157" width="5" height="10" fill="#F2F2F2"/>
<rect x="358" y="156" width="5" height="10" fill="#F2F2F2"/>
<path fill-rule="evenodd" clip-rule="evenodd" d="M7.80505 184.438C4.10792 184.438 1.23238 187.313 1.23238 190.805V302.13C1.23238 305.827 4.10792 308.702 7.80505 308.702H55.4569C58.9486 308.702 61.8242 305.827 61.8242 302.13V190.805C61.8242 187.313 58.9486 184.438 55.4569 184.438H7.80505ZM55.4569 309.935H7.80505C3.49173 309.935 0 306.443 0 302.13V190.805C0 186.492 3.49173 183 7.80505 183H55.4569C59.7702 183 63.262 186.492 63.262 190.805V302.13C63.262 306.443 59.7702 309.935 55.4569 309.935Z" fill="#323232"/>
<path d="M9.5625 247.003C9.70096 246.98 9.85096 246.96 10.0125 246.942C10.1798 246.919 10.3471 246.902 10.5144 246.89C10.6817 246.879 10.8433 246.87 10.999 246.864C11.1606 246.859 11.3077 246.856 11.4404 246.856C11.7462 246.856 12.0462 246.882 12.3404 246.934C12.6404 246.986 12.9058 247.075 13.1365 247.202C13.3731 247.329 13.5635 247.505 13.7077 247.73C13.8519 247.949 13.924 248.226 13.924 248.561C13.924 249.057 13.8 249.466 13.5519 249.789C13.3096 250.107 12.9721 250.323 12.5394 250.438L12.9981 250.707L14.5125 253H13.024L11.5183 250.655L10.8433 250.551V253H9.5625V247.003ZM11.5269 247.981C11.3942 247.981 11.2644 247.984 11.1375 247.989C11.0163 247.989 10.9183 247.998 10.8433 248.015V249.686H11.3885C11.7519 249.686 12.0375 249.616 12.2452 249.478C12.4587 249.339 12.5654 249.1 12.5654 248.76C12.5654 248.506 12.476 248.312 12.2971 248.18C12.1183 248.047 11.8615 247.981 11.5269 247.981ZM20.2637 252.585C20.0676 252.735 19.7993 252.864 19.4589 252.974C19.1243 253.078 18.7637 253.13 18.3772 253.13C17.5983 253.13 17.0272 252.916 16.6637 252.489C16.3003 252.063 16.1185 251.477 16.1185 250.733C16.1185 249.942 16.3233 249.345 16.733 248.941C17.1426 248.532 17.7195 248.327 18.4637 248.327C18.706 248.327 18.9455 248.359 19.182 248.422C19.4185 248.48 19.6291 248.581 19.8137 248.725C19.9983 248.863 20.1455 249.054 20.2551 249.296C20.3705 249.533 20.4281 249.827 20.4281 250.179C20.4281 250.3 20.4195 250.433 20.4022 250.577C20.3906 250.721 20.3676 250.871 20.333 251.027H17.3041C17.333 251.419 17.4455 251.711 17.6416 251.901C17.8435 252.086 18.1695 252.178 18.6195 252.178C18.8906 252.178 19.133 252.14 19.3464 252.065C19.5656 251.985 19.733 251.904 19.8483 251.823L20.2637 252.585ZM18.4464 249.279C18.0887 249.279 17.8233 249.377 17.6503 249.573C17.4772 249.763 17.3762 250.009 17.3474 250.309H19.3031C19.3262 249.991 19.2685 249.74 19.1301 249.556C18.9916 249.371 18.7637 249.279 18.4464 249.279ZM23.0308 248.768C23.2904 248.653 23.6077 248.558 23.9827 248.483C24.3635 248.408 24.7558 248.37 25.1596 248.37C25.4769 248.37 25.7423 248.408 25.9558 248.483C26.175 248.558 26.3481 248.667 26.475 248.812C26.6019 248.95 26.6914 249.12 26.7433 249.322C26.801 249.518 26.8298 249.737 26.8298 249.98C26.8298 250.274 26.8183 250.565 26.7952 250.854C26.7721 251.142 26.7606 251.448 26.7606 251.771C26.7606 251.99 26.775 252.204 26.8039 252.412C26.8327 252.619 26.8789 252.818 26.9423 253.009H25.9558L25.7568 252.334H25.6529C25.5029 252.536 25.3125 252.709 25.0818 252.853C24.851 252.997 24.5539 253.069 24.1904 253.069C23.9712 253.069 23.7693 253.038 23.5846 252.974C23.4058 252.911 23.25 252.821 23.1173 252.706C22.9904 252.585 22.8894 252.443 22.8144 252.282C22.7452 252.12 22.7106 251.944 22.7106 251.754C22.7106 251.24 22.8808 250.854 23.2212 250.594C23.5673 250.329 24.0894 250.196 24.7875 250.196C24.9491 250.196 25.1106 250.211 25.2721 250.239C25.4337 250.262 25.5462 250.28 25.6096 250.291C25.6269 250.17 25.6356 250.066 25.6356 249.98C25.6356 249.761 25.5808 249.599 25.4712 249.495C25.3616 249.391 25.1568 249.339 24.8568 249.339C24.5798 249.339 24.3087 249.374 24.0433 249.443C23.7837 249.507 23.5529 249.588 23.351 249.686L23.0308 248.768ZM24.6144 252.1C24.8856 252.1 25.1019 252.037 25.2635 251.91C25.425 251.783 25.5433 251.65 25.6183 251.512V250.992C25.5894 250.981 25.5433 250.969 25.4798 250.958C25.4221 250.946 25.3558 250.935 25.2808 250.923C25.2116 250.912 25.1394 250.903 25.0644 250.897C24.9952 250.891 24.9318 250.888 24.8741 250.888C24.5625 250.888 24.3318 250.946 24.1818 251.062C24.0318 251.171 23.9568 251.31 23.9568 251.477C23.9568 251.685 24.0144 251.84 24.1298 251.944C24.251 252.048 24.4125 252.1 24.6144 252.1ZM33.0701 252.723C32.874 252.856 32.6374 252.957 32.3605 253.026C32.0894 253.095 31.8067 253.13 31.5124 253.13C31.1201 253.13 30.7884 253.072 30.5172 252.957C30.2519 252.841 30.0326 252.677 29.8596 252.463C29.6922 252.25 29.5711 251.999 29.4961 251.711C29.4211 251.416 29.3836 251.09 29.3836 250.733C29.3836 249.977 29.5682 249.388 29.9374 248.967C30.3124 248.54 30.8547 248.327 31.5644 248.327C31.9105 248.327 32.1932 248.356 32.4124 248.413C32.6374 248.465 32.8365 248.535 33.0096 248.621L32.7153 249.59C32.5653 249.527 32.4153 249.481 32.2653 249.452C32.1211 249.417 31.9509 249.4 31.7547 249.4C31.3913 249.4 31.1115 249.507 30.9153 249.72C30.7249 249.928 30.6297 250.265 30.6297 250.733C30.6297 250.917 30.6528 251.09 30.699 251.252C30.7451 251.408 30.8172 251.546 30.9153 251.667C31.0134 251.788 31.1374 251.884 31.2874 251.953C31.4374 252.022 31.6134 252.057 31.8153 252.057C32.0576 252.057 32.248 252.037 32.3865 251.996C32.5307 251.95 32.6663 251.889 32.7932 251.814L33.0701 252.723ZM34.974 248.457H35.6663V247.834L36.8778 247.513V248.457H38.098V249.469H36.8778V251.044C36.8778 251.408 36.9124 251.67 36.9817 251.832C37.0567 251.988 37.2009 252.065 37.4144 252.065C37.5471 252.065 37.6596 252.057 37.7519 252.039C37.8442 252.016 37.9422 251.982 38.0461 251.936L38.2971 252.844C38.1124 252.925 37.899 252.994 37.6567 253.052C37.4201 253.11 37.1894 253.138 36.9644 253.138C36.5144 253.138 36.1855 253.029 35.9778 252.81C35.7701 252.585 35.6663 252.227 35.6663 251.737V249.469H34.974V248.457ZM45.148 246.942H46.4288V251.356C46.4288 251.569 46.3999 251.78 46.3422 251.987C46.2845 252.195 46.1922 252.383 46.0653 252.55C45.9441 252.717 45.7826 252.853 45.5807 252.957C45.3788 253.061 45.1336 253.112 44.8451 253.112C44.6605 253.112 44.4615 253.092 44.248 253.052C44.0403 253.017 43.8557 252.965 43.6941 252.896L43.9711 251.875C44.1384 251.95 44.323 251.987 44.5249 251.987C44.6576 251.987 44.7643 251.964 44.8451 251.918C44.9259 251.866 44.9893 251.797 45.0355 251.711C45.0816 251.618 45.1105 251.512 45.122 251.39C45.1393 251.269 45.148 251.139 45.148 251.001V246.942ZM52.0045 251.338C52.0045 251.16 51.9295 251.018 51.7795 250.914C51.6295 250.811 51.442 250.715 51.217 250.629C50.9977 250.542 50.7583 250.456 50.4987 250.369C50.2391 250.283 49.9968 250.167 49.7718 250.023C49.5526 249.879 49.3679 249.697 49.2179 249.478C49.0679 249.259 48.9929 248.973 48.9929 248.621C48.9929 248.321 49.0449 248.059 49.1487 247.834C49.2583 247.603 49.4083 247.415 49.5987 247.271C49.7949 247.121 50.0285 247.009 50.2997 246.934C50.5766 246.859 50.8795 246.821 51.2083 246.821C51.5891 246.821 51.9497 246.856 52.2901 246.925C52.6362 246.988 52.9189 247.081 53.1381 247.202L52.7314 248.275C52.6622 248.235 52.5727 248.194 52.4631 248.154C52.3593 248.108 52.2381 248.07 52.0997 248.041C51.9612 248.007 51.8141 247.981 51.6583 247.963C51.5026 247.94 51.3439 247.929 51.1824 247.929C50.8939 247.929 50.6689 247.981 50.5074 248.085C50.3516 248.183 50.2737 248.321 50.2737 248.5C50.2737 248.679 50.3487 248.823 50.4987 248.933C50.6487 249.037 50.8333 249.135 51.0526 249.227C51.2776 249.313 51.5199 249.403 51.7795 249.495C52.0391 249.582 52.2785 249.697 52.4977 249.841C52.7227 249.98 52.9102 250.156 53.0602 250.369C53.2102 250.583 53.2852 250.857 53.2852 251.191C53.2852 251.526 53.2276 251.814 53.1122 252.057C52.9968 252.299 52.8324 252.501 52.6189 252.663C52.4112 252.818 52.1602 252.934 51.866 253.009C51.5718 253.084 51.2487 253.121 50.8968 253.121C50.6602 253.121 50.4352 253.107 50.2218 253.078C50.0141 253.055 49.8208 253.026 49.642 252.991C49.4631 252.951 49.3045 252.911 49.166 252.87C49.0333 252.824 48.9266 252.781 48.8458 252.74L49.2699 251.659C49.3333 251.693 49.4199 251.731 49.5295 251.771C49.6449 251.812 49.7718 251.852 49.9102 251.892C50.0487 251.927 50.1958 251.956 50.3516 251.979C50.5131 252.002 50.6747 252.013 50.8362 252.013C51.217 252.013 51.5054 251.959 51.7016 251.849C51.9035 251.739 52.0045 251.569 52.0045 251.338Z" fill="#323232"/>
<path fill-rule="evenodd" clip-rule="evenodd" d="M53.5096 295.51C54.1592 297.596 52.977 299.848 50.8916 300.498C48.8063 301.147 46.554 299.965 45.9043 297.88C45.2928 295.917 46.4751 293.665 48.5604 293.015C50.6457 292.365 52.8981 293.548 53.5096 295.51Z" fill="#323232"/>
<path d="M32 183V129H107" stroke="#323232" stroke-width="2" stroke-dasharray="6.91 6.91"/>
<path fill-rule="evenodd" clip-rule="evenodd" d="M129.212 35.2394L124.24 40.7772C123.597 41.3657 123.757 42.4007 124.346 43.0434L144.517 61.201C145.311 61.8527 146.337 61.8979 146.989 61.1042L166.226 39.7465L166.235 39.5413L166.244 39.3361C166.727 37.7126 166.772 36.6866 165.809 35.205L145.629 17.2526L145.424 17.2436L133.747 30.299L150.645 29.3979C151.297 28.6042 152.136 28.2299 153.171 28.0699C153.992 28.106 155.009 28.3563 155.597 28.999C156.391 29.6507 156.765 30.4896 156.729 31.3103C156.889 32.3454 156.443 33.1481 155.791 33.9418C155.353 34.5393 154.309 34.9046 153.479 35.0737C152.453 35.0285 151.642 34.7872 150.848 34.1355L129.212 35.2394ZM145.685 62.6916C145.07 62.6645 144.463 62.4322 143.865 61.9947L123.694 43.8371C122.499 42.9621 122.375 41.1063 123.446 40.1255L128.633 34.3915C128.847 34.1953 128.847 34.1953 129.052 34.2043L151.107 32.9133C151.313 32.9224 151.313 32.9224 151.509 33.1366C152.097 33.7793 152.704 34.0116 153.319 34.0386C154.149 33.8696 154.569 33.6824 155.006 33.0849C155.435 32.6926 155.667 32.086 155.694 31.4704C155.721 30.8548 155.338 30.2212 154.945 29.7927C154.348 29.3552 153.741 29.1229 153.126 29.0958C152.501 29.274 151.867 29.6573 151.43 30.2548C151.225 30.2458 151.011 30.4419 151.011 30.4419L132.462 31.476C132.256 31.467 132.06 31.2528 132.069 31.0476C131.873 30.8334 131.882 30.6282 132.096 30.432L144.63 16.5919C144.853 16.1905 145.263 16.2086 145.478 16.0124C145.888 16.0305 146.289 16.2537 146.486 16.468L166.461 34.4113L166.657 34.6256C168.021 36.3303 167.753 37.7577 167.467 39.5954L167.252 39.7916C167.252 39.7916 167.243 39.9968 167.234 40.202C167.234 40.202 167.225 40.4072 167.02 40.3982L147.773 61.9611C147.131 62.5496 146.301 62.7186 145.685 62.6916Z" fill="#323232"/>
<path d="M164.384 31.7675L164.218 31.7393C166.016 31.9703 169.061 32.8358 171.571 35.9927L171.578 36.0015L171.585 36.0101C173.466 38.1674 174.49 40.8896 174.774 43.4634C175.06 46.0436 174.596 48.4027 173.593 49.8687C172.181 51.7011 170.692 51.9839 169.602 51.9359C168.172 51.873 166.705 50.9065 165.601 49.2941C165.034 48.397 164.971 47.0652 165.191 45.5324C165.383 44.1875 165.775 42.7896 166.119 41.5595C166.161 41.4093 166.203 41.2617 166.243 41.1169C166.295 40.981 166.347 40.855 166.399 40.7324C166.403 40.7227 166.407 40.713 166.411 40.7033C166.459 40.5862 166.508 40.4688 166.552 40.3561C166.645 40.1133 166.728 39.8502 166.741 39.5636L166.747 39.4195C166.983 38.6154 167.128 37.8997 167.073 37.18C167.017 36.4307 166.748 35.724 166.234 34.933L166.2 34.8802C166.838 35.7076 167.09 36.4112 167.165 37.0896C167.243 37.7894 167.139 38.4871 167.005 39.3455L166.92 39.4232L166.768 39.5631L166.759 39.77C166.753 39.8956 166.716 40.0379 166.628 40.2887C166.609 40.3431 166.588 40.4021 166.565 40.4657C166.489 40.6806 166.393 40.9484 166.296 41.273L166.293 41.2844L166.29 41.296C166.231 41.537 166.16 41.8089 166.083 42.1033C165.846 43.0181 165.552 44.1503 165.365 45.2491C165.241 45.9793 165.16 46.7174 165.175 47.3918C165.189 48.0593 165.299 48.7112 165.596 49.2359L165.603 49.2493L165.612 49.2622C166.634 50.8356 168.165 51.8457 169.603 51.909C171.054 51.9728 172.464 51.0781 173.402 49.7973L173.407 49.79L173.413 49.7825C174.379 48.3564 174.839 46.0369 174.605 43.5418C174.369 41.0304 173.426 38.2702 171.499 35.9421L171.499 35.9421L171.496 35.9383C169.056 33.0493 166.099 32.059 164.384 31.7675ZM162.771 31.6605C162.838 31.6591 162.94 31.6571 163.071 31.6583L163.931 32.5981C164.237 32.9317 164.641 33.3181 165.029 33.6888L165.038 33.6975C165.432 34.074 165.809 34.4344 166.088 34.7386C166.123 34.7809 166.156 34.823 166.188 34.8648L166.132 34.819C165.343 34.1708 164.455 33.4148 163.762 32.8198C163.416 32.5225 163.12 32.2659 162.91 32.0836C162.833 32.017 162.768 31.9604 162.717 31.9154C162.714 31.9051 162.712 31.8956 162.709 31.8869C162.706 31.8739 162.702 31.8592 162.698 31.8454L162.766 31.7834L162.771 31.6605ZM162.674 31.7541C162.674 31.7542 162.674 31.7546 162.674 31.7556L162.674 31.7541ZM162.682 31.6617C162.684 31.6618 162.686 31.6619 162.689 31.6619L162.682 31.6617Z" fill="#323232" stroke="#323232"/>
<path fill-rule="evenodd" clip-rule="evenodd" d="M164.023 32.1439C164.023 32.1439 168.634 32.2655 171.819 36.5655C175.172 41.0719 174.547 47.5306 172.817 50.0512C170.087 53.2466 167.275 51.3557 165.818 48.74C164.548 46.1411 166.399 41.7576 167.19 39.7907C167.513 38.2905 168.005 37.1787 167.04 35.3717C165.651 34.1001 164.023 32.1439 164.023 32.1439Z" fill="#323232"/>
<path fill-rule="evenodd" clip-rule="evenodd" d="M153.33 29.1046C153.33 29.1046 153.33 29.1046 153.124 29.0956C152.5 29.2737 151.866 29.657 151.429 30.2545C151.223 30.2455 151.009 30.4417 151.009 30.4417L126.491 31.6243C126.491 31.6243 126.277 31.8205 126.482 31.8295L126.588 34.0957C126.579 34.3009 126.579 34.3009 126.784 34.3099L151.106 32.9131C151.311 32.9221 151.311 32.9221 151.507 33.1363C152.096 33.779 152.702 34.0113 153.318 34.0384C154.148 33.8693 154.567 33.6822 155.005 33.0846C155.433 32.6923 155.666 32.0857 155.693 31.4701C155.72 30.8545 155.336 30.2209 154.944 29.7924C154.552 29.364 153.945 29.1317 153.33 29.1046ZM126.534 35.3269C126.329 35.3179 126.124 35.3088 125.927 35.0946C125.526 34.8714 125.339 34.4519 125.357 34.0415L125.242 31.9805C125.278 31.1597 125.716 30.5622 126.537 30.5983L150.644 29.3976C151.296 28.6039 152.135 28.2296 153.17 28.0696C155.025 27.9457 156.604 29.4543 156.728 31.3101C156.888 32.3451 156.441 33.1478 155.789 33.9415C155.352 34.5391 154.308 34.9043 153.478 35.0734C152.452 35.0282 151.64 34.7869 150.847 34.1352L126.739 35.3359C126.739 35.3359 126.739 35.3359 126.534 35.3269Z" fill="#323232"/>
<path fill-rule="evenodd" clip-rule="evenodd" d="M110.767 43.7226H40.1106C39.6999 43.7226 39.2891 43.5172 39.2891 43.1064C39.2891 42.6956 39.6999 42.4902 40.1106 42.4902H110.767C111.178 42.4902 111.588 42.6956 111.588 43.1064C111.588 43.5172 111.178 43.7226 110.767 43.7226Z" fill="#323232"/>
<path fill-rule="evenodd" clip-rule="evenodd" d="M115.497 43.7225C115.291 43.7225 115.086 43.7225 114.88 43.5171L110.362 38.3822C110.362 38.1768 110.156 37.9714 110.156 37.9714C110.156 37.766 110.362 37.5606 110.362 37.3552C110.772 37.1498 111.183 37.1498 111.389 37.3552L115.907 42.6955C116.113 42.9009 116.113 42.9009 116.113 43.1063C116.113 43.3117 116.113 43.5171 115.907 43.7225C115.702 43.7225 115.702 43.7225 115.497 43.7225Z" fill="#323232"/>
<path fill-rule="evenodd" clip-rule="evenodd" d="M110.978 49.0625C110.772 49.0625 110.567 49.0625 110.362 48.8571C110.362 48.8571 110.156 48.6517 110.156 48.4463C110.156 48.2409 110.362 48.0355 110.362 48.0355L114.88 42.6952C115.291 42.4898 115.702 42.2844 115.907 42.6952C116.113 42.6952 116.113 42.9006 116.113 43.106C116.113 43.3114 116.113 43.5168 115.907 43.5168L111.389 48.8571C111.183 49.0625 110.978 49.0625 110.978 49.0625Z" fill="#323232"/>
<path fill-rule="evenodd" clip-rule="evenodd" d="M84.4778 52.3489H13.6162C13.4108 52.3489 13 51.9381 13 51.5273C13 51.1165 13.4108 50.9111 13.6162 50.9111H84.4778C84.8886 50.9111 85.094 51.1165 85.094 51.5273C85.094 51.9381 84.8886 52.3489 84.4778 52.3489Z" fill="#323232"/>
<path fill-rule="evenodd" clip-rule="evenodd" d="M89.2075 52.3492C89.0021 52.3492 88.7967 52.1438 88.5913 51.9384L84.0726 46.8035C83.8672 46.5981 83.8672 46.5981 83.8672 46.3927C83.8672 46.1873 83.8672 45.9819 84.0726 45.7765C84.278 45.5711 84.8942 45.5711 85.0996 45.9819L89.6183 51.1168C89.8237 51.3222 89.8237 51.5276 89.8237 51.5276C89.8237 51.733 89.6183 51.9384 89.6183 52.1438C89.4129 52.1438 89.2075 52.3492 89.2075 52.3492Z" fill="#323232"/>
<path fill-rule="evenodd" clip-rule="evenodd" d="M84.4834 57.4837C84.278 57.4837 84.278 57.4837 84.0726 57.2783C83.8672 57.2783 83.8672 57.0729 83.8672 56.8675C83.8672 56.6621 83.8672 56.4567 84.0726 56.4567L88.5913 51.1164C88.7967 50.9111 89.2075 50.9111 89.6183 51.1164C89.6183 51.1164 89.8237 51.3218 89.8237 51.5272C89.8237 51.7326 89.8237 51.938 89.6183 51.938L85.0996 57.2783C84.8942 57.4837 84.6888 57.4837 84.4834 57.4837Z" fill="#323232"/>
<path d="M103.08 53.9027H97.5078V48.3301H103.08V53.9027Z" stroke="#323232"/>
<path d="M174 52L355.5 52.5L358.5 54.5L361 57L361.5 61V64.5L174 65V52Z" fill="#323232"/>
<path d="M170 52L351.5 52.5L354.5 54.5L357 57L357.5 61V64.5L170 65V52Z" fill="#323232"/>
<path d="M158 54L162.5 52.5H170V56L164 55L161.5 57.5L163 62L167.5 63L170 61V63V65H155.5V61.5L156 57.5L158 54Z" fill="#323232"/>
<path d="M156 176H361L360 179L357 181L354.5 182H162L159 181L157 178.5L156 176Z" fill="#323232"/>
<circle cx="493" cy="236" r="6" fill="#323232"/>
<path d="M126.5 31.5L151.5 29.5L153 29H154.5L155.5 30L156 32L155 33.5L153.5 34.5L153 34H152L126.5 34.5V31.5Z" fill="#323232"/>
<rect x="10" y="198" width="44" height="8" rx="4" fill="#414042"/>
<rect x="10" y="213" width="44" height="8" rx="4" fill="#414042"/>
<rect x="10" y="228" width="44" height="8" rx="4" fill="#414042"/>
<path d="M156.861 32H162.2L162.602 32.5L163.102 33H163L164.5 34L165.5 35H162.102L155.602 34.5L156.102 34L156.861 32.5V32.2101V32Z" fill="#F2F2F2"/>
<path fill-rule="evenodd" clip-rule="evenodd" d="M405.122 64C405.122 64.3858 405.122 64.3858 405.122 64C404.158 67.0868 403 68.4372 403 71.1381C403 73.0674 403.965 73.8391 405.122 73.8391C406.28 73.8391 407.244 73.0674 407.244 71.1381C407.244 68.4372 405.894 67.0868 405.122 64Z" fill="#323232"/>
<path d="M418 44.5L418.5 44L419.5 43L420.5 42L421 45V46V46.5H419.5H418V44.5Z" fill="#F2F2F2"/>
<path fill-rule="evenodd" clip-rule="evenodd" d="M405.901 60.5918L406.723 61.4134C407.339 60.7972 408.366 59.7702 409.393 59.7702C412.474 59.3595 413.295 58.7433 413.501 58.7433C413.501 58.5379 413.501 58.5379 413.501 58.5379L439.175 32.8634L434.451 28.1393L408.777 53.8138C408.777 53.8138 407.955 54.6353 407.544 57.9217C407.544 58.9487 406.517 59.9756 405.901 60.5918ZM406.723 63.0566C406.517 63.0566 406.312 63.0566 406.312 62.8512L404.463 61.208C404.463 61.0026 404.258 60.7972 404.258 60.5918C404.258 60.3864 404.463 60.181 404.463 60.181C405.079 59.5648 406.106 58.5379 406.312 57.7163C406.723 54.0192 407.544 52.9922 407.955 52.7868L434.04 26.7015C434.04 26.4961 434.246 26.4961 434.451 26.4961C434.656 26.4961 434.862 26.4961 435.067 26.7015L440.408 32.2472H440.613C440.818 32.4526 440.818 32.658 440.818 32.8634C440.818 33.0688 440.818 33.2742 440.613 33.2742L414.322 59.5648V59.7702C413.706 60.181 412.474 60.7972 409.598 61.0026C408.777 61.208 407.75 62.235 407.133 62.8512C407.133 62.8512 406.928 63.0566 406.723 63.0566Z" fill="#323232"/>
<path d="M418 47.7441H419.534H421V51.0004L420 52.5004L419.5 53.0004L418 54.5004V47.7441Z" fill="#F2F2F2"/>
<path fill-rule="evenodd" clip-rule="evenodd" d="M414.945 47.8572L408.988 53.6083C408.988 53.6083 408.167 54.4299 407.961 56.8946C407.961 58.127 409.194 58.9486 409.81 58.9486C411.864 59.7702 413.096 58.7432 413.096 58.7432L413.918 58.127L424.393 47.8572H414.945ZM411.453 60.5918C410.837 60.5918 410.221 60.5918 409.399 60.3864C408.372 60.181 406.523 58.7432 406.523 56.8946C406.934 53.8137 407.961 52.7867 408.167 52.5813L414.123 46.6248C414.328 46.4194 414.328 46.4194 414.534 46.4194H426.036C426.447 46.4194 426.652 46.6248 426.652 46.8302C426.858 47.0356 426.858 47.4464 426.652 47.6518L414.739 59.154C414.739 59.3594 414.123 59.7702 414.123 59.7702C413.712 60.181 412.685 60.5918 411.453 60.5918Z" fill="#323232"/>
<path d="M163.289 52.104C158.806 52.104 155.414 55.8898 155.414 60.2889V174.233C155.414 178.632 158.806 182.417 163.289 182.417H353.401C357.843 182.417 361.586 178.674 361.586 174.233V60.2889C361.586 55.8474 357.843 52.104 353.401 52.104H163.289ZM353.401 182.768H163.289C158.735 182.768 154.754 179.064 154.754 174.233V60.2889C154.754 55.4577 158.735 51.7537 163.289 51.7537H353.401C358.282 51.7537 362.246 55.4734 362.246 60.2889V174.233C362.246 179.048 358.282 182.768 353.401 182.768Z" stroke="#323232" stroke-width="1.50748"/>
<path fill-rule="evenodd" clip-rule="evenodd" d="M156.167 75.7703H360.833V66.1717H156.167V75.7703ZM361.761 77.9377H155.239C154.619 77.9377 154 77.3184 154 76.6991V65.2429C154 64.6236 154.619 64.314 155.239 64.314H361.761C362.381 64.314 363 64.6236 363 65.2429V76.6991C363 77.3184 362.381 77.9377 361.761 77.9377Z" fill="#323232"/>
<path fill-rule="evenodd" clip-rule="evenodd" d="M156.167 174.852H360.833V66.4814H156.167V174.852ZM361.761 176.71H155.239C154.619 176.71 154 176.4 154 175.781V65.2429C154 64.6236 154.619 64.314 155.239 64.314H361.761C362.381 64.314 363 64.6236 363 65.2429V175.781C363 176.4 362.381 176.71 361.761 176.71Z" fill="#323232"/>
<path fill-rule="evenodd" clip-rule="evenodd" d="M156.167 174.852H193.013V66.4814H156.167V174.852ZM193.942 176.71H155.239C154.619 176.71 154 176.4 154 175.781V65.2429C154 64.6236 154.619 64.314 155.239 64.314H193.942C194.561 64.314 194.871 64.6236 194.871 65.2429V175.781C194.871 176.4 194.561 176.71 193.942 176.71Z" fill="#323232"/>
<path fill-rule="evenodd" clip-rule="evenodd" d="M203.223 88.1559H217.776V84.4404H203.223V88.1559ZM219.014 90.3233H202.294C201.675 90.3233 201.365 89.7041 201.365 89.0848V83.5115C201.365 82.8922 201.675 82.2729 202.294 82.2729H219.014C219.633 82.2729 219.943 82.8922 219.943 83.5115V89.0848C219.943 89.7041 219.633 90.3233 219.014 90.3233Z" fill="#323232"/>
<path fill-rule="evenodd" clip-rule="evenodd" d="M203.223 100.85H217.776V97.1342H203.223V100.85ZM219.014 103.017H202.294C201.675 103.017 201.365 102.398 201.365 101.779V96.2053C201.365 95.5861 201.675 94.9668 202.294 94.9668H219.014C219.633 94.9668 219.943 95.5861 219.943 96.2053V101.779C219.943 102.398 219.633 103.017 219.014 103.017Z" fill="#323232"/>
<path fill-rule="evenodd" clip-rule="evenodd" d="M203.223 113.545H217.776V109.83H203.223V113.545ZM219.014 115.712H202.294C201.675 115.712 201.365 115.093 201.365 114.474V108.901C201.365 108.281 201.675 107.662 202.294 107.662H219.014C219.633 107.662 219.943 108.281 219.943 108.901V114.474C219.943 115.093 219.633 115.712 219.014 115.712Z" fill="#323232"/>
<path fill-rule="evenodd" clip-rule="evenodd" d="M203.223 126.24H217.776V122.524H203.223V126.24ZM219.014 128.407H202.294C201.675 128.407 201.365 127.788 201.365 127.169V121.595C201.365 120.976 201.675 120.357 202.294 120.357H219.014C219.633 120.357 219.943 120.976 219.943 121.595V127.169C219.943 127.788 219.633 128.407 219.014 128.407Z" fill="#323232"/>
<path fill-rule="evenodd" clip-rule="evenodd" d="M203.223 138.935H217.776V135.22H203.223V138.935ZM219.014 141.103H202.294C201.675 141.103 201.365 140.483 201.365 139.864V134.291C201.365 133.672 201.675 133.052 202.294 133.052H219.014C219.633 133.052 219.943 133.672 219.943 134.291V139.864C219.943 140.483 219.633 141.103 219.014 141.103Z" fill="#323232"/>
<path fill-rule="evenodd" clip-rule="evenodd" d="M203.223 151.63H217.776V147.914H203.223V151.63ZM219.014 153.797H202.294C201.675 153.797 201.365 153.178 201.365 152.558V146.985C201.365 146.366 201.675 145.747 202.294 145.747H219.014C219.633 145.747 219.943 146.366 219.943 146.985V152.558C219.943 153.178 219.633 153.797 219.014 153.797Z" fill="#323232"/>
<path fill-rule="evenodd" clip-rule="evenodd" d="M203.223 164.324H217.776V160.609H203.223V164.324ZM219.014 166.492H202.294C201.675 166.492 201.365 165.873 201.365 165.253V159.68C201.365 159.061 201.675 158.441 202.294 158.441H219.014C219.633 158.441 219.943 159.061 219.943 159.68V165.253C219.943 165.873 219.633 166.492 219.014 166.492Z" fill="#323232"/>
<path fill-rule="evenodd" clip-rule="evenodd" d="M243.789 86.9166H258.341V83.5107H243.789V86.9166ZM259.58 89.084H242.86C242.24 89.084 241.621 88.7744 241.621 88.1551V82.2722C241.621 81.6529 242.24 81.3433 242.86 81.3433H259.58C259.889 81.3433 260.509 81.6529 260.509 82.2722V88.1551C260.509 88.7744 259.889 89.084 259.58 89.084Z" fill="#323232"/>
<path fill-rule="evenodd" clip-rule="evenodd" d="M260.515 100.85H353.404V97.1342H260.515V100.85ZM354.642 103.017H259.586C258.967 103.017 258.348 102.398 258.348 101.779V96.2053C258.348 95.5861 258.967 94.9668 259.586 94.9668H354.642C354.952 94.9668 355.571 95.5861 355.571 96.2053V101.779C355.571 102.398 354.952 103.017 354.642 103.017Z" fill="#323232"/>
<path fill-rule="evenodd" clip-rule="evenodd" d="M259.583 113.545H295.5V109.83H259.583V113.545ZM296.739 115.712H258.345C258.035 115.712 257.416 115.093 257.416 114.474V108.901C257.416 108.281 258.035 107.662 258.345 107.662H296.739C297.049 107.662 297.668 108.281 297.668 108.901V114.474C297.668 115.093 297.049 115.712 296.739 115.712Z" fill="#323232"/>
<path fill-rule="evenodd" clip-rule="evenodd" d="M243.789 126.24H258.341V122.524H243.789V126.24ZM259.58 128.407H242.86C242.24 128.407 241.621 127.788 241.621 127.169V121.595C241.621 120.976 242.24 120.357 242.86 120.357H259.58C259.889 120.357 260.509 120.976 260.509 121.595V127.169C260.509 127.788 259.889 128.407 259.58 128.407Z" fill="#323232"/>
<path fill-rule="evenodd" clip-rule="evenodd" d="M243.789 138.935H258.341V135.22H243.789V138.935ZM259.58 141.103H242.86C242.24 141.103 241.621 140.483 241.621 139.864V134.291C241.621 133.672 242.24 133.052 242.86 133.052H259.58C259.889 133.052 260.509 133.672 260.509 134.291V139.864C260.509 140.483 259.889 141.103 259.58 141.103Z" fill="#323232"/>
<path fill-rule="evenodd" clip-rule="evenodd" d="M244.105 151.63H315.939V147.914H244.105V151.63ZM317.178 153.797H243.176C242.557 153.797 241.938 153.178 241.938 152.558V146.985C241.938 146.366 242.557 145.747 243.176 145.747H317.178C317.487 145.747 318.106 146.366 318.106 146.985V152.558C318.106 153.178 317.487 153.797 317.178 153.797Z" fill="#323232"/>
<path fill-rule="evenodd" clip-rule="evenodd" d="M167.167 100.883H181.72V97.1674H167.167V100.883ZM182.649 103.05H165.929C165.619 103.05 165 102.431 165 101.812V96.2385C165 95.6193 165.619 95 165.929 95H182.649C183.268 95 183.887 95.6193 183.887 96.2385V101.812C183.887 102.431 183.268 103.05 182.649 103.05Z" fill="#323232"/>
<path fill-rule="evenodd" clip-rule="evenodd" d="M167.324 88.1559H181.876V84.4404H167.324V88.1559ZM182.805 90.3233H166.085C165.776 90.3233 165.156 89.7041 165.156 89.0848V83.5115C165.156 82.8922 165.776 82.2729 166.085 82.2729H182.805C183.424 82.2729 184.044 82.8922 184.044 83.5115V89.0848C184.044 89.7041 183.424 90.3233 182.805 90.3233Z" fill="#323232"/>
<path fill-rule="evenodd" clip-rule="evenodd" d="M166.072 55.9545C164.834 55.9545 163.595 57.193 163.595 58.7412C163.595 60.2893 164.834 61.2182 166.072 61.2182C167.62 61.2182 168.859 60.2893 168.859 58.7412C168.859 57.193 167.62 55.9545 166.072 55.9545ZM166.072 63.3856C163.595 63.3856 161.428 61.2182 161.428 58.7412C161.428 55.9545 163.595 53.7871 166.072 53.7871C168.859 53.7871 171.026 55.9545 171.026 58.7412C171.026 61.2182 168.859 63.3856 166.072 63.3856Z" fill="#323232"/>
<rect x="161.25" y="53.25" width="51.5" height="10.5" rx="2.52778" stroke="white" stroke-width="0.5"/>
<path d="M173.325 56.5C173.398 56.49 173.482 56.4817 173.575 56.475C173.672 56.4683 173.77 56.4633 173.87 56.46C173.973 56.4567 174.073 56.455 174.17 56.455C174.267 56.4517 174.353 56.45 174.43 56.45C174.763 56.45 175.048 56.495 175.285 56.585C175.525 56.6717 175.72 56.7933 175.87 56.95C176.023 57.1067 176.135 57.2933 176.205 57.51C176.275 57.7267 176.31 57.9633 176.31 58.22C176.31 58.4533 176.275 58.68 176.205 58.9C176.138 59.12 176.028 59.3167 175.875 59.49C175.722 59.66 175.522 59.7967 175.275 59.9C175.028 60.0033 174.725 60.055 174.365 60.055C174.308 60.055 174.23 60.0533 174.13 60.05C174.033 60.0467 173.932 60.0417 173.825 60.035C173.722 60.0317 173.623 60.0267 173.53 60.02C173.44 60.0167 173.372 60.0117 173.325 60.005V56.5ZM174.485 57.1C174.408 57.1 174.33 57.1017 174.25 57.105C174.17 57.105 174.108 57.1083 174.065 57.115V59.385C174.082 59.3883 174.107 59.3917 174.14 59.395C174.177 59.395 174.213 59.3967 174.25 59.4C174.29 59.4 174.327 59.4017 174.36 59.405C174.397 59.405 174.423 59.405 174.44 59.405C174.653 59.405 174.83 59.3717 174.97 59.305C175.11 59.2383 175.22 59.15 175.3 59.04C175.383 58.93 175.442 58.805 175.475 58.665C175.508 58.525 175.525 58.38 175.525 58.23C175.525 58.1067 175.51 57.9783 175.48 57.845C175.45 57.7117 175.395 57.59 175.315 57.48C175.238 57.37 175.133 57.28 175 57.21C174.867 57.1367 174.695 57.1 174.485 57.1ZM178.687 58.83L178.797 59.25H178.847L178.942 58.83L179.387 57.375H180.102L179.232 59.75C179.158 59.9467 179.088 60.1233 179.022 60.28C178.958 60.4367 178.888 60.57 178.812 60.68C178.735 60.79 178.648 60.8733 178.552 60.93C178.458 60.99 178.347 61.02 178.217 61.02C178.13 61.02 178.047 61.0117 177.967 60.995C177.89 60.9817 177.823 60.96 177.767 60.93L177.912 60.39C177.962 60.4067 178.013 60.415 178.067 60.415C178.113 60.415 178.158 60.41 178.202 60.4C178.245 60.39 178.285 60.37 178.322 60.34C178.358 60.3133 178.392 60.2733 178.422 60.22C178.455 60.17 178.483 60.1017 178.507 60.015L177.307 57.375H178.152L178.687 58.83ZM182.882 58.015C182.782 57.9817 182.682 57.965 182.582 57.965C182.435 57.965 182.314 58 182.217 58.07C182.124 58.14 182.062 58.2283 182.032 58.335V60H181.332V57.375H181.882L181.957 57.74H182.022C182.089 57.6033 182.177 57.4983 182.287 57.425C182.4 57.3517 182.529 57.315 182.672 57.315C182.762 57.315 182.865 57.3333 182.982 57.37L182.882 58.015ZM184.113 58.69C184.113 58.2567 184.228 57.9167 184.458 57.67C184.688 57.4233 185.016 57.3 185.443 57.3C185.666 57.3 185.861 57.335 186.028 57.405C186.195 57.475 186.333 57.5733 186.443 57.7C186.553 57.8233 186.635 57.97 186.688 58.14C186.745 58.3067 186.773 58.49 186.773 58.69C186.773 58.9033 186.743 59.0967 186.683 59.27C186.623 59.44 186.536 59.585 186.423 59.705C186.31 59.825 186.17 59.9167 186.003 59.98C185.84 60.0433 185.653 60.075 185.443 60.075C185.216 60.075 185.02 60.04 184.853 59.97C184.686 59.9 184.548 59.8033 184.438 59.68C184.328 59.5533 184.246 59.4067 184.193 59.24C184.14 59.07 184.113 58.8867 184.113 58.69ZM184.833 58.69C184.833 58.8 184.845 58.9033 184.868 59C184.891 59.0967 184.926 59.1817 184.973 59.255C185.023 59.325 185.086 59.3817 185.163 59.425C185.24 59.4683 185.333 59.49 185.443 59.49C185.85 59.49 186.053 59.2233 186.053 58.69C186.053 58.5733 186.041 58.4667 186.018 58.37C185.998 58.27 185.963 58.185 185.913 58.115C185.866 58.0417 185.803 57.985 185.723 57.945C185.646 57.905 185.553 57.885 185.443 57.885C185.253 57.885 185.103 57.9483 184.993 58.075C184.886 58.2017 184.833 58.4067 184.833 58.69ZM190.491 56.5C190.564 56.49 190.648 56.4817 190.741 56.475C190.838 56.4683 190.936 56.4633 191.036 56.46C191.139 56.4567 191.239 56.455 191.336 56.455C191.433 56.4517 191.519 56.45 191.596 56.45C191.929 56.45 192.214 56.495 192.451 56.585C192.691 56.6717 192.886 56.7933 193.036 56.95C193.189 57.1067 193.301 57.2933 193.371 57.51C193.441 57.7267 193.476 57.9633 193.476 58.22C193.476 58.4533 193.441 58.68 193.371 58.9C193.304 59.12 193.194 59.3167 193.041 59.49C192.888 59.66 192.688 59.7967 192.441 59.9C192.194 60.0033 191.891 60.055 191.531 60.055C191.474 60.055 191.396 60.0533 191.296 60.05C191.199 60.0467 191.098 60.0417 190.991 60.035C190.888 60.0317 190.789 60.0267 190.696 60.02C190.606 60.0167 190.538 60.0117 190.491 60.005V56.5ZM191.651 57.1C191.574 57.1 191.496 57.1017 191.416 57.105C191.336 57.105 191.274 57.1083 191.231 57.115V59.385C191.248 59.3883 191.273 59.3917 191.306 59.395C191.343 59.395 191.379 59.3967 191.416 59.4C191.456 59.4 191.493 59.4017 191.526 59.405C191.563 59.405 191.589 59.405 191.606 59.405C191.819 59.405 191.996 59.3717 192.136 59.305C192.276 59.2383 192.386 59.15 192.466 59.04C192.549 58.93 192.608 58.805 192.641 58.665C192.674 58.525 192.691 58.38 192.691 58.23C192.691 58.1067 192.676 57.9783 192.646 57.845C192.616 57.7117 192.561 57.59 192.481 57.48C192.404 57.37 192.299 57.28 192.166 57.21C192.033 57.1367 191.861 57.1 191.651 57.1ZM197.182 59.76C197.068 59.8467 196.913 59.9217 196.717 59.985C196.523 60.045 196.315 60.075 196.092 60.075C195.642 60.075 195.312 59.9517 195.102 59.705C194.892 59.4583 194.787 59.12 194.787 58.69C194.787 58.2333 194.905 57.8883 195.142 57.655C195.378 57.4183 195.712 57.3 196.142 57.3C196.282 57.3 196.42 57.3183 196.557 57.355C196.693 57.3883 196.815 57.4467 196.922 57.53C197.028 57.61 197.113 57.72 197.177 57.86C197.243 57.9967 197.277 58.1667 197.277 58.37C197.277 58.44 197.272 58.5167 197.262 58.6C197.255 58.6833 197.242 58.77 197.222 58.86H195.472C195.488 59.0867 195.553 59.255 195.667 59.365C195.783 59.4717 195.972 59.525 196.232 59.525C196.388 59.525 196.528 59.5033 196.652 59.46C196.778 59.4133 196.875 59.3667 196.942 59.32L197.182 59.76ZM196.132 57.85C195.925 57.85 195.772 57.9067 195.672 58.02C195.572 58.13 195.513 58.2717 195.497 58.445H196.627C196.64 58.2617 196.607 58.1167 196.527 58.01C196.447 57.9033 196.315 57.85 196.132 57.85ZM199.652 58.735L199.757 59.14H199.837L199.912 58.725L200.402 57.375H201.157L199.957 60.025H199.557L198.307 57.375H199.122L199.652 58.735Z" fill="white"/>
<g clip-path="url(#clip0_1885_1578)">
<path fill-rule="evenodd" clip-rule="evenodd" d="M208.001 59.3539L208.885 60.2378C208.932 60.2847 208.996 60.311 209.062 60.311C209.128 60.311 209.192 60.2847 209.239 60.2378C209.286 60.1909 209.312 60.1273 209.312 60.0609C209.312 59.9946 209.286 59.931 209.239 59.8841L208.355 59.0003L209.239 58.1164C209.262 58.0932 209.28 58.0656 209.293 58.0353C209.305 58.005 209.312 57.9725 209.312 57.9396C209.312 57.9068 209.305 57.8743 209.293 57.8439C209.28 57.8136 209.262 57.7861 209.238 57.7628C209.215 57.7396 209.188 57.7212 209.157 57.7087C209.127 57.6961 209.095 57.6897 209.062 57.6897C209.029 57.6897 208.996 57.6961 208.966 57.7087C208.936 57.7213 208.908 57.7397 208.885 57.7629L208.001 58.6468L207.117 57.7629C207.094 57.739 207.067 57.72 207.036 57.7069C207.006 57.6937 206.973 57.6868 206.94 57.6865C206.907 57.6862 206.874 57.6925 206.843 57.7051C206.812 57.7177 206.784 57.7362 206.761 57.7597C206.737 57.7831 206.719 57.811 206.706 57.8417C206.694 57.8725 206.687 57.9054 206.688 57.9386C206.688 57.9718 206.695 58.0046 206.708 58.0351C206.721 58.0656 206.74 58.0932 206.764 58.1163L207.648 59.0003L206.764 59.8843C206.74 59.9073 206.721 59.9349 206.708 59.9654C206.695 59.9959 206.688 60.0288 206.688 60.0619C206.687 60.0951 206.694 60.1281 206.706 60.1588C206.719 60.1895 206.737 60.2174 206.761 60.2409C206.784 60.2643 206.812 60.2829 206.843 60.2954C206.874 60.308 206.907 60.3143 206.94 60.314C206.973 60.3137 207.006 60.3068 207.036 60.2937C207.067 60.2805 207.095 60.2615 207.118 60.2376L208.001 59.3539Z" fill="white"/>
</g>
<path d="M364 133.5L360 132.5V139.5L364.5 135L364 133.5Z" fill="#F2F2F2"/>
<path d="M358 151L365 157.5L366.5 175L357 166L358 151Z" fill="#F2F2F2"/>
<line x1="493" y1="242" x2="493" y2="255" stroke="#323232" stroke-width="2"/>
<circle cx="493" cy="236" r="6" fill="#323232"/>
<defs>
<clipPath id="clip0_1885_1578">
<rect width="4" height="4" fill="white" transform="translate(206 57)"/>
</clipPath>
</defs>
</svg>
