<svg width="310" height="310" viewBox="0 0 310 310" fill="none" xmlns="http://www.w3.org/2000/svg">
<circle cx="155" cy="155" r="154" fill="#F2F2F2" stroke="#323232" stroke-width="2" stroke-dasharray="4.86 4.86"/>
<path d="M108.742 226.197C103.621 224.407 93.3461 219.035 90.2782 214.628C85.309 207.49 75.4396 189.242 68.6786 177.286C60.2677 172.6 58.6253 176.7 59.0649 179.922C59.5045 183.144 70.7882 204.524 79.8738 211.406C88.9594 218.289 89.399 221.364 94.528 222.975C98.6311 224.264 106.114 226.734 108.742 226.197Z" fill="#323232"/>
<path d="M142.3 241.133C129.698 235.422 103.907 215.8 101.562 209.21C100.472 206.145 98.6524 203.208 96.9443 199.984C95.5527 199.35 90.8351 194.185 83.0977 178.604C73.426 159.128 58.4787 161.617 62.4354 166.889C63.5968 168.436 65.8694 172.318 68.6786 177.286C75.4396 189.242 85.309 207.49 90.2782 214.628C93.3461 219.035 103.621 224.407 108.742 226.197C115.363 228.51 117.03 226.999 121.492 232.201C127.822 239.581 138.002 241.231 142.3 241.133Z" fill="#323232"/>
<path d="M182.599 248.309C194.44 251.941 207.072 263.002 211.908 268.078C224.364 265.833 249.012 260.698 247.957 258.12C246.638 254.899 236.82 241.133 225.829 226.197C214.839 211.26 192.271 199.984 184.651 198.08C177.031 196.177 163.402 184.169 149.041 178.604C134.68 173.039 133.068 177.433 137.025 187.976C140.19 196.411 157.883 205.646 166.333 209.21C157.424 209.21 151.093 212.822 149.041 214.628C146.697 210.059 127.06 202.962 117.535 199.984C118.952 202.425 120.847 205.725 117.095 199.398C113.344 193.072 105.177 179.678 101.562 173.772C95.1141 154.442 82.5115 158.542 85.1493 161.617C87.787 164.692 92.0367 177.579 92.7694 187.098C93.1614 192.19 94.9793 196.276 96.9443 199.984C98.6524 203.208 100.472 206.145 101.562 209.21C103.907 215.8 129.698 235.422 142.3 241.133C154.903 246.845 167.799 243.769 182.599 248.309Z" fill="#323232"/>
<path d="M142.3 241.133C154.903 246.845 167.799 243.769 182.599 248.309C194.44 251.941 207.072 263.002 211.908 268.078C224.364 265.833 249.012 260.698 247.957 258.12C246.638 254.899 236.82 241.133 225.829 226.197C214.839 211.26 192.271 199.984 184.651 198.08C177.031 196.177 163.402 184.169 149.041 178.604C134.68 173.039 133.068 177.433 137.025 187.976C140.19 196.411 157.883 205.646 166.333 209.21M142.3 241.133C129.698 235.422 103.907 215.8 101.562 209.21C100.472 206.145 98.6524 203.208 96.9443 199.984M142.3 241.133C138.002 241.231 127.822 239.581 121.492 232.201C117.03 226.999 115.363 228.51 108.742 226.197M149.041 214.628C146.697 210.059 127.06 202.962 117.535 199.984C118.952 202.425 120.847 205.725 117.095 199.398C113.344 193.072 105.177 179.678 101.562 173.772C95.1141 154.442 82.5115 158.542 85.1493 161.617C87.787 164.692 92.0367 177.579 92.7694 187.098C93.1614 192.19 94.9793 196.276 96.9443 199.984M149.041 214.628C151.386 219.197 152.363 222.096 152.558 222.975M149.041 214.628C151.093 212.822 157.424 209.21 166.333 209.21M166.333 209.21C171.843 216.59 182.697 224.976 187.435 228.247M96.9443 199.984C95.5527 199.35 90.8351 194.185 83.0977 178.604C73.426 159.128 58.4787 161.617 62.4354 166.889C63.5968 168.436 65.8694 172.318 68.6786 177.286M108.742 226.197C103.621 224.407 93.3461 219.035 90.2782 214.628C85.309 207.49 75.4396 189.242 68.6786 177.286M108.742 226.197C106.114 226.734 98.6311 224.264 94.5279 222.975C89.399 221.364 88.9594 218.289 79.8738 211.406C70.7882 204.524 59.5045 183.144 59.0649 179.922C58.6253 176.7 60.2677 172.6 68.6786 177.286" stroke="white" stroke-width="0.711379"/>
<path d="M108.742 226.197C103.621 224.407 93.3461 219.035 90.2782 214.628C85.309 207.49 75.4396 189.242 68.6786 177.286C60.2677 172.6 58.6253 176.7 59.0649 179.922C59.5045 183.144 70.7882 204.524 79.8738 211.406C88.9594 218.289 89.399 221.364 94.528 222.975C98.6311 224.264 106.114 226.734 108.742 226.197Z" fill="#323232"/>
<path d="M142.3 241.133C129.698 235.422 103.907 215.8 101.562 209.21C100.472 206.145 98.6524 203.208 96.9443 199.984C95.5527 199.35 90.8351 194.185 83.0977 178.604C73.426 159.128 58.4787 161.617 62.4354 166.889C63.5968 168.436 65.8694 172.318 68.6786 177.286C75.4396 189.242 85.309 207.49 90.2782 214.628C93.3461 219.035 103.621 224.407 108.742 226.197C115.363 228.51 117.03 226.999 121.492 232.201C127.822 239.581 138.002 241.231 142.3 241.133Z" fill="#323232"/>
<path d="M182.599 248.309C194.44 251.941 207.072 263.002 211.908 268.078C224.364 265.833 249.012 260.698 247.957 258.12C246.638 254.899 236.82 241.133 225.829 226.197C214.839 211.26 192.271 199.984 184.651 198.08C177.031 196.177 163.402 184.169 149.041 178.604C134.68 173.039 133.068 177.433 137.025 187.976C140.19 196.411 157.883 205.646 166.333 209.21C157.424 209.21 151.093 212.822 149.041 214.628C146.697 210.059 127.06 202.962 117.535 199.984C118.952 202.425 120.847 205.725 117.095 199.398C113.344 193.072 105.177 179.678 101.562 173.772C95.1141 154.442 82.5115 158.542 85.1493 161.617C87.787 164.692 92.0367 177.579 92.7694 187.098C93.1614 192.19 94.9793 196.276 96.9443 199.984C98.6524 203.208 100.472 206.145 101.562 209.21C103.907 215.8 129.698 235.422 142.3 241.133C154.903 246.845 167.799 243.769 182.599 248.309Z" fill="#323232"/>
<path d="M142.3 241.133C154.903 246.845 167.799 243.769 182.599 248.309C194.44 251.941 207.072 263.002 211.908 268.078C224.364 265.833 249.012 260.698 247.957 258.12C246.638 254.899 236.82 241.133 225.829 226.197C214.839 211.26 192.271 199.984 184.651 198.08C177.031 196.177 163.402 184.169 149.041 178.604C134.68 173.039 133.068 177.433 137.025 187.976C140.19 196.411 157.883 205.646 166.333 209.21M142.3 241.133C129.698 235.422 103.907 215.8 101.562 209.21C100.472 206.145 98.6524 203.208 96.9443 199.984M142.3 241.133C138.002 241.231 127.822 239.581 121.492 232.201C117.03 226.999 115.363 228.51 108.742 226.197M149.041 214.628C146.697 210.059 127.06 202.962 117.535 199.984C118.952 202.425 120.847 205.725 117.095 199.398C113.344 193.072 105.177 179.678 101.562 173.772C95.1141 154.442 82.5115 158.542 85.1493 161.617C87.787 164.692 92.0367 177.579 92.7694 187.098C93.1614 192.19 94.9793 196.276 96.9443 199.984M149.041 214.628C151.386 219.197 152.363 222.096 152.558 222.975M149.041 214.628C151.093 212.822 157.424 209.21 166.333 209.21M166.333 209.21C171.843 216.59 182.697 224.976 187.435 228.247M96.9443 199.984C95.5527 199.35 90.8351 194.185 83.0977 178.604C73.426 159.128 58.4787 161.617 62.4354 166.889C63.5968 168.436 65.8694 172.318 68.6786 177.286M108.742 226.197C103.621 224.407 93.3461 219.035 90.2782 214.628C85.309 207.49 75.4396 189.242 68.6786 177.286M108.742 226.197C106.114 226.734 98.6311 224.264 94.5279 222.975C89.399 221.364 88.9594 218.289 79.8738 211.406C70.7882 204.524 59.5045 183.144 59.0649 179.922C58.6253 176.7 60.2677 172.6 68.6786 177.286" stroke="white" stroke-width="0.711379"/>
<path d="M155.318 78L159.347 78.8222L151.659 115L147.63 114.178L155.318 78Z" fill="#323232"/>
<path d="M140.197 83.3033L127 96.5L140.197 109.676V103.859L132.817 96.5L140.197 89.1206V83.3033Z" fill="#323232"/>
<path d="M168.468 89.1206L175.847 96.5L168.468 103.859V109.676L181.664 96.5L168.468 83.3033V89.1206Z" fill="#323232"/>
<path d="M155.318 78L159.347 78.8222L151.659 115L147.63 114.178L155.318 78Z" fill="#323232"/>
<path d="M140.197 83.3033L127 96.5L140.197 109.676V103.859L132.817 96.5L140.197 89.1206V83.3033Z" fill="#323232"/>
<path d="M168.468 89.1206L175.847 96.5L168.468 103.859V109.676L181.664 96.5L168.468 83.3033V89.1206Z" fill="#323232"/>
<path d="M87.6273 53.3608C87.1919 53.6119 86.8165 53.9884 86.5162 54.4904L86.0658 55.2435L86.0207 99.1881C85.9757 147.604 85.9156 143.839 86.8916 144.89C87.8976 145.957 85.4802 145.878 115.706 145.878C139.985 145.878 143.048 145.91 143.048 146.114C143.048 146.349 141.877 161.912 141.817 162.665L141.772 163.058L131.607 163.136C119.399 163.23 120.601 162.963 120.601 165.583V167.278L121.111 167.639L121.622 168H152.012C185.136 168 183.259 168.047 183.589 167.137C183.8 166.572 183.785 164.501 183.574 164.015C183.184 163.152 183.094 163.136 172.703 163.136C163.724 163.136 163.169 163.12 163.169 162.854C163.169 162.712 162.898 159.088 162.568 154.821C162.238 150.554 161.967 146.788 161.967 146.459V145.878H189.265C215.331 145.878 216.578 145.863 217.148 145.58C218.019 145.172 218.665 144.325 218.875 143.337C218.995 142.725 219.025 131.115 218.995 98.89C218.95 58.6009 218.935 55.2435 218.695 54.8042C218.395 54.208 217.749 53.5805 217.118 53.251C216.683 53.0157 211.232 53 152.463 53H88.288L87.6273 53.3608ZM215.647 99.4391V141.407L152.478 141.454L89.294 141.485V99.4391V57.3929L152.478 57.4243L215.647 57.4713V99.4391Z" fill="#323232"/>
<path d="M87.6273 53.3608C87.1919 53.6119 86.8165 53.9884 86.5162 54.4904L86.0658 55.2435L86.0207 99.1881C85.9757 147.604 85.9156 143.839 86.8916 144.89C87.8976 145.957 85.4802 145.878 115.706 145.878C139.985 145.878 143.048 145.91 143.048 146.114C143.048 146.349 141.877 161.912 141.817 162.665L141.772 163.058L131.607 163.136C119.399 163.23 120.601 162.963 120.601 165.583V167.278L121.111 167.639L121.622 168H152.012C185.136 168 183.259 168.047 183.589 167.137C183.8 166.572 183.785 164.501 183.574 164.015C183.184 163.152 183.094 163.136 172.703 163.136C163.724 163.136 163.169 163.12 163.169 162.854C163.169 162.712 162.898 159.088 162.568 154.821C162.238 150.554 161.967 146.788 161.967 146.459V145.878H189.265C215.331 145.878 216.578 145.863 217.148 145.58C218.019 145.172 218.665 144.325 218.875 143.337C218.995 142.725 219.025 131.115 218.995 98.89C218.95 58.6009 218.935 55.2435 218.695 54.8042C218.395 54.208 217.749 53.5805 217.118 53.251C216.683 53.0157 211.232 53 152.463 53H88.288L87.6273 53.3608ZM215.647 99.4391V141.407L152.478 141.454L89.294 141.485V99.4391V57.3929L152.478 57.4243L215.647 57.4713V99.4391Z" fill="#323232"/>
</svg>
