<svg width="310" height="310" viewBox="0 0 310 310" fill="none" xmlns="http://www.w3.org/2000/svg">
<circle cx="155" cy="155" r="154" fill="#F2F2F2" stroke="#323232" stroke-width="2" stroke-dasharray="4.86 4.86"/>
<path d="M106.742 230.197C101.621 228.407 91.3461 223.035 88.2782 218.628C83.309 211.49 73.4396 193.242 66.6786 181.286C58.2677 176.6 56.6253 180.7 57.0649 183.922C57.5045 187.144 68.7882 208.524 77.8738 215.406C86.9594 222.289 87.399 225.364 92.5279 226.975C96.6311 228.264 104.114 230.734 106.742 230.197Z" fill="#323232"/>
<path d="M140.3 245.133C127.698 239.422 101.907 219.8 99.5619 213.21C98.4716 210.145 96.6524 207.208 94.9443 203.984C93.5527 203.35 88.8351 198.185 81.0977 182.604C71.426 163.128 56.4787 165.617 60.4354 170.889C61.5968 172.436 63.8694 176.318 66.6786 181.286C73.4396 193.242 83.309 211.49 88.2782 218.628C91.3461 223.035 101.621 228.407 106.742 230.197C113.363 232.51 115.03 230.999 119.492 236.201C125.822 243.581 136.002 245.231 140.3 245.133Z" fill="#323232"/>
<path d="M180.599 252.309C192.44 255.941 205.072 267.002 209.908 272.078C222.364 269.833 247.012 264.698 245.957 262.12C244.638 258.899 234.82 245.133 223.829 230.197C212.839 215.26 190.271 203.984 182.651 202.08C175.031 200.177 161.402 188.169 147.041 182.604C132.68 177.039 131.068 181.433 135.025 191.976C138.19 200.411 155.883 209.646 164.333 213.21C155.424 213.21 149.093 216.822 147.041 218.628C144.697 214.059 125.06 206.962 115.535 203.984C116.952 206.425 118.847 209.725 115.095 203.398C111.344 197.072 103.177 183.678 99.5619 177.772C93.1141 158.442 80.5115 162.542 83.1493 165.617C85.787 168.692 90.0367 181.579 90.7694 191.098C91.1614 196.19 92.9793 200.276 94.9443 203.984C96.6524 207.208 98.4716 210.145 99.5619 213.21C101.907 219.8 127.698 239.422 140.3 245.133C152.903 250.845 165.799 247.769 180.599 252.309Z" fill="#323232"/>
<path d="M140.3 245.133C152.903 250.845 165.799 247.769 180.599 252.309C192.44 255.941 205.072 267.002 209.908 272.078C222.364 269.833 247.012 264.698 245.957 262.12C244.638 258.899 234.82 245.133 223.829 230.197C212.839 215.26 190.271 203.984 182.651 202.08C175.031 200.177 161.402 188.169 147.041 182.604C132.68 177.039 131.068 181.433 135.025 191.976C138.19 200.411 155.883 209.646 164.333 213.21M140.3 245.133C127.698 239.422 101.907 219.8 99.5619 213.21C98.4716 210.145 96.6524 207.208 94.9443 203.984M140.3 245.133C136.002 245.231 125.822 243.581 119.492 236.201C115.03 230.999 113.363 232.51 106.742 230.197M147.041 218.628C144.697 214.059 125.06 206.962 115.535 203.984C116.952 206.425 118.847 209.725 115.095 203.398C111.344 197.072 103.177 183.678 99.5619 177.772C93.1141 158.442 80.5115 162.542 83.1493 165.617C85.787 168.692 90.0367 181.579 90.7694 191.098C91.1614 196.19 92.9793 200.276 94.9443 203.984M147.041 218.628C149.386 223.197 150.363 226.096 150.558 226.975M147.041 218.628C149.093 216.822 155.424 213.21 164.333 213.21M164.333 213.21C169.843 220.59 180.697 228.976 185.435 232.247M94.9443 203.984C93.5527 203.35 88.8351 198.185 81.0977 182.604C71.426 163.128 56.4787 165.617 60.4354 170.889C61.5968 172.436 63.8694 176.318 66.6786 181.286M106.742 230.197C101.621 228.407 91.3461 223.035 88.2782 218.628C83.309 211.49 73.4396 193.242 66.6786 181.286M106.742 230.197C104.114 230.734 96.6311 228.264 92.5279 226.975C87.399 225.364 86.9594 222.289 77.8738 215.406C68.7882 208.524 57.5045 187.144 57.0649 183.922C56.6253 180.7 58.2677 176.6 66.6786 181.286" stroke="white" stroke-width="0.711379"/>
<g clip-path="url(#clip0_1885_1462)">
<g filter="url(#filter0_i_1885_1462)">
<path fill-rule="evenodd" clip-rule="evenodd" d="M171.914 53H130.088C125.207 53 121.25 56.957 121.25 61.8382V163.664C121.25 168.545 125.207 172.502 130.088 172.502H171.914C176.795 172.502 180.752 168.545 180.752 163.664V61.8382C180.752 56.957 176.795 53 171.914 53Z" fill="#272727"/>
</g>
<rect x="125.232" y="56.9834" width="51.5353" height="111.535" fill="#F2F2F2"/>
<g filter="url(#filter1_i_1885_1462)">
<path fill-rule="evenodd" clip-rule="evenodd" d="M179.755 61.9627C179.755 57.5627 176.188 53.9958 171.788 53.9958H130.211C125.811 53.9958 122.244 57.5627 122.244 61.9627V163.539C122.244 167.939 125.811 171.506 130.211 171.506H171.788C176.188 171.506 179.755 167.939 179.755 163.539V61.9627ZM139.672 61.0913C138.022 61.0913 136.684 59.7537 136.684 58.1037V57.4813C136.684 57.2063 136.461 56.9834 136.186 56.9834H130.211C127.461 56.9834 125.232 59.2127 125.232 61.9627V163.539C125.232 166.289 127.461 168.519 130.211 168.519H171.788C174.538 168.519 176.767 166.289 176.767 163.539V61.9627C176.767 59.2127 174.538 56.9834 171.788 56.9834H165.813C165.538 56.9834 165.315 57.2063 165.315 57.4813V58.1037C165.315 59.7537 163.977 61.0913 162.327 61.0913H139.672Z" fill="#1F1F1F"/>
</g>
<path d="M171.788 54.027C176.17 54.027 179.723 57.5799 179.723 61.9627V163.539C179.723 167.922 176.17 171.475 171.788 171.475H130.211C125.828 171.475 122.275 167.922 122.275 163.539V61.9627C122.275 57.5799 125.828 54.027 130.211 54.027H171.788ZM139.672 61.0602C138.039 61.0602 136.715 59.7365 136.715 58.1037V57.4813C136.715 57.1891 136.478 56.9523 136.186 56.9523H130.211C127.444 56.9523 125.201 59.1955 125.201 61.9627V163.539C125.201 166.307 127.444 168.55 130.211 168.55H171.788C174.555 168.55 176.798 166.307 176.798 163.539V61.9627C176.798 59.1955 174.555 56.9523 171.788 56.9523H165.813C165.52 56.9523 165.284 57.1891 165.284 57.4813V58.1037C165.284 59.7365 163.96 61.0602 162.327 61.0602H139.672Z" stroke="#3F3F3F" stroke-width="0.0622407"/>
<g filter="url(#filter2_ii_1885_1462)">
<path d="M180.502 81.6187C180.502 81.2135 180.555 80.8101 180.659 80.4186V80.4186C180.684 80.326 180.768 80.2615 180.864 80.2615H180.938C180.972 80.2615 181 80.2891 181 80.3232V92.8969C181 92.9309 180.972 92.9586 180.938 92.9586H180.864C180.768 92.9586 180.684 92.8941 180.659 92.8014V92.8014C180.555 92.4099 180.502 92.0065 180.502 91.6013V81.6187Z" fill="#1F1F1F"/>
</g>
<g filter="url(#filter3_ii_1885_1462)">
<path d="M121.498 89.1165C121.498 88.8301 121.439 88.5469 121.324 88.2846V88.2846C121.309 88.2504 121.275 88.2283 121.237 88.2283H121.07C121.031 88.2283 121 88.2596 121 88.2983V95.8761C121 95.9148 121.031 95.9461 121.07 95.9461H121.237C121.275 95.9461 121.309 95.924 121.324 95.8898V95.8898C121.439 95.6275 121.498 95.3443 121.498 95.0579V89.1165Z" fill="#1F1F1F"/>
</g>
<g filter="url(#filter4_ii_1885_1462)">
<path d="M121.498 78.1622C121.498 77.8758 121.439 77.5925 121.324 77.3302V77.3302C121.309 77.296 121.275 77.2739 121.237 77.2739H121.07C121.031 77.2739 121 77.3053 121 77.3439V84.9217C121 84.9604 121.031 84.9918 121.07 84.9918H121.237C121.275 84.9918 121.309 84.9697 121.324 84.9355V84.9355C121.439 84.6732 121.498 84.3899 121.498 84.1035V78.1622Z" fill="#1F1F1F"/>
</g>
<g filter="url(#filter5_ii_1885_1462)">
<path d="M121.498 69.9569C121.498 69.7691 121.431 69.5874 121.31 69.4443V69.4443C121.303 69.4363 121.293 69.4316 121.282 69.4316H121.09C121.041 69.4316 121 69.472 121 69.5218V73.3248C121 73.3747 121.041 73.415 121.09 73.415H121.282C121.293 73.415 121.303 73.4104 121.31 73.4024V73.4024C121.431 73.2593 121.498 73.0776 121.498 72.8898V69.9569Z" fill="#1F1F1F"/>
</g>
<rect x="179.756" y="64.3276" width="0.995851" height="1.24481" fill="#7E818A"/>
<rect x="179.756" y="159.431" width="0.995851" height="1.24481" fill="#7E818A"/>
<rect x="121.25" y="64.3276" width="0.995851" height="1.24481" fill="#7E818A"/>
<rect x="121.25" y="159.431" width="0.995851" height="1.24481" fill="#7E818A"/>
<circle cx="156.975" cy="57.8548" r="0.746888" fill="#3F3F3F" stroke="#1B1B1B" stroke-width="0.248963"/>
<rect x="147.92" y="57.3881" width="6.53527" height="0.93361" rx="0.466805" fill="#3F3F3F" stroke="#1B1B1B" stroke-width="0.0622407"/>
</g>
<path d="M157.361 110.729C157.707 109.719 157.932 108.658 158.025 107.565L155.826 106.508C155.828 106.154 155.816 105.797 155.783 105.439C155.774 105.316 155.758 105.194 155.744 105.071L157.812 103.774C157.597 102.696 157.255 101.667 156.8 100.704L154.357 100.88C154.119 100.46 153.852 100.056 153.563 99.6743L154.7 97.5277C153.982 96.7168 153.166 95.9934 152.274 95.373L150.249 96.7359C149.834 96.4931 149.402 96.275 148.955 96.0841L148.859 93.6611C147.841 93.3178 146.772 93.094 145.672 93L144.606 95.1843C144.25 95.1812 143.893 95.195 143.531 95.2258C143.405 95.2367 143.282 95.2523 143.159 95.267L141.854 93.2117C140.767 93.4272 139.73 93.7668 138.759 94.2173L138.937 96.6421C138.515 96.8794 138.107 97.1427 137.723 97.4311L135.559 96.3017C134.741 97.0161 134.012 97.825 133.39 98.7112L134.764 100.721C134.518 101.133 134.296 101.561 134.106 102.003L131.663 102.098C131.318 103.109 131.094 104.169 131 105.263L133.2 106.32C133.198 106.674 133.209 107.03 133.24 107.389C133.251 107.513 133.267 107.633 133.283 107.757L131.213 109.053C131.431 110.131 131.771 111.161 132.226 112.123L134.668 111.947C134.907 112.367 135.172 112.769 135.462 113.153L134.324 115.299C135.043 116.112 135.86 116.835 136.751 117.454L138.776 116.091C139.192 116.336 139.624 116.555 140.069 116.744L140.166 119.167C141.184 119.51 142.25 119.734 143.352 119.826L144.419 117.643C144.774 117.645 145.134 117.633 145.495 117.602C145.619 117.592 145.742 117.575 145.864 117.56L147.17 119.617C148.259 119.401 149.295 119.062 150.266 118.612L150.089 116.186C150.51 115.947 150.916 115.685 151.303 115.398L153.466 116.527C154.283 115.812 155.011 115.004 155.635 114.118L154.263 112.108C154.507 111.695 154.727 111.267 154.92 110.824L157.361 110.729ZM144.513 114.328C140.115 114.328 136.539 110.778 136.539 106.414C136.539 102.05 140.115 98.4994 144.513 98.4994C148.909 98.4994 152.486 102.05 152.486 106.414C152.486 110.778 148.909 114.328 144.513 114.328Z" fill="#323232"/>
<path d="M137.107 106.414C137.107 110.466 140.428 113.763 144.512 113.763C148.595 113.763 151.915 110.466 151.915 106.414C151.915 102.362 148.595 99.0645 144.512 99.0645C140.428 99.0645 137.107 102.362 137.107 106.414ZM150.083 105.931C150.351 108.987 148.074 111.68 144.997 111.945C141.92 112.212 139.206 109.95 138.937 106.896C138.671 103.841 140.948 101.148 144.025 100.883C147.104 100.616 149.817 102.878 150.083 105.931Z" fill="#323232"/>
<path d="M155.242 122.696C155.169 126.169 157.955 129.054 161.454 129.126C164.952 129.199 167.858 126.433 167.931 122.961C168.005 119.488 165.219 116.604 161.719 116.531C158.22 116.458 155.314 119.224 155.242 122.696ZM164.929 120.767C166.018 122.594 165.409 124.951 163.568 126.032C161.704 127.126 159.295 126.492 158.224 124.613C157.22 122.848 157.822 120.524 159.559 119.457C161.408 118.321 163.827 118.921 164.929 120.767Z" fill="#323232"/>
<path d="M171.786 123.827C171.858 123.094 171.852 122.356 171.763 121.617L170.037 121.207C169.946 120.758 169.818 120.31 169.656 119.871L170.922 118.632C170.769 118.299 170.598 117.97 170.406 117.649C170.216 117.329 170.009 117.023 169.787 116.73L168.084 117.235C167.774 116.881 167.441 116.555 167.085 116.262L167.557 114.562C166.947 114.13 166.297 113.768 165.616 113.478L164.393 114.762C163.953 114.61 163.5 114.495 163.042 114.416L162.59 112.706C161.854 112.635 161.109 112.643 160.368 112.733L159.952 114.446C159.499 114.533 159.051 114.66 158.609 114.823L157.359 113.568C157.026 113.717 156.692 113.886 156.369 114.077C156.046 114.266 155.738 114.472 155.443 114.69L155.95 116.383C155.594 116.691 155.266 117.021 154.97 117.374L153.258 116.907C152.822 117.51 152.458 118.155 152.166 118.83L153.458 120.045C153.306 120.483 153.193 120.932 153.112 121.386L151.391 121.835C151.318 122.566 151.326 123.306 151.414 124.043L153.143 124.451C153.232 124.903 153.358 125.348 153.52 125.79L152.256 127.028C152.407 127.362 152.577 127.689 152.769 128.008C152.961 128.33 153.167 128.637 153.388 128.929L155.093 128.425C155.402 128.779 155.738 129.104 156.091 129.397L155.622 131.098C156.231 131.53 156.879 131.894 157.557 132.18L158.783 130.898C159.225 131.051 159.673 131.165 160.135 131.242L160.586 132.952C161.321 133.022 162.068 133.017 162.81 132.929L163.222 131.213C163.676 131.126 164.126 130.999 164.567 130.837L165.821 132.092C166.154 131.944 166.484 131.773 166.807 131.583C167.131 131.394 167.437 131.188 167.733 130.968L167.226 129.277C167.582 128.97 167.91 128.638 168.205 128.287L169.919 128.753C170.354 128.149 170.721 127.504 171.009 126.83L169.717 125.613C169.868 125.178 169.986 124.73 170.065 124.273L171.786 123.827ZM161.449 129.399C157.8 129.323 154.892 126.314 154.969 122.691C155.045 119.068 158.076 116.182 161.727 116.258C165.377 116.334 168.283 119.343 168.208 122.966C168.131 126.589 165.1 129.475 161.449 129.399Z" fill="#323232"/>
<path d="M136.539 106.414C136.539 110.778 140.116 114.328 144.513 114.328C148.91 114.328 152.486 110.778 152.486 106.414C152.486 102.05 148.91 98.4993 144.513 98.4993C140.116 98.4992 136.539 102.05 136.539 106.414ZM151.916 106.414C151.916 110.466 148.596 113.763 144.513 113.763C140.429 113.763 137.109 110.466 137.109 106.414C137.109 102.362 140.429 99.0643 144.513 99.0643C148.596 99.0643 151.916 102.362 151.916 106.414Z" fill="#F2F2F2"/>
<path d="M154.968 122.691C154.891 126.314 157.799 129.323 161.448 129.399C165.099 129.475 168.13 126.589 168.207 122.966C168.282 119.343 165.376 116.334 161.726 116.258C158.075 116.182 155.044 119.068 154.968 122.691ZM167.932 122.961C167.859 126.433 164.953 129.199 161.454 129.126C157.956 129.054 155.169 126.169 155.242 122.696C155.315 119.224 158.221 116.458 161.72 116.531C165.22 116.604 168.006 119.488 167.932 122.961Z" fill="#F2F2F2"/>
<defs>
<filter id="filter0_i_1885_1462" x="121.25" y="53" width="59.502" height="119.502" filterUnits="userSpaceOnUse" color-interpolation-filters="sRGB">
<feFlood flood-opacity="0" result="BackgroundImageFix"/>
<feBlend mode="normal" in="SourceGraphic" in2="BackgroundImageFix" result="shape"/>
<feColorMatrix in="SourceAlpha" type="matrix" values="0 0 0 0 0 0 0 0 0 0 0 0 0 0 0 0 0 0 127 0" result="hardAlpha"/>
<feOffset/>
<feGaussianBlur stdDeviation="0.497925"/>
<feComposite in2="hardAlpha" operator="arithmetic" k2="-1" k3="1"/>
<feColorMatrix type="matrix" values="0 0 0 0 0.879152 0 0 0 0 0.879152 0 0 0 0 0.879152 0 0 0 0.56 0"/>
<feBlend mode="normal" in2="shape" result="effect1_innerShadow_1885_1462"/>
</filter>
<filter id="filter1_i_1885_1462" x="122.244" y="53.9958" width="57.5098" height="117.884" filterUnits="userSpaceOnUse" color-interpolation-filters="sRGB">
<feFlood flood-opacity="0" result="BackgroundImageFix"/>
<feBlend mode="normal" in="SourceGraphic" in2="BackgroundImageFix" result="shape"/>
<feColorMatrix in="SourceAlpha" type="matrix" values="0 0 0 0 0 0 0 0 0 0 0 0 0 0 0 0 0 0 127 0" result="hardAlpha"/>
<feOffset dy="0.373444"/>
<feGaussianBlur stdDeviation="0.497925"/>
<feComposite in2="hardAlpha" operator="arithmetic" k2="-1" k3="1"/>
<feColorMatrix type="matrix" values="0 0 0 0 0 0 0 0 0 0 0 0 0 0 0 0 0 0 0.04 0"/>
<feBlend mode="normal" in2="shape" result="effect1_innerShadow_1885_1462"/>
</filter>
<filter id="filter2_ii_1885_1462" x="180.44" y="80.2615" width="0.560288" height="12.697" filterUnits="userSpaceOnUse" color-interpolation-filters="sRGB">
<feFlood flood-opacity="0" result="BackgroundImageFix"/>
<feBlend mode="normal" in="SourceGraphic" in2="BackgroundImageFix" result="shape"/>
<feColorMatrix in="SourceAlpha" type="matrix" values="0 0 0 0 0 0 0 0 0 0 0 0 0 0 0 0 0 0 127 0" result="hardAlpha"/>
<feOffset dx="-0.0622407"/>
<feGaussianBlur stdDeviation="0.0622407"/>
<feComposite in2="hardAlpha" operator="arithmetic" k2="-1" k3="1"/>
<feColorMatrix type="matrix" values="0 0 0 0 1 0 0 0 0 1 0 0 0 0 1 0 0 0 0.4 0"/>
<feBlend mode="normal" in2="shape" result="effect1_innerShadow_1885_1462"/>
<feColorMatrix in="SourceAlpha" type="matrix" values="0 0 0 0 0 0 0 0 0 0 0 0 0 0 0 0 0 0 127 0" result="hardAlpha"/>
<feOffset/>
<feGaussianBlur stdDeviation="0.124481"/>
<feComposite in2="hardAlpha" operator="arithmetic" k2="-1" k3="1"/>
<feColorMatrix type="matrix" values="0 0 0 0 0 0 0 0 0 0 0 0 0 0 0 0 0 0 0.08 0"/>
<feBlend mode="normal" in2="effect1_innerShadow_1885_1462" result="effect2_innerShadow_1885_1462"/>
</filter>
<filter id="filter3_ii_1885_1462" x="121" y="88.2283" width="0.560288" height="7.71777" filterUnits="userSpaceOnUse" color-interpolation-filters="sRGB">
<feFlood flood-opacity="0" result="BackgroundImageFix"/>
<feBlend mode="normal" in="SourceGraphic" in2="BackgroundImageFix" result="shape"/>
<feColorMatrix in="SourceAlpha" type="matrix" values="0 0 0 0 0 0 0 0 0 0 0 0 0 0 0 0 0 0 127 0" result="hardAlpha"/>
<feOffset dx="0.0622407"/>
<feGaussianBlur stdDeviation="0.0622407"/>
<feComposite in2="hardAlpha" operator="arithmetic" k2="-1" k3="1"/>
<feColorMatrix type="matrix" values="0 0 0 0 1 0 0 0 0 1 0 0 0 0 1 0 0 0 0.4 0"/>
<feBlend mode="normal" in2="shape" result="effect1_innerShadow_1885_1462"/>
<feColorMatrix in="SourceAlpha" type="matrix" values="0 0 0 0 0 0 0 0 0 0 0 0 0 0 0 0 0 0 127 0" result="hardAlpha"/>
<feOffset/>
<feGaussianBlur stdDeviation="0.124481"/>
<feComposite in2="hardAlpha" operator="arithmetic" k2="-1" k3="1"/>
<feColorMatrix type="matrix" values="0 0 0 0 0 0 0 0 0 0 0 0 0 0 0 0 0 0 0.08 0"/>
<feBlend mode="normal" in2="effect1_innerShadow_1885_1462" result="effect2_innerShadow_1885_1462"/>
</filter>
<filter id="filter4_ii_1885_1462" x="121" y="77.2739" width="0.560288" height="7.71777" filterUnits="userSpaceOnUse" color-interpolation-filters="sRGB">
<feFlood flood-opacity="0" result="BackgroundImageFix"/>
<feBlend mode="normal" in="SourceGraphic" in2="BackgroundImageFix" result="shape"/>
<feColorMatrix in="SourceAlpha" type="matrix" values="0 0 0 0 0 0 0 0 0 0 0 0 0 0 0 0 0 0 127 0" result="hardAlpha"/>
<feOffset dx="0.0622407"/>
<feGaussianBlur stdDeviation="0.0622407"/>
<feComposite in2="hardAlpha" operator="arithmetic" k2="-1" k3="1"/>
<feColorMatrix type="matrix" values="0 0 0 0 1 0 0 0 0 1 0 0 0 0 1 0 0 0 0.4 0"/>
<feBlend mode="normal" in2="shape" result="effect1_innerShadow_1885_1462"/>
<feColorMatrix in="SourceAlpha" type="matrix" values="0 0 0 0 0 0 0 0 0 0 0 0 0 0 0 0 0 0 127 0" result="hardAlpha"/>
<feOffset/>
<feGaussianBlur stdDeviation="0.124481"/>
<feComposite in2="hardAlpha" operator="arithmetic" k2="-1" k3="1"/>
<feColorMatrix type="matrix" values="0 0 0 0 0 0 0 0 0 0 0 0 0 0 0 0 0 0 0.08 0"/>
<feBlend mode="normal" in2="effect1_innerShadow_1885_1462" result="effect2_innerShadow_1885_1462"/>
</filter>
<filter id="filter5_ii_1885_1462" x="121" y="69.4316" width="0.560288" height="3.9834" filterUnits="userSpaceOnUse" color-interpolation-filters="sRGB">
<feFlood flood-opacity="0" result="BackgroundImageFix"/>
<feBlend mode="normal" in="SourceGraphic" in2="BackgroundImageFix" result="shape"/>
<feColorMatrix in="SourceAlpha" type="matrix" values="0 0 0 0 0 0 0 0 0 0 0 0 0 0 0 0 0 0 127 0" result="hardAlpha"/>
<feOffset dx="0.0622407"/>
<feGaussianBlur stdDeviation="0.0622407"/>
<feComposite in2="hardAlpha" operator="arithmetic" k2="-1" k3="1"/>
<feColorMatrix type="matrix" values="0 0 0 0 1 0 0 0 0 1 0 0 0 0 1 0 0 0 0.4 0"/>
<feBlend mode="normal" in2="shape" result="effect1_innerShadow_1885_1462"/>
<feColorMatrix in="SourceAlpha" type="matrix" values="0 0 0 0 0 0 0 0 0 0 0 0 0 0 0 0 0 0 127 0" result="hardAlpha"/>
<feOffset/>
<feGaussianBlur stdDeviation="0.124481"/>
<feComposite in2="hardAlpha" operator="arithmetic" k2="-1" k3="1"/>
<feColorMatrix type="matrix" values="0 0 0 0 0 0 0 0 0 0 0 0 0 0 0 0 0 0 0.08 0"/>
<feBlend mode="normal" in2="effect1_innerShadow_1885_1462" result="effect2_innerShadow_1885_1462"/>
</filter>
<clipPath id="clip0_1885_1462">
<rect width="60" height="119.502" fill="white" transform="translate(121 53)"/>
</clipPath>
</defs>
</svg>
