<svg width="310" height="310" viewBox="0 0 310 310" fill="none" xmlns="http://www.w3.org/2000/svg">
<circle cx="155" cy="155" r="154" fill="#F2F2F2" stroke="#323232" stroke-width="2" stroke-dasharray="4.86 4.86"/>
<path d="M106.742 224.197C101.621 222.407 91.3461 217.035 88.2782 212.628C83.309 205.49 73.4396 187.242 66.6786 175.286C58.2677 170.6 56.6253 174.7 57.0649 177.922C57.5045 181.144 68.7882 202.524 77.8738 209.406C86.9594 216.289 87.399 219.364 92.5279 220.975C96.6311 222.264 104.114 224.734 106.742 224.197Z" fill="#323232"/>
<path d="M140.3 239.133C127.698 233.422 101.907 213.8 99.5619 207.21C98.4716 204.145 96.6524 201.208 94.9443 197.984C93.5527 197.35 88.8351 192.185 81.0977 176.604C71.426 157.128 56.4787 159.617 60.4354 164.889C61.5968 166.436 63.8694 170.318 66.6786 175.286C73.4396 187.242 83.309 205.49 88.2782 212.628C91.3461 217.035 101.621 222.407 106.742 224.197C113.363 226.51 115.03 224.999 119.492 230.201C125.822 237.581 136.002 239.231 140.3 239.133Z" fill="#323232"/>
<path d="M180.599 246.309C192.44 249.941 205.072 261.002 209.908 266.078C222.364 263.833 247.012 258.698 245.957 256.12C244.638 252.899 234.82 239.133 223.829 224.197C212.839 209.26 190.271 197.984 182.651 196.08C175.031 194.177 161.402 182.169 147.041 176.604C132.68 171.039 131.068 175.433 135.025 185.976C138.19 194.411 155.883 203.646 164.333 207.21C155.424 207.21 149.093 210.822 147.041 212.628C144.697 208.059 125.06 200.962 115.535 197.984C116.952 200.425 118.847 203.725 115.095 197.398C111.344 191.072 103.177 177.678 99.5619 171.772C93.1141 152.442 80.5115 156.542 83.1493 159.617C85.787 162.692 90.0367 175.579 90.7694 185.098C91.1614 190.19 92.9793 194.276 94.9443 197.984C96.6524 201.208 98.4716 204.145 99.5619 207.21C101.907 213.8 127.698 233.422 140.3 239.133C152.903 244.845 165.799 241.769 180.599 246.309Z" fill="#323232"/>
<path d="M140.3 239.133C152.903 244.845 165.799 241.769 180.599 246.309C192.44 249.941 205.072 261.002 209.908 266.078C222.364 263.833 247.012 258.698 245.957 256.12C244.638 252.899 234.82 239.133 223.829 224.197C212.839 209.26 190.271 197.984 182.651 196.08C175.031 194.177 161.402 182.169 147.041 176.604C132.68 171.039 131.068 175.433 135.025 185.976C138.19 194.411 155.883 203.646 164.333 207.21M140.3 239.133C127.698 233.422 101.907 213.8 99.5619 207.21C98.4716 204.145 96.6524 201.208 94.9443 197.984M140.3 239.133C136.002 239.231 125.822 237.581 119.492 230.201C115.03 224.999 113.363 226.51 106.742 224.197M147.041 212.628C144.697 208.059 125.06 200.962 115.535 197.984C116.952 200.425 118.847 203.725 115.095 197.398C111.344 191.072 103.177 177.678 99.5619 171.772C93.1141 152.442 80.5115 156.542 83.1493 159.617C85.787 162.692 90.0367 175.579 90.7694 185.098C91.1614 190.19 92.9793 194.276 94.9443 197.984M147.041 212.628C149.386 217.197 150.363 220.096 150.558 220.975M147.041 212.628C149.093 210.822 155.424 207.21 164.333 207.21M164.333 207.21C169.843 214.59 180.697 222.976 185.435 226.247M94.9443 197.984C93.5527 197.35 88.8351 192.185 81.0977 176.604C71.426 157.128 56.4787 159.617 60.4354 164.889C61.5968 166.436 63.8694 170.318 66.6786 175.286M106.742 224.197C101.621 222.407 91.3461 217.035 88.2782 212.628C83.309 205.49 73.4396 187.242 66.6786 175.286M106.742 224.197C104.114 224.734 96.6311 222.264 92.5279 220.975C87.399 219.364 86.9594 216.289 77.8738 209.406C68.7882 202.524 57.5045 181.144 57.0649 177.922C56.6253 174.7 58.2677 170.6 66.6786 175.286" stroke="white" stroke-width="0.711379"/>
<path fill-rule="evenodd" clip-rule="evenodd" d="M98.5034 151.995C104 147 112.002 157 118.945 151.996L119.058 144.849C116.447 140.521 100.001 144 98.5034 151.995Z" fill="#323232"/>
<path fill-rule="evenodd" clip-rule="evenodd" d="M134.284 151.636L134.377 145.715L119.63 146.102L119.553 151.002L134.284 151.636ZM135.535 145.12L135.423 152.266C135.42 152.47 135.417 152.675 135.222 152.876C135.031 152.873 135.031 152.873 134.839 152.87L118.96 152.219C118.577 152.213 118.389 152.006 118.395 151.597L118.491 145.472C118.494 145.268 118.692 144.862 119.075 144.868L134.971 144.499C135.162 144.502 135.162 144.502 135.35 144.709C135.542 144.712 135.539 144.916 135.535 145.12Z" fill="#323232"/>
<path fill-rule="evenodd" clip-rule="evenodd" d="M135.437 151.242C152.053 153.742 168.909 153.183 183.66 152.592C192.662 152.321 204.925 151.692 204.947 150.263L204.96 149.446C204.982 148.017 192.742 147.217 183.756 146.467C169.031 145.424 152.201 144.35 135.513 146.341L135.437 151.242ZM205.917 149.461L205.904 150.277C205.869 152.523 200.117 153.048 183.641 153.817C168.89 154.408 151.651 154.961 134.843 152.458C134.46 152.452 134.275 152.041 134.279 151.836L134.375 145.711C134.378 145.507 134.572 145.306 134.955 145.312C151.834 143.323 169.05 144.199 183.775 145.242C200.22 146.514 205.952 147.215 205.917 149.461Z" fill="#323232"/>
<path d="M117.49 111.849H122.174V126.234C122.174 127.849 121.788 129.263 121.016 130.474C120.252 131.685 119.181 132.63 117.804 133.308C116.427 133.978 114.822 134.314 112.991 134.314C111.152 134.314 109.544 133.978 108.167 133.308C106.79 132.63 105.719 131.685 104.955 130.474C104.19 129.263 103.808 127.849 103.808 126.234V111.849H108.491V125.834C108.491 126.678 108.675 127.427 109.043 128.084C109.418 128.74 109.944 129.255 110.622 129.63C111.3 130.005 112.09 130.193 112.991 130.193C113.899 130.193 114.689 130.005 115.36 129.63C116.037 129.255 116.56 128.74 116.928 128.084C117.303 127.427 117.49 126.678 117.49 125.834V111.849ZM130.418 111.849L134.885 119.398H135.058L139.547 111.849H144.836L138.076 122.924L144.987 134H139.601L135.058 126.44H134.885L130.342 134H124.978L131.911 122.924L125.107 111.849H130.418ZM164.41 110.81L157.272 137.331H153.302L160.441 110.81H164.41ZM187.448 111.849H192.132V126.234C192.132 127.849 191.746 129.263 190.974 130.474C190.21 131.685 189.139 132.63 187.762 133.308C186.385 133.978 184.78 134.314 182.949 134.314C181.11 134.314 179.502 133.978 178.125 133.308C176.748 132.63 175.677 131.685 174.912 130.474C174.148 129.263 173.766 127.849 173.766 126.234V111.849H178.449V125.834C178.449 126.678 178.633 127.427 179.001 128.084C179.376 128.74 179.902 129.255 180.58 129.63C181.258 130.005 182.047 130.193 182.949 130.193C183.857 130.193 184.647 130.005 185.317 129.63C185.995 129.255 186.518 128.74 186.886 128.084C187.261 127.427 187.448 126.678 187.448 125.834V111.849ZM200.668 111.849V134H195.985V111.849H200.668Z" fill="#323232"/>
</svg>
