<svg width="18" height="18" viewBox="0 0 40 41" fill="none" xmlns="http://www.w3.org/2000/svg">
<path fill-rule="evenodd" clip-rule="evenodd" d="M26.3945 15.5254C25.4921 15.5254 24.7598 14.793 24.7598 13.8906C24.7598 12.9882 25.4921 12.2559 26.3945 12.2559C27.2969 12.2559 28.0293 12.9882 28.0293 13.8906C28.0293 14.793 27.2969 15.5254 26.3945 15.5254ZM19.8555 26.9688C16.2492 26.9688 13.3164 24.036 13.3164 20.4297C13.3164 16.8234 16.2492 13.8906 19.8555 13.8906C23.4618 13.8906 26.3945 16.8234 26.3945 20.4297C26.3945 24.036 23.4618 26.9688 19.8555 26.9688ZM28.0293 10.6211H11.6816C10.7793 10.6211 10.0469 11.3551 10.0469 12.2559V28.6035C10.0469 29.5043 10.7793 30.2383 11.6816 30.2383H28.0293C28.9317 30.2383 29.6641 29.5043 29.6641 28.6035V12.2559C29.6641 11.3551 28.9317 10.6211 28.0293 10.6211Z" fill="#323232"/>
<path fill-rule="evenodd" clip-rule="evenodd" d="M32.9297 28.6035C32.9297 31.3074 30.7293 33.5078 28.0254 33.5078H11.6777C8.97383 33.5078 6.77344 31.3074 6.77344 28.6035V12.2559C6.77344 9.55196 8.97383 7.35156 11.6777 7.35156H28.0254C30.7293 7.35156 32.9297 9.55196 32.9297 12.2559V28.6035ZM28.0254 0.8125H11.6777C5.36917 0.8125 0.234375 5.94566 0.234375 12.2559V28.6035C0.234375 34.9137 5.36917 40.0469 11.6777 40.0469H28.0254C34.334 40.0469 39.4688 34.9137 39.4688 28.6035V12.2559C39.4688 5.94566 34.334 0.8125 28.0254 0.8125Z" fill="#323232"/>
<path fill-rule="evenodd" clip-rule="evenodd" d="M19.8477 17.1602C18.0445 17.1602 16.5781 18.6265 16.5781 20.4297C16.5781 22.2328 18.0445 23.6992 19.8477 23.6992C21.6508 23.6992 23.1172 22.2328 23.1172 20.4297C23.1172 18.6265 21.6508 17.1602 19.8477 17.1602Z" fill="#323232"/>
</svg>
