<svg width="18" height="18" viewBox="0 0 45 45" fill="none" xmlns="http://www.w3.org/2000/svg">
<path d="M38.384 3.75038H6.62148C6.26444 3.74543 5.90992 3.81085 5.57817 3.94292C5.24642 4.07498 4.94393 4.27111 4.68798 4.52009C4.43203 4.76908 4.22764 5.06604 4.08647 5.39403C3.9453 5.72201 3.87013 6.07459 3.86523 6.43163V38.5691C3.87013 38.9262 3.9453 39.2788 4.08647 39.6067C4.22764 39.9347 4.43203 40.2317 4.68798 40.4807C4.94393 40.7297 5.24642 40.9258 5.57817 41.0578C5.90992 41.1899 6.26444 41.2553 6.62148 41.2504H38.384C38.741 41.2553 39.0955 41.1899 39.4273 41.0578C39.7591 40.9258 40.0615 40.7297 40.3175 40.4807C40.5734 40.2317 40.7778 39.9347 40.919 39.6067C41.0602 39.2788 41.1353 38.9262 41.1402 38.5691V6.43163C41.1353 6.07459 41.0602 5.72201 40.919 5.39403C40.7778 5.06604 40.5734 4.76908 40.3175 4.52009C40.0615 4.27111 39.7591 4.07498 39.4273 3.94292C39.0955 3.81085 38.741 3.74543 38.384 3.75038ZM15.1715 35.1379H9.54648V18.2629H15.1715V35.1379ZM12.359 15.9004C11.5832 15.9004 10.8392 15.5922 10.2907 15.0437C9.74215 14.4951 9.43398 13.7511 9.43398 12.9754C9.43398 12.1996 9.74215 11.4556 10.2907 10.9071C10.8392 10.3586 11.5832 10.0504 12.359 10.0504C12.7709 10.0037 13.1881 10.0445 13.5831 10.1702C13.9782 10.2958 14.3422 10.5036 14.6515 10.7797C14.9607 11.0558 15.2081 11.3942 15.3775 11.7725C15.5469 12.1509 15.6345 12.5608 15.6345 12.9754C15.6345 13.39 15.5469 13.7998 15.3775 14.1782C15.2081 14.5566 14.9607 14.8949 14.6515 15.1711C14.3422 15.4472 13.9782 15.6549 13.5831 15.7806C13.1881 15.9063 12.7709 15.9471 12.359 15.9004ZM35.459 35.1379H29.834V26.0816C29.834 23.8129 29.0277 22.3316 26.984 22.3316C26.3515 22.3363 25.7356 22.5347 25.2193 22.9001C24.703 23.2655 24.3111 23.7804 24.0965 24.3754C23.9498 24.8161 23.8862 25.2802 23.909 25.7441V35.1191H18.284C18.284 35.1191 18.284 19.7816 18.284 18.2441H23.909V20.6254C24.42 19.7387 25.1632 19.0082 26.0586 18.5126C26.9539 18.017 27.9675 17.7751 28.9902 17.8129C32.7402 17.8129 35.459 20.2316 35.459 25.4254V35.1379Z" fill="#323232"/>
</svg>
