<svg width="18" height="18" viewBox="0 0 36 37" fill="none" xmlns="http://www.w3.org/2000/svg">
<path d="M34.5413 36.6348H25.5354C25.2249 36.6348 25.0696 36.4795 24.9143 36.3242L17.7717 23.9023L10.6292 36.1689C10.4739 36.4795 10.3186 36.4795 10.0081 36.4795H1.0022C0.69165 36.4795 0.536377 36.3242 0.381104 36.1689C0.22583 36.0137 0.22583 35.7031 0.381104 35.3926C0.381104 35.2373 0.536377 35.082 0.536377 35.082L9.85278 18.7783L0.381104 2.31934C0.381104 2.16406 0.22583 2.16406 0.22583 2.00879C0.0705566 1.69824 0.0705566 1.3877 0.22583 1.23242C0.381104 1.07715 0.69165 0.921875 1.0022 0.921875H10.0081C10.3186 0.921875 10.4739 1.07715 10.6292 1.23242L17.7717 13.6543L24.9143 1.3877C25.0696 1.07715 25.2249 1.07715 25.5354 1.07715H34.6965C35.0071 1.07715 35.1624 1.23242 35.3176 1.3877C35.4729 1.54297 35.4729 1.85352 35.3176 2.16406C35.3176 2.31934 35.1624 2.47461 35.1624 2.47461L25.6907 18.7783L35.1624 35.2373C35.1624 35.3926 35.3176 35.3926 35.3176 35.5479C35.4729 35.8584 35.4729 36.1689 35.3176 36.3242C35.1624 36.4795 34.8518 36.6348 34.5413 36.6348Z" fill="#323232"/>
</svg>
