<svg width="480" height="280" viewBox="0 0 552 321" fill="none" xmlns="http://www.w3.org/2000/svg">
<path d="M36.3903 211.505H1V197.893L36.3903 184.281H69.0582L104.448 197.893V211.505H70.257" stroke="#323232" stroke-width="1.91617" stroke-linecap="round" stroke-linejoin="round"/>
<path d="M37.3906 184.281H70.0586V293.174H37.3906V184.281Z" stroke="#323232" stroke-width="1.91617" stroke-linejoin="round"/>
<path d="M37.3906 206.059H48.2799M37.3906 255.061H51.0023M37.3906 222.393H51.0023M37.3906 238.727H48.2799M37.3906 271.395H48.2799M37.3906 200.614V276.839" stroke="#323232" stroke-width="1.91617" stroke-linecap="round" stroke-linejoin="round"/>
<path d="M131.313 0.958084H436.925C438.513 0.958084 439.8 2.24493 439.8 3.83234V223.168C439.8 224.755 438.513 226.042 436.925 226.042H131.313C129.725 226.042 128.439 224.755 128.439 223.168V3.83233C128.439 2.24492 129.725 0.958084 131.313 0.958084Z" fill="#F2F2F2" stroke="#323232" stroke-width="1.91617"/>
<rect x="247.386" y="226.163" width="73.4714" height="22.3754" fill="#0E0E0E" stroke="#323232" stroke-width="1.91617"/>
<rect x="472.169" y="170.999" width="78.4972" height="121.217" fill="#F2F2F2" stroke="#323232" stroke-width="1.91617"/>
<rect x="491.435" y="170.999" width="39.1282" height="3.94731" fill="#323232" stroke="#323232" stroke-width="1.91617"/>
<rect x="485.575" y="191.94" width="9.81078" height="9.81078" fill="#F2F2F2" stroke="#323232" stroke-width="1.91617"/>
<rect x="506.521" y="191.94" width="9.81078" height="9.81078" fill="#F2F2F2" stroke="#323232" stroke-width="1.91617"/>
<rect x="526.622" y="191.94" width="9.81078" height="9.81078" fill="#F2F2F2" stroke="#323232" stroke-width="1.91617"/>
<rect x="485.575" y="212.881" width="9.81078" height="9.81078" fill="#F2F2F2" stroke="#323232" stroke-width="1.91617"/>
<rect x="485.575" y="232.148" width="9.81078" height="9.81078" fill="#F2F2F2" stroke="#323232" stroke-width="1.91617"/>
<path d="M233.561 304.923L211.252 313.621L233.561 320H357.001V304.923H233.561Z" stroke="#323232" stroke-width="1.91617"/>
<path d="M257.7 113.486H257.744L256.941 112.352C252.814 106.525 249.662 99.799 249.662 92.3986C249.662 73.6981 265.542 58.5154 284.281 58.5154C303.021 58.5154 318.901 73.6984 318.901 92.374C318.901 99.7992 315.749 106.525 311.622 112.352L310.936 113.319C310.503 113.905 310.071 114.481 309.641 115.056C307.681 117.671 305.749 120.25 303.882 123.448L303.881 123.449C298.903 132.002 299.154 139.983 299.25 143.029C299.255 143.186 299.259 143.33 299.262 143.46H292.853V112.937L300.63 97.3826L301.15 96.3427H299.987H295.938H295.49L295.293 96.7447L287.587 112.45L287.514 112.6V112.767V143.46H281.098V112.767V112.6L281.024 112.45L273.319 96.7447L273.122 96.3427H272.674H268.6H267.437L267.957 97.3826L275.734 112.937V143.46H269.322C269.324 143.355 269.327 143.239 269.33 143.111C269.4 140.297 269.607 131.996 264.632 123.449L264.632 123.448C262.765 120.25 260.832 117.671 258.873 115.056C258.483 114.536 258.092 114.014 257.7 113.486ZM291.416 164.529V167.018H277.147V164.529H291.416ZM273.221 156.676H295.342V159.166H273.221V156.676ZM273.221 148.823H295.342V151.313H273.221V148.823Z" fill="#323232" stroke="#323232" stroke-width="1.43713"/>
<path d="M244.751 100.518H53.7695V182.187" stroke="#323232" stroke-width="1.91617" stroke-dasharray="8 8"/>
<path d="M284.119 174.229V301.797" stroke="#323232" stroke-width="1.91617" stroke-dasharray="8 8"/>
<path d="M323 98H510V167" stroke="#323232" stroke-width="1.91617" stroke-dasharray="8 8"/>
<path d="M2 211.737V197.844L5.83234 196.407L10.6228 194.491L19.7246 191.138L28.8264 187.785L37.4491 184.785V211.737H2Z" fill="#323232" stroke="#323232" stroke-width="1.91617"/>
<path d="M105.477 211.737V197.909L101.748 196.479L97.0869 194.571L88.231 191.234L79.3752 187.896L70.9855 184.689V211.737H105.477Z" fill="#323232" stroke="#323232" stroke-width="1.91617"/>
</svg>
