<svg width="18" height="18" viewBox="0 0 49 40" fill="none" xmlns="http://www.w3.org/2000/svg">
<path fill-rule="evenodd" clip-rule="evenodd" d="M24.3164 0.8125C26.3955 0.8125 28.528 0.865996 30.5949 0.953535L33.0363 1.07025L35.3731 1.20886L37.5616 1.35719L39.5604 1.51281C41.7295 1.67884 43.7706 2.60449 45.3246 4.12692C46.8786 5.64935 47.846 7.67104 48.0565 9.83632L48.1538 10.8698L48.3362 13.0826C48.5064 15.3756 48.6328 17.8753 48.6328 20.2656C48.6328 22.6559 48.5064 25.1557 48.3362 27.4487L48.1538 29.6615C48.1222 30.0165 48.0906 30.3594 48.0565 30.6949C47.8459 32.8606 46.8782 34.8826 45.3237 36.4051C43.7692 37.9275 41.7275 38.853 39.5579 39.0184L37.564 39.1716L35.3755 39.3224L33.0363 39.461L30.5949 39.5777C28.5033 39.6686 26.41 39.7156 24.3164 39.7188C22.2228 39.7156 20.1295 39.6686 18.0379 39.5777L15.5965 39.461L13.2597 39.3224L11.0713 39.1716L9.07245 39.0184C6.90331 38.8524 4.86219 37.9268 3.30818 36.4043C1.75417 34.8819 0.786816 32.8602 0.576299 30.6949L0.479033 29.6615L0.29666 27.4487C0.110731 25.0587 0.0117789 22.6628 0 20.2656C0 17.8753 0.126445 15.3756 0.29666 13.0826L0.479033 10.8698C0.510645 10.5147 0.542256 10.1719 0.576299 9.83632C0.786735 7.67142 1.75374 5.65004 3.30725 4.12766C4.86077 2.60528 6.90131 1.67939 9.07002 1.51281L11.0664 1.35719L13.2549 1.20886L15.5941 1.07025L18.0355 0.953535C20.1279 0.862672 22.222 0.81565 24.3164 0.8125ZM19.4531 14.3689V26.1624C19.4531 27.2858 20.6689 27.9861 21.6416 27.4268L31.8545 21.5301C32.0767 21.4022 32.2613 21.2179 32.3897 20.9959C32.518 20.7739 32.5856 20.522 32.5856 20.2656C32.5856 20.0092 32.518 19.7573 32.3897 19.5353C32.2613 19.3133 32.0767 19.1291 31.8545 19.0012L21.6416 13.1069C21.4197 12.9788 21.1681 12.9114 20.9119 12.9114C20.6557 12.9114 20.404 12.9789 20.1822 13.1071C19.9604 13.2353 19.7762 13.4196 19.6482 13.6415C19.5203 13.8634 19.453 14.1151 19.4531 14.3713V14.3689Z" fill="#323232"/>
</svg>
